M48
; DRILL file {KiCad 7.0.8} date Tue Oct 31 22:16:14 2023
; FORMAT={-:-/ absolute / inch / decimal}
; #@! TF.CreationDate,2023-10-31T22:16:14+02:00
; #@! TF.GenerationSoftware,Kicad,Pcbnew,7.0.8
; #@! TF.FileFunction,Plated,1,2,PTH
FMAT,2
INCH
; #@! TA.AperFunction,Plated,PTH,ViaDrill
T1C0.0118
; #@! TA.AperFunction,Plated,PTH,ComponentDrill
T2C0.0118
; #@! TA.AperFunction,Plated,PTH,ComponentDrill
T3C0.0157
; #@! TA.AperFunction,Plated,PTH,ComponentDrill
T4C0.0236
; #@! TA.AperFunction,Plated,PTH,ComponentDrill
T5C0.0315
; #@! TA.AperFunction,Plated,PTH,ComponentDrill
T6C0.0362
; #@! TA.AperFunction,Plated,PTH,ComponentDrill
T7C0.0394
; #@! TA.AperFunction,Plated,PTH,ComponentDrill
T8C0.0433
; #@! TA.AperFunction,Plated,PTH,ComponentDrill
T9C0.0472
; #@! TA.AperFunction,Plated,PTH,ComponentDrill
T10C0.0520
; #@! TA.AperFunction,Plated,PTH,ViaDrill
T11C0.0591
; #@! TA.AperFunction,Plated,PTH,ComponentDrill
T12C0.0591
; #@! TA.AperFunction,Plated,PTH,ComponentDrill
T13C0.0906
; #@! TA.AperFunction,Plated,PTH,ComponentDrill
T14C0.1260
%
G90
G05
T1
X1.997Y-5.3169
X1.997Y-5.378
X2.002Y-5.2657
X2.0119Y-2.1344
X2.0119Y-2.2526
X2.0119Y-2.3707
X2.0119Y-2.4888
X2.0119Y-2.6069
X2.0119Y-2.725
X2.0119Y-2.8431
X2.0119Y-2.9612
X2.0119Y-3.1974
X2.0119Y-3.3156
X2.0119Y-3.4337
X2.0119Y-3.5518
X2.0119Y-3.6699
X2.0119Y-3.788
X2.0119Y-3.9061
X2.0119Y-4.0242
X2.0119Y-4.1423
X2.0119Y-4.2604
X2.0119Y-4.3785
X2.0119Y-4.9691
X2.0119Y-5.0872
X2.0119Y-6.3864
X2.0119Y-6.5045
X2.0179Y-5.3465
X2.0256Y-4.4606
X2.0256Y-4.5571
X2.0256Y-4.6122
X2.0256Y-4.6831
X2.0256Y-4.7579
X2.0256Y-4.8346
X2.0256Y-5.1358
X2.0256Y-5.4567
X2.0276Y-5.0138
X2.0295Y-4.9213
X2.0413Y-5.5295
X2.0556Y-4.3091
X2.0561Y-5.4262
X2.0571Y-5.4764
X2.0669Y-5.6201
X2.0925Y-4.2126
X2.0925Y-6.2244
X2.1083Y-4.6398
X2.1301Y-2.0163
X2.1301Y-2.3707
X2.1301Y-2.4888
X2.1301Y-2.6069
X2.1301Y-2.725
X2.1301Y-2.8431
X2.1301Y-3.6699
X2.1301Y-3.788
X2.1301Y-3.9061
X2.1301Y-4.1423
X2.1301Y-6.3864
X2.1516Y-5.0276
X2.1535Y-5.1181
X2.1555Y-4.8307
X2.1555Y-4.9173
X2.1575Y-4.7244
X2.1732Y-3.2185
X2.1732Y-4.5728
X2.2047Y-4.6654
X2.2126Y-5.2598
X2.2283Y-4.2224
X2.2482Y-2.0163
X2.2482Y-2.3707
X2.2482Y-2.4888
X2.2482Y-2.6069
X2.2482Y-2.725
X2.2482Y-2.8431
X2.2482Y-2.9612
X2.2482Y-3.0793
X2.2482Y-4.1423
X2.2482Y-5.6778
X2.2482Y-6.3864
X2.2549Y-5.4331
X2.2697Y-4.626
X2.2756Y-4.8858
X2.2756Y-4.9409
X2.2776Y-5.0591
X2.2776Y-5.2579
X2.2835Y-4.7598
X2.2835Y-5.6024
X2.3012Y-4.9705
X2.3031Y-4.8583
X2.3031Y-4.9134
X2.3071Y-6.0295
X2.3287Y-3.1713
X2.3307Y-4.8858
X2.3307Y-4.9409
X2.3406Y-5.561
X2.3563Y-3.8386
X2.3583Y-4.8583
X2.3583Y-4.9134
X2.3583Y-4.9685
X2.3663Y-2.0163
X2.3663Y-2.1344
X2.3663Y-2.2526
X2.3663Y-2.3707
X2.3663Y-2.8431
X2.3663Y-2.9612
X2.3663Y-3.0793
X2.3663Y-3.6699
X2.3663Y-4.0242
X2.3663Y-5.7959
X2.3663Y-6.3864
X2.3663Y-6.5045
X2.3663Y-6.6226
X2.3799Y-5.5669
X2.3819Y-4.6201
X2.3858Y-4.8858
X2.3858Y-4.9409
X2.3878Y-4.3169
X2.3937Y-3.3543
X2.3957Y-3.4626
X2.3957Y-3.498
X2.3996Y-5.2736
X2.4035Y-3.3209
X2.4035Y-3.935
X2.4035Y-4.7165
X2.4055Y-5.9055
X2.4075Y-4.2815
X2.4213Y-4.3169
X2.4272Y-6.0157
X2.4272Y-6.0512
X2.4409Y-5.9035
X2.4429Y-5.7402
X2.4488Y-4.3169
X2.4528Y-5.7835
X2.4567Y-4.7953
X2.4626Y-4.2815
X2.4719Y-5.8169
X2.4764Y-4.3169
X2.4764Y-5.3484
X2.4783Y-4.6181
X2.4844Y-2.0163
X2.4844Y-2.1344
X2.4844Y-2.2526
X2.4844Y-2.3707
X2.4844Y-2.4888
X2.4844Y-2.6069
X2.4844Y-2.725
X2.4844Y-2.8431
X2.4844Y-3.0793
X2.4844Y-3.1974
X2.4844Y-4.1423
X2.4844Y-4.7329
X2.4844Y-4.851
X2.4844Y-4.9691
X2.4844Y-6.3864
X2.4844Y-6.5045
X2.4844Y-6.6226
X2.4902Y-3.2854
X2.4941Y-5.0177
X2.5197Y-6.0177
X2.5276Y-3.2854
X2.5335Y-3.6063
X2.5354Y-5.3563
X2.5374Y-4.8681
X2.5492Y-6.1654
X2.5531Y-5.4528
X2.5551Y-5.2697
X2.5551Y-6.3681
X2.5591Y-5.315
X2.561Y-4.7323
X2.563Y-4.063
X2.5669Y-5.6083
X2.5669Y-5.6378
X2.5669Y-5.6693
X2.5728Y-5.9035
X2.5827Y-5.4055
X2.5846Y-5.1024
X2.5984Y-5.2953
X2.6025Y-2.0163
X2.6025Y-2.1344
X2.6025Y-2.2526
X2.6025Y-2.4888
X2.6025Y-2.6069
X2.6025Y-2.725
X2.6025Y-4.851
X2.6025Y-4.9691
X2.6025Y-6.5045
X2.6025Y-6.6226
X2.6083Y-4.6142
X2.6161Y-5.2598
X2.628Y-5.4331
X2.6378Y-4.2087
X2.6378Y-5.0157
X2.6378Y-5.1004
X2.6417Y-4.9272
X2.6457Y-3.065
X2.647Y-4.674
X2.6496Y-6.1752
X2.6575Y-4.811
X2.6614Y-6.002
X2.6654Y-4.1811
X2.6654Y-5.3327
X2.6673Y-3.7972
X2.6673Y-4.0709
X2.6673Y-5.2559
X2.6693Y-4.5728
X2.6713Y-5.1417
X2.6909Y-4.4449
X2.6949Y-5.8898
X2.7008Y-4.2047
X2.7008Y-5.2638
X2.717Y-6.031
X2.7206Y-2.0163
X2.7206Y-2.1344
X2.7206Y-2.4888
X2.7206Y-2.6069
X2.7206Y-2.9612
X2.7206Y-4.4967
X2.7206Y-5.3234
X2.7206Y-5.5596
X2.7206Y-5.6778
X2.7206Y-5.7959
X2.7303Y-3.9449
X2.7343Y-4.1575
X2.7795Y-3.7559
X2.7815Y-4.878
X2.7874Y-3.8031
X2.7874Y-3.9547
X2.7894Y-3.7067
X2.7933Y-5.1417
X2.7992Y-5.0138
X2.811Y-4.9055
X2.815Y-4.8445
X2.8228Y-5.7382
X2.8346Y-4.0079
X2.8366Y-6.1594
X2.8386Y-4.7402
X2.8387Y-2.0163
X2.8387Y-2.1344
X2.8387Y-2.2526
X2.8387Y-2.3707
X2.8387Y-2.4888
X2.8387Y-2.6069
X2.8387Y-2.725
X2.8387Y-2.8431
X2.8387Y-2.9612
X2.8387Y-3.0793
X2.8387Y-4.3785
X2.8387Y-4.4967
X2.8387Y-4.6148
X2.8387Y-5.2053
X2.8387Y-5.4415
X2.8425Y-5.25
X2.8465Y-5.6476
X2.8465Y-6.372
X2.8514Y-5.811
X2.876Y-4.1299
X2.8898Y-3.7953
X2.8957Y-4.7795
X2.8996Y-3.7559
X2.9035Y-5.7598
X2.9035Y-6.1575
X2.9173Y-5.6988
X2.9252Y-4.9154
X2.9272Y-4.7323
X2.9291Y-5.7933
X2.9311Y-4.878
X2.9311Y-5.628
X2.9469Y-6.2264
X2.9567Y-5.8209
X2.9568Y-2.0163
X2.9568Y-2.1344
X2.9568Y-2.2526
X2.9568Y-2.3707
X2.9568Y-2.6069
X2.9568Y-2.8431
X2.9568Y-2.9612
X2.9568Y-3.0793
X2.9568Y-3.788
X2.9568Y-3.9061
X2.9568Y-4.0242
X2.9568Y-4.2604
X2.9568Y-4.3785
X2.9568Y-4.4967
X2.9568Y-4.6148
X2.9568Y-4.9691
X2.9568Y-5.0872
X2.9568Y-5.2053
X2.9568Y-5.3234
X2.9568Y-6.3864
X2.9568Y-6.5045
X2.9568Y-6.6226
X2.9587Y-5.7421
X2.9587Y-5.8917
X2.9921Y-4.9114
X2.9941Y-5.5492
X2.998Y-5.7185
X3.0Y-5.8346
X3.0138Y-5.3799
X3.0157Y-3.7283
X3.0315Y-5.5886
X3.0354Y-4.8937
X3.0374Y-5.9055
X3.0413Y-4.8189
X3.064Y-3.6801
X3.0748Y-4.8701
X3.0748Y-5.8091
X3.0749Y-2.0163
X3.0749Y-2.1344
X3.0749Y-2.2526
X3.0749Y-2.3707
X3.0749Y-2.4888
X3.0749Y-2.6069
X3.0749Y-3.9061
X3.0749Y-4.0242
X3.0749Y-4.2604
X3.0749Y-4.3785
X3.0749Y-4.4967
X3.0749Y-5.0872
X3.0749Y-5.2053
X3.0749Y-5.3234
X3.0749Y-6.0321
X3.0749Y-6.1502
X3.0749Y-6.3864
X3.0765Y-5.5861
X3.1063Y-5.8484
X3.1863Y-5.2006
X3.193Y-2.0163
X3.193Y-2.1344
X3.193Y-2.2526
X3.193Y-2.3707
X3.193Y-2.4888
X3.193Y-2.8431
X3.193Y-2.9612
X3.193Y-3.1974
X3.193Y-3.3156
X3.193Y-3.4337
X3.193Y-3.6699
X3.193Y-3.788
X3.193Y-4.0242
X3.193Y-4.2604
X3.193Y-4.3785
X3.193Y-4.7329
X3.193Y-4.851
X3.193Y-4.9691
X3.193Y-5.7959
X3.193Y-5.914
X3.193Y-6.1502
X3.193Y-6.2683
X3.193Y-6.5045
X3.193Y-6.6226
X3.2323Y-2.7146
X3.2343Y-2.6378
X3.2894Y-5.3642
X3.2913Y-4.0551
X3.3112Y-2.0163
X3.3112Y-2.1344
X3.3112Y-2.2526
X3.3112Y-2.3707
X3.3112Y-2.4888
X3.3112Y-3.1974
X3.3112Y-3.4337
X3.3112Y-3.6699
X3.3112Y-3.788
X3.3112Y-3.9061
X3.3112Y-4.2604
X3.3112Y-4.6148
X3.3112Y-4.7329
X3.3112Y-4.851
X3.3112Y-4.9691
X3.3112Y-5.2053
X3.3112Y-5.914
X3.3112Y-6.2683
X3.3112Y-6.3864
X3.3278Y-4.0699
X3.3366Y-5.2697
X3.3504Y-4.0965
X3.3661Y-3.9862
X3.3701Y-4.128
X3.3957Y-2.874
X3.401Y-3.9986
X3.4055Y-2.9114
X3.4213Y-4.0728
X3.4232Y-2.876
X3.4272Y-4.0197
X3.4293Y-2.0163
X3.4293Y-2.1344
X3.4293Y-3.4337
X3.4293Y-3.6699
X3.4293Y-3.788
X3.4293Y-3.9061
X3.4293Y-4.4967
X3.4293Y-4.6148
X3.4293Y-4.851
X3.4293Y-4.9691
X3.4293Y-5.2053
X3.4293Y-5.5596
X3.4293Y-5.914
X3.4293Y-6.1502
X3.4293Y-6.2683
X3.4293Y-6.3864
X3.4293Y-6.5045
X3.4293Y-6.6226
X3.4375Y-2.9072
X3.4409Y-4.2146
X3.4547Y-2.876
X3.4685Y-4.748
X3.4685Y-4.8051
X3.4685Y-5.8071
X3.471Y-2.9093
X3.4843Y-5.9705
X3.4862Y-2.876
X3.4882Y-3.8051
X3.4882Y-3.9449
X3.4882Y-4.1949
X3.4921Y-4.1417
X3.4941Y-5.2264
X3.4941Y-5.7402
X3.4961Y-5.9075
X3.5059Y-2.9075
X3.5118Y-5.4705
X3.5197Y-2.874
X3.5197Y-3.8406
X3.5315Y-2.939
X3.5354Y-2.9783
X3.5354Y-3.0709
X3.5374Y-3.0256
X3.5394Y-2.9055
X3.5433Y-5.813
X3.5453Y-3.7992
X3.5453Y-5.7776
X3.5474Y-2.0163
X3.5474Y-2.2526
X3.5474Y-2.3707
X3.5474Y-2.4888
X3.5474Y-2.6069
X3.5474Y-3.1974
X3.5474Y-3.3156
X3.5474Y-4.4967
X3.5474Y-4.851
X3.5474Y-4.9691
X3.5474Y-5.2053
X3.5474Y-6.5045
X3.5474Y-6.6226
X3.5492Y-5.6063
X3.5531Y-2.874
X3.5551Y-4.3051
X3.561Y-3.0512
X3.563Y-3.002
X3.565Y-2.9193
X3.565Y-2.9528
X3.5689Y-3.8622
X3.5689Y-4.6299
X3.5709Y-4.3799
X3.5728Y-3.7598
X3.5768Y-4.1004
X3.5807Y-2.8917
X3.5984Y-4.2461
X3.6004Y-3.9882
X3.6043Y-4.0217
X3.622Y-4.7402
X3.6299Y-4.2185
X3.6319Y-3.9744
X3.6378Y-4.8681
X3.6516Y-4.4173
X3.6575Y-4.624
X3.6634Y-4.2776
X3.6655Y-2.0163
X3.6655Y-2.2526
X3.6655Y-2.3707
X3.6655Y-2.4888
X3.6655Y-3.4337
X3.6655Y-3.5518
X3.6655Y-5.2053
X3.6655Y-6.6226
X3.6673Y-4.2126
X3.6693Y-5.878
X3.6732Y-3.6299
X3.6752Y-5.5827
X3.6772Y-5.5256
X3.6791Y-4.4862
X3.6811Y-3.3504
X3.6811Y-4.0472
X3.6831Y-4.4469
X3.687Y-3.9744
X3.6909Y-4.3701
X3.6929Y-4.3012
X3.6988Y-3.8248
X3.7087Y-3.5098
X3.7087Y-3.9449
X3.7165Y-3.9961
X3.7185Y-4.8504
X3.748Y-3.7579
X3.748Y-4.0217
X3.748Y-5.7638
X3.752Y-4.2008
X3.752Y-4.3819
X3.7579Y-3.6181
X3.7618Y-4.5669
X3.7677Y-3.2972
X3.7697Y-5.3642
X3.7736Y-6.1319
X3.7795Y-5.7362
X3.7836Y-2.0163
X3.7836Y-2.2526
X3.7836Y-2.3707
X3.7836Y-2.4888
X3.7836Y-2.725
X3.7836Y-3.4337
X3.7836Y-5.2053
X3.7836Y-6.3864
X3.7894Y-4.5925
X3.7894Y-5.878
X3.7992Y-4.4311
X3.8012Y-5.4646
X3.8051Y-4.1181
X3.8071Y-3.3209
X3.8071Y-3.6181
X3.8071Y-3.7539
X3.8071Y-5.5748
X3.8248Y-4.8996
X3.8268Y-4.626
X3.8268Y-4.8504
X3.8287Y-4.7736
X3.8327Y-4.4016
X3.8346Y-5.189
X3.8406Y-3.7598
X3.8406Y-5.2343
X3.8445Y-5.7106
X3.8484Y-5.0728
X3.8543Y-4.6654
X3.8583Y-4.4862
X3.8701Y-6.1299
X3.8799Y-4.5138
X3.8839Y-3.3701
X3.8878Y-5.0748
X3.9017Y-2.0163
X3.9017Y-2.1344
X3.9017Y-2.2526
X3.9017Y-2.3707
X3.9017Y-2.4888
X3.9017Y-2.725
X3.9017Y-3.4337
X3.9017Y-6.3864
X3.9017Y-6.5045
X3.9017Y-6.6226
X3.9035Y-5.3681
X3.9213Y-3.872
X3.9252Y-4.5079
X3.9272Y-4.6142
X3.9331Y-4.5492
X3.935Y-4.4075
X3.9439Y-5.2707
X3.9449Y-5.3031
X3.9488Y-4.5827
X3.9587Y-5.1811
X3.9685Y-3.7835
X3.9783Y-5.4705
X3.9803Y-5.0728
X3.9803Y-5.6274
X3.9882Y-4.1476
X3.9921Y-3.8957
X3.9941Y-5.1929
X4.002Y-3.6161
X4.002Y-5.0374
X4.0118Y-3.5236
X4.0198Y-2.0163
X4.0198Y-2.1344
X4.0198Y-2.3707
X4.0198Y-2.4888
X4.0198Y-2.725
X4.0198Y-3.1974
X4.0198Y-3.4337
X4.0198Y-4.2604
X4.0198Y-4.4967
X4.0198Y-6.3864
X4.0236Y-4.7972
X4.0276Y-5.7126
X4.0315Y-5.6772
X4.0374Y-5.128
X4.0374Y-5.1791
X4.0433Y-4.6063
X4.0472Y-3.6004
X4.0728Y-5.1063
X4.0807Y-5.7185
X4.1043Y-4.6142
X4.1083Y-4.5807
X4.1379Y-2.0163
X4.1379Y-2.2526
X4.1379Y-3.4337
X4.1379Y-3.9061
X4.1379Y-6.3864
X4.1379Y-6.5045
X4.1379Y-6.6226
X4.1398Y-4.7539
X4.1398Y-4.9587
X4.1417Y-5.0197
X4.1437Y-4.8366
X4.1535Y-5.3602
X4.1555Y-5.4114
X4.1654Y-3.5866
X4.1713Y-2.9016
X4.1713Y-3.624
X4.1732Y-5.0728
X4.1791Y-2.937
X4.187Y-5.4232
X4.1909Y-3.998
X4.1988Y-5.0413
X4.2165Y-2.9016
X4.2224Y-3.561
X4.2224Y-4.5433
X4.2244Y-2.939
X4.2244Y-5.1339
X4.2264Y-3.752
X4.2283Y-3.8307
X4.2283Y-3.9331
X4.2283Y-3.9744
X4.2283Y-4.0217
X4.2283Y-4.063
X4.2303Y-3.7913
X4.2303Y-4.5807
X4.2323Y-4.6201
X4.2323Y-4.7933
X4.2323Y-5.1004
X4.2343Y-3.6594
X4.2441Y-3.5335
X4.2539Y-2.687
X4.2539Y-2.7992
X4.2559Y-2.7264
X4.2559Y-2.7657
X4.2559Y-2.8346
X4.2559Y-2.9075
X4.256Y-2.0163
X4.256Y-2.2526
X4.256Y-2.4888
X4.256Y-5.4415
X4.256Y-6.3864
X4.256Y-6.5045
X4.256Y-6.6226
X4.2579Y-2.8681
X4.2579Y-3.4567
X4.2579Y-4.9016
X4.2598Y-3.7205
X4.2618Y-4.8406
X4.2835Y-2.937
X4.2854Y-4.0
X4.2874Y-3.9311
X4.2874Y-4.5413
X4.2874Y-4.6122
X4.2874Y-4.6673
X4.2874Y-4.7067
X4.2874Y-5.2618
X4.2894Y-3.8189
X4.2894Y-4.0669
X4.2894Y-4.9587
X4.2913Y-5.0472
X4.2933Y-2.8169
X4.2933Y-2.8563
X4.2933Y-2.8957
X4.2933Y-5.1398
X4.2933Y-5.2165
X4.2953Y-2.6988
X4.2953Y-2.7815
X4.2972Y-2.7362
X4.315Y-5.2854
X4.3169Y-3.6594
X4.3169Y-3.7047
X4.3287Y-5.1024
X4.3602Y-3.6929
X4.3642Y-4.0571
X4.3681Y-3.9311
X4.3681Y-4.0236
X4.3681Y-4.5807
X4.3681Y-4.9016
X4.3701Y-3.9744
X4.3701Y-4.6752
X4.372Y-4.5413
X4.374Y-3.5217
X4.3741Y-2.0163
X4.3741Y-2.1344
X4.3741Y-2.2526
X4.3741Y-2.3707
X4.3741Y-2.4888
X4.3741Y-2.6069
X4.3741Y-2.725
X4.3741Y-2.8431
X4.3741Y-2.9612
X4.3741Y-3.1974
X4.3741Y-4.1423
X4.3741Y-4.2604
X4.3741Y-4.3785
X4.3741Y-4.4967
X4.3741Y-4.9691
X4.3741Y-5.4415
X4.3741Y-5.5596
X4.3741Y-5.6778
X4.3741Y-5.7959
X4.3741Y-6.0321
X4.3741Y-6.1502
X4.3741Y-6.2683
X4.3741Y-6.3864
X4.3741Y-6.5045
X4.3741Y-6.6226
X4.4193Y-3.5315
X4.4193Y-4.6122
X4.439Y-5.1024
X4.4469Y-3.6378
X4.4488Y-5.2697
X4.4606Y-3.7224
X4.4626Y-4.8484
X4.4626Y-4.9134
X4.4646Y-3.0472
X4.4646Y-5.3484
X4.4923Y-2.0163
X4.4923Y-2.3707
X4.4923Y-2.4888
X4.4923Y-2.6069
X4.4923Y-2.725
X4.4923Y-2.8431
X4.4923Y-2.9612
X4.4923Y-5.4415
X4.4923Y-5.5596
X4.4923Y-5.6778
X4.4923Y-5.7959
X4.4923Y-6.0321
X4.4923Y-6.1502
X4.4923Y-6.2683
X4.4923Y-6.3864
X4.4923Y-6.5045
X4.4923Y-6.6226
X4.4941Y-4.6398
X4.5Y-4.6752
X4.5098Y-3.4803
X4.5118Y-4.874
X4.5157Y-5.3465
X4.5177Y-3.5689
X4.5236Y-4.9114
X4.5354Y-5.1024
X4.5374Y-4.815
X4.5394Y-5.0295
X4.5531Y-5.2697
X4.561Y-4.6161
X4.561Y-4.6594
X4.563Y-5.128
X4.563Y-5.3661
X4.565Y-3.1772
X4.5886Y-5.0079
X4.5906Y-5.0728
X4.5938Y-4.9653
X4.5945Y-4.6083
X4.6104Y-2.0163
X4.6104Y-2.2526
X4.6104Y-2.4888
X4.6104Y-2.6069
X4.6104Y-2.8431
X4.6104Y-2.9612
X4.6104Y-5.4415
X4.6104Y-5.5596
X4.6104Y-5.6778
X4.6104Y-5.7959
X4.6104Y-5.914
X4.6104Y-6.0321
X4.6104Y-6.1502
X4.6104Y-6.2683
X4.6104Y-6.3864
X4.624Y-5.3691
X4.626Y-4.6378
X4.6358Y-4.8051
X4.6417Y-3.5374
X4.6516Y-3.1161
X4.6732Y-3.6024
X4.6831Y-5.0709
X4.7285Y-2.0163
X4.7285Y-2.2526
X4.7285Y-2.8431
X4.7285Y-2.9612
X4.7285Y-4.6148
X4.7285Y-5.0872
X4.7285Y-5.5596
X4.7285Y-5.6778
X4.7285Y-5.7959
X4.7285Y-5.914
X4.7285Y-6.0321
X4.7285Y-6.1502
X4.7285Y-6.2683
X4.7343Y-3.6004
X4.7382Y-3.0512
X4.7598Y-3.3878
X4.7697Y-5.3701
X4.7736Y-5.0512
X4.7997Y-3.2764
X4.8031Y-3.3858
X4.813Y-5.2677
X4.8268Y-5.1043
X4.8327Y-3.5945
X4.8327Y-3.6299
X4.8327Y-3.6594
X4.8327Y-3.6929
X4.8327Y-3.7264
X4.8466Y-2.0163
X4.8466Y-2.1344
X4.8466Y-2.2526
X4.8466Y-2.3707
X4.8466Y-2.4888
X4.8466Y-2.6069
X4.8466Y-2.725
X4.8466Y-2.8431
X4.8466Y-2.9612
X4.8466Y-5.5596
X4.8466Y-5.6778
X4.8466Y-5.7959
X4.8466Y-5.914
X4.8466Y-6.0321
X4.8466Y-6.5045
X4.8466Y-6.6226
X4.8524Y-3.8602
X4.8622Y-3.5768
X4.8622Y-5.4075
X4.8681Y-3.6122
X4.8681Y-3.6476
X4.8681Y-3.6772
X4.8681Y-3.7106
X4.8681Y-3.7441
X4.8701Y-4.7776
X4.8701Y-5.4921
X4.874Y-3.0787
X4.8996Y-4.4724
X4.9016Y-3.3228
X4.9016Y-3.3602
X4.9018Y-3.8201
X4.9035Y-3.3976
X4.9055Y-2.811
X4.9075Y-2.752
X4.9114Y-3.1181
X4.9134Y-3.2815
X4.9173Y-3.0394
X4.9193Y-3.9232
X4.9193Y-3.9724
X4.9193Y-4.0157
X4.9193Y-4.0571
X4.9222Y-4.4065
X4.9272Y-2.7835
X4.9272Y-2.8346
X4.9291Y-2.7264
X4.9469Y-2.811
X4.9469Y-4.3799
X4.9488Y-2.752
X4.9647Y-2.0163
X4.9647Y-2.2526
X4.9647Y-2.3707
X4.9647Y-2.4888
X4.9647Y-2.6069
X4.9647Y-4.4967
X4.9647Y-4.6148
X4.9647Y-4.7329
X4.9647Y-4.9691
X4.9647Y-5.0872
X4.9647Y-5.2053
X4.9647Y-5.3234
X4.9647Y-5.6778
X4.9647Y-5.7959
X4.9647Y-5.914
X4.9647Y-6.0321
X4.9647Y-6.1502
X4.9647Y-6.5045
X4.9647Y-6.6226
X5.0079Y-3.876
X5.0728Y-3.2421
X5.0828Y-2.0163
X5.0828Y-2.1344
X5.0828Y-2.2526
X5.0828Y-2.3707
X5.0828Y-2.4888
X5.0828Y-2.6069
X5.0828Y-3.4337
X5.0828Y-4.2604
X5.0828Y-4.3785
X5.0828Y-4.4967
X5.0828Y-4.6148
X5.0828Y-4.7329
X5.0828Y-4.9691
X5.0828Y-5.0872
X5.0828Y-5.2053
X5.0828Y-5.6778
X5.0828Y-5.7959
X5.0828Y-5.914
X5.0828Y-6.6226
X5.1496Y-3.0374
X5.1496Y-3.1161
X5.1614Y-2.8937
X5.2009Y-2.0163
X5.2009Y-3.4337
X5.2009Y-4.4967
X5.2009Y-4.851
X5.2009Y-4.9691
X5.2009Y-5.4415
X5.2009Y-5.6778
X5.2009Y-5.7959
X5.2009Y-6.1502
X5.2009Y-6.2683
X5.2009Y-6.3864
X5.2009Y-6.6226
X5.2146Y-2.8878
X5.2343Y-2.7067
X5.2402Y-2.7402
X5.319Y-2.0163
X5.319Y-2.1344
X5.319Y-2.2526
X5.319Y-2.3707
X5.319Y-2.4888
X5.319Y-2.6069
X5.319Y-2.725
X5.319Y-4.1423
X5.319Y-4.2604
X5.319Y-4.6148
X5.319Y-4.7329
X5.319Y-4.851
X5.319Y-4.9691
X5.319Y-5.4415
X5.319Y-5.6778
X5.319Y-6.0321
X5.319Y-6.1502
X5.319Y-6.2683
X5.319Y-6.6226
X5.4371Y-2.0163
X5.4371Y-2.1344
X5.4371Y-2.2526
X5.4371Y-2.6069
X5.4371Y-2.725
X5.4371Y-2.8431
X5.4371Y-2.9612
X5.4371Y-3.0793
X5.4371Y-3.1974
X5.4371Y-3.3156
X5.4371Y-3.4337
X5.4371Y-4.1423
X5.4371Y-4.2604
X5.4371Y-5.914
X5.4371Y-6.2683
X5.4371Y-6.3864
X5.4371Y-6.5045
X5.4371Y-6.6226
X5.5553Y-2.0163
X5.5553Y-2.1344
X5.5553Y-2.2526
X5.5553Y-2.3707
X5.5553Y-2.4888
X5.5553Y-2.6069
X5.5553Y-2.725
X5.5553Y-2.8431
X5.5553Y-2.9612
X5.5553Y-3.0793
X5.5553Y-3.1974
X5.5553Y-3.3156
X5.5553Y-3.4337
X5.5553Y-4.1423
X5.5553Y-4.2604
X5.5553Y-4.3785
X5.5553Y-4.4967
X5.5553Y-4.6148
X5.5553Y-4.7329
X5.5553Y-4.851
X5.5553Y-4.9691
X5.5553Y-5.0872
X5.5553Y-5.2053
X5.5553Y-5.3234
X5.5553Y-5.4415
X5.5553Y-5.5596
X5.5553Y-5.6778
X5.5553Y-5.7959
X5.5553Y-5.914
X5.5553Y-6.0321
X5.5553Y-6.1502
X5.5553Y-6.2683
X5.5553Y-6.3864
X5.5553Y-6.5045
X5.5553Y-6.6226
X5.6734Y-2.0163
X5.6734Y-2.3707
X5.6734Y-2.4888
X5.6734Y-2.6069
X5.6734Y-2.725
X5.6734Y-2.8431
X5.6734Y-2.9612
X5.6734Y-3.0793
X5.6734Y-3.1974
X5.6734Y-3.3156
X5.6734Y-3.4337
X5.6734Y-4.1423
X5.6734Y-4.2604
X5.6734Y-4.3785
X5.6734Y-4.4967
X5.6734Y-4.6148
X5.6734Y-4.7329
X5.6734Y-4.851
X5.6734Y-4.9691
X5.6734Y-5.0872
X5.6734Y-5.2053
X5.6734Y-5.3234
X5.6734Y-5.4415
X5.6734Y-5.5596
X5.6734Y-5.6778
X5.6734Y-5.7959
X5.6734Y-5.914
X5.6734Y-6.0321
X5.6734Y-6.1502
X5.6734Y-6.3864
X5.7915Y-2.0163
X5.7915Y-2.6069
X5.7915Y-2.725
X5.7915Y-2.8431
X5.7915Y-2.9612
X5.7915Y-3.0793
X5.7915Y-3.1974
X5.7915Y-3.3156
X5.7915Y-3.4337
X5.7915Y-4.1423
X5.7915Y-4.2604
X5.7915Y-4.3785
X5.7915Y-4.4967
X5.7915Y-4.6148
X5.7915Y-4.7329
X5.7915Y-4.851
X5.7915Y-4.9691
X5.7915Y-5.0872
X5.7915Y-5.2053
X5.7915Y-5.3234
X5.7915Y-5.4415
X5.7915Y-5.5596
X5.7915Y-5.6778
X5.7915Y-5.7959
X5.7915Y-5.914
X5.7915Y-6.2683
X5.7915Y-6.3864
T2
X3.7717Y-5.9705
X3.7717Y-6.0098
X3.7717Y-6.0492
X3.8228Y-5.9705
X3.8228Y-6.0098
X3.8228Y-6.0492
T3
X2.0846Y-5.8508
X2.1024Y-5.8201
X2.1201Y-5.8508
X2.1378Y-5.8201
X2.1555Y-5.8508
X2.1732Y-5.8201
X2.1909Y-5.8508
X2.2087Y-5.8201
X2.2264Y-5.8508
X2.2441Y-5.8201
X2.2618Y-5.8508
X2.2795Y-5.8201
X2.2972Y-5.8508
X2.315Y-5.8201
T5
X2.024Y-6.2992
X2.224Y-6.2992
X3.624Y-2.7027
X3.624Y-2.8404
X4.0155Y-5.7781
X4.1023Y-2.6201
X4.1129Y-5.8755
X4.2401Y-2.6201
X4.3168Y-5.9134
X4.4546Y-5.9134
X4.8899Y-6.1772
X5.0277Y-6.1772
T6
X2.2767Y-3.6299
X2.2767Y-3.7283
X2.2767Y-3.8071
X2.2767Y-3.9055
T7
X2.372Y-6.248
X2.472Y-6.248
X2.572Y-6.248
X2.672Y-6.248
X2.772Y-6.248
X2.872Y-6.248
X3.9148Y-3.689
X4.0148Y-3.689
X4.0669Y-5.3159
X4.0669Y-5.4159
X4.2736Y-3.085
X4.2736Y-3.185
T8
X4.0437Y-3.3467
X4.1437Y-3.3467
X4.2437Y-3.3467
X5.1656Y-3.5457
X5.1656Y-3.6457
X5.1656Y-3.7457
T9
X2.4193Y-2.4882
X2.4193Y-2.5866
X2.4193Y-2.685
X2.9902Y-2.4882
X2.9902Y-2.685
X4.4071Y-4.7795
X4.4435Y-5.0085
X5.0092Y-5.5742
X5.2071Y-4.7795
T10
X3.0807Y-6.5689
X3.2776Y-6.5689
X3.5295Y-2.124
X3.7264Y-2.124
X3.7807Y-6.5748
X3.9776Y-6.5748
X4.5565Y-2.7185
X4.5709Y-6.5531
X4.7533Y-2.7185
X4.7677Y-6.5531
X4.9856Y-2.1339
X5.1825Y-2.1339
T11
X2.3701Y-5.4114
T12
X5.2078Y-4.1921
X5.2078Y-4.4067
X5.2078Y-4.6213
X5.2094Y-5.1496
X5.2094Y-5.3642
X5.2094Y-5.5787
T13
X2.17Y-3.5091
X2.17Y-4.0264
X2.7146Y-2.3661
X2.7146Y-2.8071
T14
X2.1654Y-2.1654
X2.1654Y-6.5354
X5.748Y-2.1654
X5.748Y-6.5354
T4
G00X2.0827Y-5.7791
M15
G01X2.122Y-5.7791
M16
G05
G00X2.0827Y-5.8917
M15
G01X2.122Y-5.8917
M16
G05
G00X2.2776Y-5.7791
M15
G01X2.3169Y-5.7791
M16
G05
G00X2.2776Y-5.8917
M15
G01X2.3169Y-5.8917
M16
G05
T5
G00X3.9705Y-2.187
M15
G01X3.9705Y-2.2736
M16
G05
G00X4.2028Y-2.1201
M15
G01X4.1161Y-2.1201
M16
G05
G00X4.2106Y-2.3484
M15
G01X4.1083Y-2.3484
M16
G05
G00X4.4547Y-2.1831
M15
G01X4.4547Y-2.2697
M16
G05
G00X4.687Y-2.1161
M15
G01X4.6004Y-2.1161
M16
G05
G00X4.6949Y-2.3445
M15
G01X4.5925Y-2.3445
M16
G05
G00X5.0748Y-6.3268
M15
G01X5.1772Y-6.3268
M16
G05
G00X5.0827Y-6.5551
M15
G01X5.1693Y-6.5551
M16
G05
G00X5.315Y-6.4882
M15
G01X5.315Y-6.4016
M16
G05
T7
G00X3.2037Y-3.5906
M15
G01X3.1742Y-3.5906
M16
G05
G00X3.1742Y-5.4856
M15
G01X3.2037Y-5.4856
M16
G05
G00X3.3022Y-3.2913
M15
G01X3.2726Y-3.2913
M16
G05
G00X3.2726Y-5.7848
M15
G01X3.3022Y-5.7848
M16
G05
G00X3.4006Y-3.5906
M15
G01X3.3711Y-3.5906
M16
G05
G00X3.3711Y-5.4856
M15
G01X3.4006Y-5.4856
M16
G05
T12
G00X5.4219Y-2.4291
M15
G01X5.4613Y-2.4291
M16
G05
G00X5.4219Y-6.0906
M15
G01X5.4613Y-6.0906
M16
G05
G00X5.8156Y-2.4291
M15
G01X5.855Y-2.4291
M16
G05
G00X5.8156Y-6.0906
M15
G01X5.855Y-6.0906
M16
G05
T0
M30
