%TF.GenerationSoftware,KiCad,Pcbnew,7.0.8*%
%TF.CreationDate,2023-10-31T22:16:14+02:00*%
%TF.ProjectId,Small_load_V1,536d616c-6c5f-46c6-9f61-645f56312e6b,rev?*%
%TF.SameCoordinates,Original*%
%TF.FileFunction,Legend,Bot*%
%TF.FilePolarity,Positive*%
%FSLAX46Y46*%
G04 Gerber Fmt 4.6, Leading zero omitted, Abs format (unit mm)*
G04 Created by KiCad (PCBNEW 7.0.8) date 2023-10-31 22:16:14*
%MOMM*%
%LPD*%
G01*
G04 APERTURE LIST*
G04 Aperture macros list*
%AMRoundRect*
0 Rectangle with rounded corners*
0 $1 Rounding radius*
0 $2 $3 $4 $5 $6 $7 $8 $9 X,Y pos of 4 corners*
0 Add a 4 corners polygon primitive as box body*
4,1,4,$2,$3,$4,$5,$6,$7,$8,$9,$2,$3,0*
0 Add four circle primitives for the rounded corners*
1,1,$1+$1,$2,$3*
1,1,$1+$1,$4,$5*
1,1,$1+$1,$6,$7*
1,1,$1+$1,$8,$9*
0 Add four rect primitives between the rounded corners*
20,1,$1+$1,$2,$3,$4,$5,0*
20,1,$1+$1,$4,$5,$6,$7,0*
20,1,$1+$1,$6,$7,$8,$9,0*
20,1,$1+$1,$8,$9,$2,$3,0*%
%AMHorizOval*
0 Thick line with rounded ends*
0 $1 width*
0 $2 $3 position (X,Y) of the first rounded end (center of the circle)*
0 $4 $5 position (X,Y) of the second rounded end (center of the circle)*
0 Add line between two ends*
20,1,$1,$2,$3,$4,$5,0*
0 Add two circle primitives to create the rounded ends*
1,1,$1,$2,$3*
1,1,$1,$4,$5*%
%AMRotRect*
0 Rectangle, with rotation*
0 The origin of the aperture is its center*
0 $1 length*
0 $2 width*
0 $3 Rotation angle, in degrees counterclockwise*
0 Add horizontal line*
21,1,$1,$2,0,0,$3*%
G04 Aperture macros list end*
%ADD10C,0.150000*%
%ADD11C,2.000000*%
%ADD12C,0.120000*%
%ADD13R,4.400000X1.800000*%
%ADD14O,4.000000X1.800000*%
%ADD15O,1.800000X4.000000*%
%ADD16R,1.524000X1.524000*%
%ADD17C,1.524000*%
%ADD18C,3.500000*%
%ADD19R,1.700000X1.700000*%
%ADD20O,1.700000X1.700000*%
%ADD21C,3.600000*%
%ADD22C,6.400000*%
%ADD23R,1.980000X3.960000*%
%ADD24O,1.980000X3.960000*%
%ADD25C,2.000000*%
%ADD26C,4.920000*%
%ADD27C,2.200000*%
%ADD28R,2.000000X1.905000*%
%ADD29O,2.000000X1.905000*%
%ADD30C,5.000000*%
%ADD31R,4.500000X2.500000*%
%ADD32O,4.500000X2.500000*%
%ADD33R,1.905000X2.000000*%
%ADD34O,1.905000X2.000000*%
%ADD35R,3.500000X3.000000*%
%ADD36C,0.600000*%
%ADD37O,1.900000X0.800000*%
%ADD38RoundRect,0.150000X0.150000X-0.825000X0.150000X0.825000X-0.150000X0.825000X-0.150000X-0.825000X0*%
%ADD39RoundRect,0.500000X1.000000X0.500000X-1.000000X0.500000X-1.000000X-0.500000X1.000000X-0.500000X0*%
%ADD40RoundRect,0.500000X-1.000000X-0.500000X1.000000X-0.500000X1.000000X0.500000X-1.000000X0.500000X0*%
%ADD41C,2.400000*%
%ADD42HorizOval,2.400000X0.000000X0.000000X0.000000X0.000000X0*%
%ADD43C,1.600000*%
%ADD44O,1.600000X1.600000*%
%ADD45RoundRect,0.250000X-0.300000X2.050000X-0.300000X-2.050000X0.300000X-2.050000X0.300000X2.050000X0*%
%ADD46RoundRect,0.250002X-5.149998X4.449998X-5.149998X-4.449998X5.149998X-4.449998X5.149998X4.449998X0*%
%ADD47RotRect,1.600000X1.600000X135.000000*%
%ADD48O,2.400000X2.400000*%
%ADD49R,1.600000X1.600000*%
G04 APERTURE END LIST*
D10*
X98954819Y-87238095D02*
X99764342Y-87238095D01*
X99764342Y-87238095D02*
X99859580Y-87285714D01*
X99859580Y-87285714D02*
X99907200Y-87333333D01*
X99907200Y-87333333D02*
X99954819Y-87428571D01*
X99954819Y-87428571D02*
X99954819Y-87619047D01*
X99954819Y-87619047D02*
X99907200Y-87714285D01*
X99907200Y-87714285D02*
X99859580Y-87761904D01*
X99859580Y-87761904D02*
X99764342Y-87809523D01*
X99764342Y-87809523D02*
X98954819Y-87809523D01*
X98954819Y-88714285D02*
X98954819Y-88523809D01*
X98954819Y-88523809D02*
X99002438Y-88428571D01*
X99002438Y-88428571D02*
X99050057Y-88380952D01*
X99050057Y-88380952D02*
X99192914Y-88285714D01*
X99192914Y-88285714D02*
X99383390Y-88238095D01*
X99383390Y-88238095D02*
X99764342Y-88238095D01*
X99764342Y-88238095D02*
X99859580Y-88285714D01*
X99859580Y-88285714D02*
X99907200Y-88333333D01*
X99907200Y-88333333D02*
X99954819Y-88428571D01*
X99954819Y-88428571D02*
X99954819Y-88619047D01*
X99954819Y-88619047D02*
X99907200Y-88714285D01*
X99907200Y-88714285D02*
X99859580Y-88761904D01*
X99859580Y-88761904D02*
X99764342Y-88809523D01*
X99764342Y-88809523D02*
X99526247Y-88809523D01*
X99526247Y-88809523D02*
X99431009Y-88761904D01*
X99431009Y-88761904D02*
X99383390Y-88714285D01*
X99383390Y-88714285D02*
X99335771Y-88619047D01*
X99335771Y-88619047D02*
X99335771Y-88428571D01*
X99335771Y-88428571D02*
X99383390Y-88333333D01*
X99383390Y-88333333D02*
X99431009Y-88285714D01*
X99431009Y-88285714D02*
X99526247Y-88238095D01*
X82073819Y-101566476D02*
X82788104Y-101566476D01*
X82788104Y-101566476D02*
X82930961Y-101518857D01*
X82930961Y-101518857D02*
X83026200Y-101423619D01*
X83026200Y-101423619D02*
X83073819Y-101280762D01*
X83073819Y-101280762D02*
X83073819Y-101185524D01*
X83073819Y-102566476D02*
X83073819Y-101995048D01*
X83073819Y-102280762D02*
X82073819Y-102280762D01*
X82073819Y-102280762D02*
X82216676Y-102185524D01*
X82216676Y-102185524D02*
X82311914Y-102090286D01*
X82311914Y-102090286D02*
X82359533Y-101995048D01*
X82169057Y-102947429D02*
X82121438Y-102995048D01*
X82121438Y-102995048D02*
X82073819Y-103090286D01*
X82073819Y-103090286D02*
X82073819Y-103328381D01*
X82073819Y-103328381D02*
X82121438Y-103423619D01*
X82121438Y-103423619D02*
X82169057Y-103471238D01*
X82169057Y-103471238D02*
X82264295Y-103518857D01*
X82264295Y-103518857D02*
X82359533Y-103518857D01*
X82359533Y-103518857D02*
X82502390Y-103471238D01*
X82502390Y-103471238D02*
X83073819Y-102899810D01*
X83073819Y-102899810D02*
X83073819Y-103518857D01*
D11*
X83528666Y-124601619D02*
X83528666Y-134506381D01*
X83401666Y-94248619D02*
X83401666Y-104153381D01*
X88354047Y-99201000D02*
X78449285Y-99201000D01*
D10*
X122742690Y-132616448D02*
X123315109Y-132515433D01*
X123146751Y-133020509D02*
X123853857Y-132313402D01*
X123853857Y-132313402D02*
X123584483Y-132044028D01*
X123584483Y-132044028D02*
X123483468Y-132010356D01*
X123483468Y-132010356D02*
X123416125Y-132010356D01*
X123416125Y-132010356D02*
X123315109Y-132044028D01*
X123315109Y-132044028D02*
X123214094Y-132145043D01*
X123214094Y-132145043D02*
X123180422Y-132246059D01*
X123180422Y-132246059D02*
X123180422Y-132313402D01*
X123180422Y-132313402D02*
X123214094Y-132414417D01*
X123214094Y-132414417D02*
X123483468Y-132683791D01*
X122608003Y-131538952D02*
X122136598Y-132010356D01*
X123045735Y-131437937D02*
X122709018Y-132111372D01*
X122709018Y-132111372D02*
X122271285Y-131673639D01*
X122540659Y-131000204D02*
X122069254Y-130528799D01*
X122069254Y-130528799D02*
X121665193Y-131538952D01*
X54592857Y-157734819D02*
X54926190Y-157258628D01*
X55164285Y-157734819D02*
X55164285Y-156734819D01*
X55164285Y-156734819D02*
X54783333Y-156734819D01*
X54783333Y-156734819D02*
X54688095Y-156782438D01*
X54688095Y-156782438D02*
X54640476Y-156830057D01*
X54640476Y-156830057D02*
X54592857Y-156925295D01*
X54592857Y-156925295D02*
X54592857Y-157068152D01*
X54592857Y-157068152D02*
X54640476Y-157163390D01*
X54640476Y-157163390D02*
X54688095Y-157211009D01*
X54688095Y-157211009D02*
X54783333Y-157258628D01*
X54783333Y-157258628D02*
X55164285Y-157258628D01*
X53640476Y-157734819D02*
X54211904Y-157734819D01*
X53926190Y-157734819D02*
X53926190Y-156734819D01*
X53926190Y-156734819D02*
X54021428Y-156877676D01*
X54021428Y-156877676D02*
X54116666Y-156972914D01*
X54116666Y-156972914D02*
X54211904Y-157020533D01*
X53307142Y-156734819D02*
X52688095Y-156734819D01*
X52688095Y-156734819D02*
X53021428Y-157115771D01*
X53021428Y-157115771D02*
X52878571Y-157115771D01*
X52878571Y-157115771D02*
X52783333Y-157163390D01*
X52783333Y-157163390D02*
X52735714Y-157211009D01*
X52735714Y-157211009D02*
X52688095Y-157306247D01*
X52688095Y-157306247D02*
X52688095Y-157544342D01*
X52688095Y-157544342D02*
X52735714Y-157639580D01*
X52735714Y-157639580D02*
X52783333Y-157687200D01*
X52783333Y-157687200D02*
X52878571Y-157734819D01*
X52878571Y-157734819D02*
X53164285Y-157734819D01*
X53164285Y-157734819D02*
X53259523Y-157687200D01*
X53259523Y-157687200D02*
X53307142Y-157639580D01*
X111204819Y-101988095D02*
X112014342Y-101988095D01*
X112014342Y-101988095D02*
X112109580Y-102035714D01*
X112109580Y-102035714D02*
X112157200Y-102083333D01*
X112157200Y-102083333D02*
X112204819Y-102178571D01*
X112204819Y-102178571D02*
X112204819Y-102369047D01*
X112204819Y-102369047D02*
X112157200Y-102464285D01*
X112157200Y-102464285D02*
X112109580Y-102511904D01*
X112109580Y-102511904D02*
X112014342Y-102559523D01*
X112014342Y-102559523D02*
X111204819Y-102559523D01*
X111204819Y-102940476D02*
X111204819Y-103607142D01*
X111204819Y-103607142D02*
X112204819Y-103178571D01*
X107142577Y-144996520D02*
X107142577Y-145063864D01*
X107142577Y-145063864D02*
X107209921Y-145198551D01*
X107209921Y-145198551D02*
X107277264Y-145265894D01*
X107277264Y-145265894D02*
X107411951Y-145333238D01*
X107411951Y-145333238D02*
X107546638Y-145333238D01*
X107546638Y-145333238D02*
X107647653Y-145299566D01*
X107647653Y-145299566D02*
X107816012Y-145198551D01*
X107816012Y-145198551D02*
X107917027Y-145097536D01*
X107917027Y-145097536D02*
X108018043Y-144929177D01*
X108018043Y-144929177D02*
X108051714Y-144828162D01*
X108051714Y-144828162D02*
X108051714Y-144693475D01*
X108051714Y-144693475D02*
X107984371Y-144558788D01*
X107984371Y-144558788D02*
X107917027Y-144491444D01*
X107917027Y-144491444D02*
X107782340Y-144424101D01*
X107782340Y-144424101D02*
X107714997Y-144424101D01*
X107445623Y-144154727D02*
X107445623Y-144087383D01*
X107445623Y-144087383D02*
X107411951Y-143986368D01*
X107411951Y-143986368D02*
X107243592Y-143818009D01*
X107243592Y-143818009D02*
X107142577Y-143784337D01*
X107142577Y-143784337D02*
X107075234Y-143784337D01*
X107075234Y-143784337D02*
X106974218Y-143818009D01*
X106974218Y-143818009D02*
X106906875Y-143885353D01*
X106906875Y-143885353D02*
X106839531Y-144020040D01*
X106839531Y-144020040D02*
X106839531Y-144828162D01*
X106839531Y-144828162D02*
X106401799Y-144390429D01*
X106401798Y-143582307D02*
X106502814Y-143615978D01*
X106502814Y-143615978D02*
X106570157Y-143615978D01*
X106570157Y-143615978D02*
X106671172Y-143582307D01*
X106671172Y-143582307D02*
X106704844Y-143548635D01*
X106704844Y-143548635D02*
X106738516Y-143447620D01*
X106738516Y-143447620D02*
X106738516Y-143380276D01*
X106738516Y-143380276D02*
X106704844Y-143279261D01*
X106704844Y-143279261D02*
X106570157Y-143144574D01*
X106570157Y-143144574D02*
X106469142Y-143110902D01*
X106469142Y-143110902D02*
X106401798Y-143110902D01*
X106401798Y-143110902D02*
X106300783Y-143144574D01*
X106300783Y-143144574D02*
X106267111Y-143178246D01*
X106267111Y-143178246D02*
X106233440Y-143279261D01*
X106233440Y-143279261D02*
X106233440Y-143346604D01*
X106233440Y-143346604D02*
X106267111Y-143447620D01*
X106267111Y-143447620D02*
X106401798Y-143582307D01*
X106401798Y-143582307D02*
X106435470Y-143683322D01*
X106435470Y-143683322D02*
X106435470Y-143750665D01*
X106435470Y-143750665D02*
X106401798Y-143851681D01*
X106401798Y-143851681D02*
X106267111Y-143986368D01*
X106267111Y-143986368D02*
X106166096Y-144020039D01*
X106166096Y-144020039D02*
X106098753Y-144020039D01*
X106098753Y-144020039D02*
X105997737Y-143986368D01*
X105997737Y-143986368D02*
X105863050Y-143851681D01*
X105863050Y-143851681D02*
X105829379Y-143750665D01*
X105829379Y-143750665D02*
X105829379Y-143683322D01*
X105829379Y-143683322D02*
X105863050Y-143582307D01*
X105863050Y-143582307D02*
X105997737Y-143447620D01*
X105997737Y-143447620D02*
X106098753Y-143413948D01*
X106098753Y-143413948D02*
X106166096Y-143413948D01*
X106166096Y-143413948D02*
X106267111Y-143447620D01*
X122742857Y-118234819D02*
X123076190Y-117758628D01*
X123314285Y-118234819D02*
X123314285Y-117234819D01*
X123314285Y-117234819D02*
X122933333Y-117234819D01*
X122933333Y-117234819D02*
X122838095Y-117282438D01*
X122838095Y-117282438D02*
X122790476Y-117330057D01*
X122790476Y-117330057D02*
X122742857Y-117425295D01*
X122742857Y-117425295D02*
X122742857Y-117568152D01*
X122742857Y-117568152D02*
X122790476Y-117663390D01*
X122790476Y-117663390D02*
X122838095Y-117711009D01*
X122838095Y-117711009D02*
X122933333Y-117758628D01*
X122933333Y-117758628D02*
X123314285Y-117758628D01*
X122361904Y-117330057D02*
X122314285Y-117282438D01*
X122314285Y-117282438D02*
X122219047Y-117234819D01*
X122219047Y-117234819D02*
X121980952Y-117234819D01*
X121980952Y-117234819D02*
X121885714Y-117282438D01*
X121885714Y-117282438D02*
X121838095Y-117330057D01*
X121838095Y-117330057D02*
X121790476Y-117425295D01*
X121790476Y-117425295D02*
X121790476Y-117520533D01*
X121790476Y-117520533D02*
X121838095Y-117663390D01*
X121838095Y-117663390D02*
X122409523Y-118234819D01*
X122409523Y-118234819D02*
X121790476Y-118234819D01*
X121409523Y-117330057D02*
X121361904Y-117282438D01*
X121361904Y-117282438D02*
X121266666Y-117234819D01*
X121266666Y-117234819D02*
X121028571Y-117234819D01*
X121028571Y-117234819D02*
X120933333Y-117282438D01*
X120933333Y-117282438D02*
X120885714Y-117330057D01*
X120885714Y-117330057D02*
X120838095Y-117425295D01*
X120838095Y-117425295D02*
X120838095Y-117520533D01*
X120838095Y-117520533D02*
X120885714Y-117663390D01*
X120885714Y-117663390D02*
X121457142Y-118234819D01*
X121457142Y-118234819D02*
X120838095Y-118234819D01*
X126595508Y-152009580D02*
X126643127Y-152057200D01*
X126643127Y-152057200D02*
X126785984Y-152104819D01*
X126785984Y-152104819D02*
X126881222Y-152104819D01*
X126881222Y-152104819D02*
X127024079Y-152057200D01*
X127024079Y-152057200D02*
X127119317Y-151961961D01*
X127119317Y-151961961D02*
X127166936Y-151866723D01*
X127166936Y-151866723D02*
X127214555Y-151676247D01*
X127214555Y-151676247D02*
X127214555Y-151533390D01*
X127214555Y-151533390D02*
X127166936Y-151342914D01*
X127166936Y-151342914D02*
X127119317Y-151247676D01*
X127119317Y-151247676D02*
X127024079Y-151152438D01*
X127024079Y-151152438D02*
X126881222Y-151104819D01*
X126881222Y-151104819D02*
X126785984Y-151104819D01*
X126785984Y-151104819D02*
X126643127Y-151152438D01*
X126643127Y-151152438D02*
X126595508Y-151200057D01*
X126214555Y-151200057D02*
X126166936Y-151152438D01*
X126166936Y-151152438D02*
X126071698Y-151104819D01*
X126071698Y-151104819D02*
X125833603Y-151104819D01*
X125833603Y-151104819D02*
X125738365Y-151152438D01*
X125738365Y-151152438D02*
X125690746Y-151200057D01*
X125690746Y-151200057D02*
X125643127Y-151295295D01*
X125643127Y-151295295D02*
X125643127Y-151390533D01*
X125643127Y-151390533D02*
X125690746Y-151533390D01*
X125690746Y-151533390D02*
X126262174Y-152104819D01*
X126262174Y-152104819D02*
X125643127Y-152104819D01*
X125309793Y-151104819D02*
X124643127Y-151104819D01*
X124643127Y-151104819D02*
X125071698Y-152104819D01*
X112040206Y-155809580D02*
X112087825Y-155857200D01*
X112087825Y-155857200D02*
X112230682Y-155904819D01*
X112230682Y-155904819D02*
X112325920Y-155904819D01*
X112325920Y-155904819D02*
X112468777Y-155857200D01*
X112468777Y-155857200D02*
X112564015Y-155761961D01*
X112564015Y-155761961D02*
X112611634Y-155666723D01*
X112611634Y-155666723D02*
X112659253Y-155476247D01*
X112659253Y-155476247D02*
X112659253Y-155333390D01*
X112659253Y-155333390D02*
X112611634Y-155142914D01*
X112611634Y-155142914D02*
X112564015Y-155047676D01*
X112564015Y-155047676D02*
X112468777Y-154952438D01*
X112468777Y-154952438D02*
X112325920Y-154904819D01*
X112325920Y-154904819D02*
X112230682Y-154904819D01*
X112230682Y-154904819D02*
X112087825Y-154952438D01*
X112087825Y-154952438D02*
X112040206Y-155000057D01*
X111706872Y-154904819D02*
X111087825Y-154904819D01*
X111087825Y-154904819D02*
X111421158Y-155285771D01*
X111421158Y-155285771D02*
X111278301Y-155285771D01*
X111278301Y-155285771D02*
X111183063Y-155333390D01*
X111183063Y-155333390D02*
X111135444Y-155381009D01*
X111135444Y-155381009D02*
X111087825Y-155476247D01*
X111087825Y-155476247D02*
X111087825Y-155714342D01*
X111087825Y-155714342D02*
X111135444Y-155809580D01*
X111135444Y-155809580D02*
X111183063Y-155857200D01*
X111183063Y-155857200D02*
X111278301Y-155904819D01*
X111278301Y-155904819D02*
X111564015Y-155904819D01*
X111564015Y-155904819D02*
X111659253Y-155857200D01*
X111659253Y-155857200D02*
X111706872Y-155809580D01*
X110135444Y-155904819D02*
X110706872Y-155904819D01*
X110421158Y-155904819D02*
X110421158Y-154904819D01*
X110421158Y-154904819D02*
X110516396Y-155047676D01*
X110516396Y-155047676D02*
X110611634Y-155142914D01*
X110611634Y-155142914D02*
X110706872Y-155190533D01*
X106590206Y-72159580D02*
X106637825Y-72207200D01*
X106637825Y-72207200D02*
X106780682Y-72254819D01*
X106780682Y-72254819D02*
X106875920Y-72254819D01*
X106875920Y-72254819D02*
X107018777Y-72207200D01*
X107018777Y-72207200D02*
X107114015Y-72111961D01*
X107114015Y-72111961D02*
X107161634Y-72016723D01*
X107161634Y-72016723D02*
X107209253Y-71826247D01*
X107209253Y-71826247D02*
X107209253Y-71683390D01*
X107209253Y-71683390D02*
X107161634Y-71492914D01*
X107161634Y-71492914D02*
X107114015Y-71397676D01*
X107114015Y-71397676D02*
X107018777Y-71302438D01*
X107018777Y-71302438D02*
X106875920Y-71254819D01*
X106875920Y-71254819D02*
X106780682Y-71254819D01*
X106780682Y-71254819D02*
X106637825Y-71302438D01*
X106637825Y-71302438D02*
X106590206Y-71350057D01*
X105733063Y-71588152D02*
X105733063Y-72254819D01*
X105971158Y-71207200D02*
X106209253Y-71921485D01*
X106209253Y-71921485D02*
X105590206Y-71921485D01*
X104780682Y-71588152D02*
X104780682Y-72254819D01*
X105018777Y-71207200D02*
X105256872Y-71921485D01*
X105256872Y-71921485D02*
X104637825Y-71921485D01*
X87159580Y-69754491D02*
X87207200Y-69706872D01*
X87207200Y-69706872D02*
X87254819Y-69564015D01*
X87254819Y-69564015D02*
X87254819Y-69468777D01*
X87254819Y-69468777D02*
X87207200Y-69325920D01*
X87207200Y-69325920D02*
X87111961Y-69230682D01*
X87111961Y-69230682D02*
X87016723Y-69183063D01*
X87016723Y-69183063D02*
X86826247Y-69135444D01*
X86826247Y-69135444D02*
X86683390Y-69135444D01*
X86683390Y-69135444D02*
X86492914Y-69183063D01*
X86492914Y-69183063D02*
X86397676Y-69230682D01*
X86397676Y-69230682D02*
X86302438Y-69325920D01*
X86302438Y-69325920D02*
X86254819Y-69468777D01*
X86254819Y-69468777D02*
X86254819Y-69564015D01*
X86254819Y-69564015D02*
X86302438Y-69706872D01*
X86302438Y-69706872D02*
X86350057Y-69754491D01*
X86588152Y-70611634D02*
X87254819Y-70611634D01*
X86207200Y-70373539D02*
X86921485Y-70135444D01*
X86921485Y-70135444D02*
X86921485Y-70754491D01*
X86254819Y-71040206D02*
X86254819Y-71659253D01*
X86254819Y-71659253D02*
X86635771Y-71325920D01*
X86635771Y-71325920D02*
X86635771Y-71468777D01*
X86635771Y-71468777D02*
X86683390Y-71564015D01*
X86683390Y-71564015D02*
X86731009Y-71611634D01*
X86731009Y-71611634D02*
X86826247Y-71659253D01*
X86826247Y-71659253D02*
X87064342Y-71659253D01*
X87064342Y-71659253D02*
X87159580Y-71611634D01*
X87159580Y-71611634D02*
X87207200Y-71564015D01*
X87207200Y-71564015D02*
X87254819Y-71468777D01*
X87254819Y-71468777D02*
X87254819Y-71183063D01*
X87254819Y-71183063D02*
X87207200Y-71087825D01*
X87207200Y-71087825D02*
X87159580Y-71040206D01*
D12*
%TO.C,U6*%
X93540000Y-88000000D02*
X93540000Y-89950000D01*
X93540000Y-88000000D02*
X93540000Y-86050000D01*
X98660000Y-88000000D02*
X98660000Y-91450000D01*
X98660000Y-88000000D02*
X98660000Y-86050000D01*
%TO.C,J12*%
X75112000Y-82703000D02*
X93112000Y-82703000D01*
X93112000Y-82703000D02*
X93112000Y-147703000D01*
X93112000Y-147703000D02*
X75112000Y-147703000D01*
X75112000Y-147703000D02*
X75112000Y-82703000D01*
%TO.C,R47*%
X126215971Y-140565971D02*
X125614930Y-139964930D01*
X123762311Y-141817550D02*
X112632450Y-130687690D01*
X127467550Y-138112311D02*
X123762311Y-141817550D01*
X112632450Y-130687690D02*
X116337690Y-126982450D01*
X116337690Y-126982450D02*
X127467550Y-138112311D01*
X113884029Y-128234029D02*
X114485070Y-128835070D01*
%TO.C,R13*%
X54770000Y-160000000D02*
X52510000Y-160000000D01*
X58210000Y-160000000D02*
G75*
G03*
X58210000Y-160000000I-1720000J0D01*
G01*
%TO.C,U7*%
X123600000Y-97925000D02*
X122650000Y-97925000D01*
X122650000Y-97925000D02*
X122650000Y-96825000D01*
X114150000Y-97925000D02*
X114150000Y-92800000D01*
X113200000Y-97925000D02*
X114150000Y-97925000D01*
X123600000Y-99425000D02*
X123600000Y-97925000D01*
X113200000Y-99425000D02*
X113200000Y-97925000D01*
%TO.C,C28*%
X107985040Y-149481175D02*
X107419354Y-148915490D01*
X107985040Y-148915490D02*
X107419354Y-149481175D01*
X106114956Y-145115004D02*
X100344964Y-150884996D01*
X106086672Y-145086720D02*
X100316680Y-150856712D01*
X106058387Y-145058436D02*
X100288396Y-150828427D01*
X106029396Y-145030859D02*
X100260819Y-150799436D01*
X105999697Y-145003989D02*
X100233949Y-150769737D01*
X105970706Y-144976412D02*
X100206372Y-150740746D01*
X105941008Y-144949541D02*
X100179501Y-150711048D01*
X105910602Y-144923379D02*
X100153339Y-150680642D01*
X105880196Y-144897216D02*
X100127176Y-150650236D01*
X105849791Y-144871053D02*
X100101013Y-150619831D01*
X105818678Y-144845597D02*
X100075557Y-150588718D01*
X105787565Y-144820141D02*
X100050101Y-150557605D01*
X105755746Y-144795392D02*
X100025352Y-150525786D01*
X105724633Y-144769936D02*
X99999896Y-150494673D01*
X105692106Y-144745895D02*
X99975855Y-150462146D01*
X105660286Y-144721146D02*
X99951106Y-150430326D01*
X105627052Y-144697811D02*
X99927771Y-150397092D01*
X105594525Y-144673770D02*
X99903730Y-150364565D01*
X101984745Y-148225567D02*
X99879688Y-150330624D01*
X105560584Y-144649728D02*
X103455527Y-146754785D01*
X101956461Y-148197283D02*
X99856354Y-150297390D01*
X105527350Y-144626394D02*
X103427243Y-146726501D01*
X101928177Y-148168999D02*
X99833726Y-150263449D01*
X105493409Y-144603766D02*
X103398959Y-146698217D01*
X101899892Y-148140714D02*
X99811099Y-150229508D01*
X105459468Y-144581139D02*
X103370674Y-146669932D01*
X101871608Y-148112430D02*
X99789179Y-150194860D01*
X105424820Y-144559219D02*
X103342390Y-146641648D01*
X101843324Y-148084146D02*
X99767258Y-150160211D01*
X105390171Y-144537298D02*
X103314106Y-146613364D01*
X101815039Y-148055862D02*
X99745338Y-150125563D01*
X105355523Y-144515378D02*
X103285822Y-146585079D01*
X101786755Y-148027577D02*
X99724125Y-150090208D01*
X105320168Y-144494165D02*
X103257537Y-146556795D01*
X101758471Y-147999293D02*
X99702912Y-150054852D01*
X105284812Y-144472952D02*
X103229253Y-146528511D01*
X101730187Y-147971009D02*
X99682405Y-150018790D01*
X105248750Y-144452445D02*
X103200969Y-146500227D01*
X101701902Y-147942724D02*
X99661899Y-149982728D01*
X105212688Y-144431939D02*
X103172684Y-146471942D01*
X101673618Y-147914440D02*
X99641393Y-149946665D01*
X105176625Y-144411433D02*
X103144400Y-146443658D01*
X101645334Y-147886156D02*
X99621594Y-149909896D01*
X105139856Y-144391634D02*
X103116116Y-146415374D01*
X101617050Y-147857872D02*
X99602502Y-149872419D01*
X105102379Y-144372542D02*
X103087832Y-146387090D01*
X101588765Y-147829587D02*
X99582703Y-149835649D01*
X105065609Y-144352743D02*
X103059547Y-146358805D01*
X101560481Y-147801303D02*
X99564319Y-149797466D01*
X105027426Y-144334359D02*
X103031263Y-146330521D01*
X101532197Y-147773019D02*
X99545227Y-149759989D01*
X104989949Y-144315267D02*
X103002979Y-146302237D01*
X101503912Y-147744735D02*
X99527549Y-149721098D01*
X104951058Y-144297589D02*
X102974695Y-146273952D01*
X101475628Y-147716450D02*
X99509164Y-149682914D01*
X104912874Y-144279204D02*
X102946410Y-146245668D01*
X101447344Y-147688166D02*
X99492194Y-149643316D01*
X104873276Y-144262234D02*
X102918126Y-146217384D01*
X101419060Y-147659882D02*
X99474516Y-149604425D01*
X104834385Y-144244556D02*
X102889842Y-146189100D01*
X101390775Y-147631597D02*
X99457545Y-149564827D01*
X104794787Y-144227585D02*
X102861557Y-146160815D01*
X101362491Y-147603313D02*
X99441282Y-149524522D01*
X104754482Y-144211322D02*
X102833273Y-146132531D01*
X101334207Y-147575029D02*
X99425019Y-149484217D01*
X104714177Y-144195059D02*
X102804989Y-146104247D01*
X101305923Y-147546745D02*
X99409462Y-149443205D01*
X104673165Y-144179502D02*
X102776705Y-146075963D01*
X101277638Y-147518460D02*
X99393906Y-149402193D01*
X104632153Y-144163946D02*
X102748420Y-146047678D01*
X101249354Y-147490176D02*
X99378349Y-149361181D01*
X104591141Y-144148389D02*
X102720136Y-146019394D01*
X101221070Y-147461892D02*
X99364207Y-149318754D01*
X104548714Y-144134247D02*
X102691852Y-145991110D01*
X101192785Y-147433608D02*
X99349358Y-149277035D01*
X104506995Y-144119398D02*
X102663568Y-145962825D01*
X101164501Y-147405323D02*
X99335216Y-149234609D01*
X104464569Y-144105256D02*
X102635283Y-145934541D01*
X101136217Y-147377039D02*
X99321781Y-149191475D01*
X104421435Y-144091821D02*
X102606999Y-145906257D01*
X101107933Y-147348755D02*
X99309053Y-149147634D01*
X104377594Y-144079093D02*
X102578715Y-145877973D01*
X101079648Y-147320471D02*
X99296325Y-149103794D01*
X104333754Y-144066365D02*
X102550431Y-145849688D01*
X101051364Y-147292186D02*
X99283597Y-149059953D01*
X104289913Y-144053637D02*
X102522146Y-145821404D01*
X101023080Y-147263902D02*
X99271576Y-149015405D01*
X104245365Y-144041616D02*
X102493862Y-145793120D01*
X100994796Y-147235618D02*
X99260263Y-148970151D01*
X104200111Y-144030303D02*
X102465578Y-145764836D01*
X100966511Y-147207333D02*
X99248949Y-148924896D01*
X104154856Y-144018989D02*
X102437293Y-145736551D01*
X100938227Y-147179049D02*
X99238342Y-148878934D01*
X104108894Y-144008382D02*
X102409009Y-145708267D01*
X100909943Y-147150765D02*
X99228443Y-148832265D01*
X104062225Y-143998483D02*
X102380725Y-145679983D01*
X100881659Y-147122481D02*
X99218543Y-148785596D01*
X104015556Y-143988583D02*
X102352441Y-145651699D01*
X100853374Y-147094196D02*
X99209351Y-148738220D01*
X103968180Y-143979391D02*
X102324156Y-145623414D01*
X100825090Y-147065912D02*
X99200159Y-148690843D01*
X103920803Y-143970199D02*
X102295872Y-145595130D01*
X100796806Y-147037628D02*
X99192380Y-148642053D01*
X103872013Y-143962420D02*
X102267588Y-145566846D01*
X100768521Y-147009344D02*
X99184602Y-148593263D01*
X103823223Y-143954642D02*
X102239304Y-145538561D01*
X100740237Y-146981059D02*
X99177531Y-148543765D01*
X103773725Y-143947571D02*
X102211019Y-145510277D01*
X100711953Y-146952775D02*
X99170460Y-148494268D01*
X103724228Y-143940500D02*
X102182735Y-145481993D01*
X100683669Y-146924491D02*
X99164096Y-148444063D01*
X103674023Y-143934136D02*
X102154451Y-145453709D01*
X100655384Y-146896206D02*
X99159146Y-148392444D01*
X103622404Y-143929186D02*
X102126166Y-145425424D01*
X100627100Y-146867922D02*
X99153490Y-148341533D01*
X103571493Y-143923530D02*
X102097882Y-145397140D01*
X100598816Y-146839638D02*
X99149247Y-148289207D01*
X103519167Y-143919287D02*
X102069598Y-145368856D01*
X100570532Y-146811354D02*
X99145711Y-148236174D01*
X103466134Y-143915751D02*
X102041314Y-145340572D01*
X100542247Y-146783069D02*
X99142883Y-148182434D01*
X103412394Y-143912923D02*
X102013029Y-145312287D01*
X103358654Y-143910095D02*
X99140055Y-148128694D01*
X103303499Y-143908680D02*
X99138640Y-148073539D01*
X103248345Y-143907266D02*
X99137226Y-148018385D01*
X103191776Y-143907266D02*
X99137226Y-147961816D01*
X103134501Y-143907973D02*
X99137933Y-147904541D01*
X103076518Y-143909387D02*
X99139347Y-147846558D01*
X103017828Y-143911509D02*
X99141469Y-147787868D01*
X102958431Y-143914337D02*
X99144297Y-147728471D01*
X102897620Y-143918580D02*
X99148540Y-147667660D01*
X102836102Y-143923530D02*
X99153490Y-147606142D01*
X102773876Y-143929186D02*
X99159146Y-147543916D01*
X102709530Y-143936965D02*
X99166925Y-147479570D01*
X102645183Y-143944743D02*
X99174703Y-147415223D01*
X102578715Y-143954642D02*
X99184602Y-147348755D01*
X102511540Y-143965249D02*
X99195209Y-147281580D01*
X102442243Y-143977977D02*
X99207937Y-147212283D01*
X102372240Y-143991412D02*
X99221372Y-147142280D01*
X102300115Y-144006968D02*
X99236928Y-147070155D01*
X102226576Y-144023939D02*
X99253899Y-146996616D01*
X102150208Y-144043738D02*
X99273698Y-146920248D01*
X102072426Y-144064951D02*
X99294911Y-146842466D01*
X101991816Y-144088993D02*
X99318953Y-146761856D01*
X101909085Y-144115155D02*
X99345115Y-146679125D01*
X101822818Y-144144854D02*
X99374814Y-146592858D01*
X101733722Y-144177381D02*
X99407341Y-146503762D01*
X101639677Y-144214858D02*
X99444818Y-146409717D01*
X101541389Y-144256577D02*
X99486537Y-146311429D01*
X101437444Y-144303953D02*
X99533913Y-146207484D01*
X101326429Y-144358400D02*
X99588360Y-146096469D01*
X101205513Y-144422747D02*
X99652707Y-145975553D01*
X101071163Y-144500529D02*
X99730489Y-145841203D01*
X100915600Y-144599524D02*
X99829484Y-145685640D01*
X100721145Y-144737409D02*
X99967369Y-145491185D01*
X107349960Y-148000000D02*
G75*
G03*
X107349960Y-148000000I-4120000J0D01*
G01*
%TO.C,R22*%
X130820000Y-121400000D02*
X129970000Y-121400000D01*
X129970000Y-124020000D02*
X114230000Y-124020000D01*
X129970000Y-118780000D02*
X129970000Y-124020000D01*
X114230000Y-124020000D02*
X114230000Y-118780000D01*
X114230000Y-118780000D02*
X129970000Y-118780000D01*
X113380000Y-121400000D02*
X114230000Y-121400000D01*
%TO.C,C27*%
X130362349Y-154585000D02*
X129562349Y-154585000D01*
X129962349Y-154185000D02*
X129962349Y-154985000D01*
X125952651Y-152820000D02*
X125952651Y-160980000D01*
X125912651Y-152820000D02*
X125912651Y-160980000D01*
X125872651Y-152820000D02*
X125872651Y-160980000D01*
X125832651Y-152821000D02*
X125832651Y-160979000D01*
X125792651Y-152823000D02*
X125792651Y-160977000D01*
X125752651Y-152824000D02*
X125752651Y-160976000D01*
X125712651Y-152826000D02*
X125712651Y-160974000D01*
X125672651Y-152829000D02*
X125672651Y-160971000D01*
X125632651Y-152832000D02*
X125632651Y-160968000D01*
X125592651Y-152835000D02*
X125592651Y-160965000D01*
X125552651Y-152839000D02*
X125552651Y-160961000D01*
X125512651Y-152843000D02*
X125512651Y-160957000D01*
X125472651Y-152848000D02*
X125472651Y-160952000D01*
X125432651Y-152852000D02*
X125432651Y-160948000D01*
X125392651Y-152858000D02*
X125392651Y-160942000D01*
X125352651Y-152863000D02*
X125352651Y-160937000D01*
X125312651Y-152870000D02*
X125312651Y-160930000D01*
X125272651Y-152876000D02*
X125272651Y-160924000D01*
X125231651Y-157940000D02*
X125231651Y-160917000D01*
X125231651Y-152883000D02*
X125231651Y-155860000D01*
X125191651Y-157940000D02*
X125191651Y-160910000D01*
X125191651Y-152890000D02*
X125191651Y-155860000D01*
X125151651Y-157940000D02*
X125151651Y-160902000D01*
X125151651Y-152898000D02*
X125151651Y-155860000D01*
X125111651Y-157940000D02*
X125111651Y-160894000D01*
X125111651Y-152906000D02*
X125111651Y-155860000D01*
X125071651Y-157940000D02*
X125071651Y-160885000D01*
X125071651Y-152915000D02*
X125071651Y-155860000D01*
X125031651Y-157940000D02*
X125031651Y-160876000D01*
X125031651Y-152924000D02*
X125031651Y-155860000D01*
X124991651Y-157940000D02*
X124991651Y-160867000D01*
X124991651Y-152933000D02*
X124991651Y-155860000D01*
X124951651Y-157940000D02*
X124951651Y-160857000D01*
X124951651Y-152943000D02*
X124951651Y-155860000D01*
X124911651Y-157940000D02*
X124911651Y-160847000D01*
X124911651Y-152953000D02*
X124911651Y-155860000D01*
X124871651Y-157940000D02*
X124871651Y-160836000D01*
X124871651Y-152964000D02*
X124871651Y-155860000D01*
X124831651Y-157940000D02*
X124831651Y-160825000D01*
X124831651Y-152975000D02*
X124831651Y-155860000D01*
X124791651Y-157940000D02*
X124791651Y-160814000D01*
X124791651Y-152986000D02*
X124791651Y-155860000D01*
X124751651Y-157940000D02*
X124751651Y-160802000D01*
X124751651Y-152998000D02*
X124751651Y-155860000D01*
X124711651Y-157940000D02*
X124711651Y-160789000D01*
X124711651Y-153011000D02*
X124711651Y-155860000D01*
X124671651Y-157940000D02*
X124671651Y-160777000D01*
X124671651Y-153023000D02*
X124671651Y-155860000D01*
X124631651Y-157940000D02*
X124631651Y-160763000D01*
X124631651Y-153037000D02*
X124631651Y-155860000D01*
X124591651Y-157940000D02*
X124591651Y-160750000D01*
X124591651Y-153050000D02*
X124591651Y-155860000D01*
X124551651Y-157940000D02*
X124551651Y-160735000D01*
X124551651Y-153065000D02*
X124551651Y-155860000D01*
X124511651Y-157940000D02*
X124511651Y-160721000D01*
X124511651Y-153079000D02*
X124511651Y-155860000D01*
X124471651Y-157940000D02*
X124471651Y-160705000D01*
X124471651Y-153095000D02*
X124471651Y-155860000D01*
X124431651Y-157940000D02*
X124431651Y-160690000D01*
X124431651Y-153110000D02*
X124431651Y-155860000D01*
X124391651Y-157940000D02*
X124391651Y-160674000D01*
X124391651Y-153126000D02*
X124391651Y-155860000D01*
X124351651Y-157940000D02*
X124351651Y-160657000D01*
X124351651Y-153143000D02*
X124351651Y-155860000D01*
X124311651Y-157940000D02*
X124311651Y-160640000D01*
X124311651Y-153160000D02*
X124311651Y-155860000D01*
X124271651Y-157940000D02*
X124271651Y-160622000D01*
X124271651Y-153178000D02*
X124271651Y-155860000D01*
X124231651Y-157940000D02*
X124231651Y-160604000D01*
X124231651Y-153196000D02*
X124231651Y-155860000D01*
X124191651Y-157940000D02*
X124191651Y-160586000D01*
X124191651Y-153214000D02*
X124191651Y-155860000D01*
X124151651Y-157940000D02*
X124151651Y-160566000D01*
X124151651Y-153234000D02*
X124151651Y-155860000D01*
X124111651Y-157940000D02*
X124111651Y-160547000D01*
X124111651Y-153253000D02*
X124111651Y-155860000D01*
X124071651Y-157940000D02*
X124071651Y-160527000D01*
X124071651Y-153273000D02*
X124071651Y-155860000D01*
X124031651Y-157940000D02*
X124031651Y-160506000D01*
X124031651Y-153294000D02*
X124031651Y-155860000D01*
X123991651Y-157940000D02*
X123991651Y-160484000D01*
X123991651Y-153316000D02*
X123991651Y-155860000D01*
X123951651Y-157940000D02*
X123951651Y-160462000D01*
X123951651Y-153338000D02*
X123951651Y-155860000D01*
X123911651Y-157940000D02*
X123911651Y-160440000D01*
X123911651Y-153360000D02*
X123911651Y-155860000D01*
X123871651Y-157940000D02*
X123871651Y-160417000D01*
X123871651Y-153383000D02*
X123871651Y-155860000D01*
X123831651Y-157940000D02*
X123831651Y-160393000D01*
X123831651Y-153407000D02*
X123831651Y-155860000D01*
X123791651Y-157940000D02*
X123791651Y-160369000D01*
X123791651Y-153431000D02*
X123791651Y-155860000D01*
X123751651Y-157940000D02*
X123751651Y-160344000D01*
X123751651Y-153456000D02*
X123751651Y-155860000D01*
X123711651Y-157940000D02*
X123711651Y-160318000D01*
X123711651Y-153482000D02*
X123711651Y-155860000D01*
X123671651Y-157940000D02*
X123671651Y-160292000D01*
X123671651Y-153508000D02*
X123671651Y-155860000D01*
X123631651Y-157940000D02*
X123631651Y-160265000D01*
X123631651Y-153535000D02*
X123631651Y-155860000D01*
X123591651Y-157940000D02*
X123591651Y-160238000D01*
X123591651Y-153562000D02*
X123591651Y-155860000D01*
X123551651Y-157940000D02*
X123551651Y-160209000D01*
X123551651Y-153591000D02*
X123551651Y-155860000D01*
X123511651Y-157940000D02*
X123511651Y-160180000D01*
X123511651Y-153620000D02*
X123511651Y-155860000D01*
X123471651Y-157940000D02*
X123471651Y-160150000D01*
X123471651Y-153650000D02*
X123471651Y-155860000D01*
X123431651Y-157940000D02*
X123431651Y-160120000D01*
X123431651Y-153680000D02*
X123431651Y-155860000D01*
X123391651Y-157940000D02*
X123391651Y-160089000D01*
X123391651Y-153711000D02*
X123391651Y-155860000D01*
X123351651Y-157940000D02*
X123351651Y-160056000D01*
X123351651Y-153744000D02*
X123351651Y-155860000D01*
X123311651Y-157940000D02*
X123311651Y-160024000D01*
X123311651Y-153776000D02*
X123311651Y-155860000D01*
X123271651Y-157940000D02*
X123271651Y-159990000D01*
X123271651Y-153810000D02*
X123271651Y-155860000D01*
X123231651Y-157940000D02*
X123231651Y-159955000D01*
X123231651Y-153845000D02*
X123231651Y-155860000D01*
X123191651Y-157940000D02*
X123191651Y-159919000D01*
X123191651Y-153881000D02*
X123191651Y-155860000D01*
X123151651Y-153917000D02*
X123151651Y-159883000D01*
X123111651Y-153955000D02*
X123111651Y-159845000D01*
X123071651Y-153993000D02*
X123071651Y-159807000D01*
X123031651Y-154033000D02*
X123031651Y-159767000D01*
X122991651Y-154074000D02*
X122991651Y-159726000D01*
X122951651Y-154116000D02*
X122951651Y-159684000D01*
X122911651Y-154159000D02*
X122911651Y-159641000D01*
X122871651Y-154203000D02*
X122871651Y-159597000D01*
X122831651Y-154249000D02*
X122831651Y-159551000D01*
X122791651Y-154296000D02*
X122791651Y-159504000D01*
X122751651Y-154344000D02*
X122751651Y-159456000D01*
X122711651Y-154395000D02*
X122711651Y-159405000D01*
X122671651Y-154446000D02*
X122671651Y-159354000D01*
X122631651Y-154500000D02*
X122631651Y-159300000D01*
X122591651Y-154555000D02*
X122591651Y-159245000D01*
X122551651Y-154613000D02*
X122551651Y-159187000D01*
X122511651Y-154672000D02*
X122511651Y-159128000D01*
X122471651Y-154734000D02*
X122471651Y-159066000D01*
X122431651Y-154798000D02*
X122431651Y-159002000D01*
X122391651Y-154866000D02*
X122391651Y-158934000D01*
X122351651Y-154936000D02*
X122351651Y-158864000D01*
X122311651Y-155010000D02*
X122311651Y-158790000D01*
X122271651Y-155087000D02*
X122271651Y-158713000D01*
X122231651Y-155169000D02*
X122231651Y-158631000D01*
X122191651Y-155255000D02*
X122191651Y-158545000D01*
X122151651Y-155348000D02*
X122151651Y-158452000D01*
X122111651Y-155447000D02*
X122111651Y-158353000D01*
X122071651Y-155554000D02*
X122071651Y-158246000D01*
X122031651Y-155671000D02*
X122031651Y-158129000D01*
X121991651Y-155802000D02*
X121991651Y-157998000D01*
X121951651Y-155952000D02*
X121951651Y-157848000D01*
X121911651Y-156132000D02*
X121911651Y-157668000D01*
X121871651Y-156367000D02*
X121871651Y-157433000D01*
X130072651Y-156900000D02*
G75*
G03*
X130072651Y-156900000I-4120000J0D01*
G01*
%TO.C,C31*%
X106987651Y-152515000D02*
X107787651Y-152515000D01*
X107387651Y-152915000D02*
X107387651Y-152115000D01*
X111397349Y-154280000D02*
X111397349Y-146120000D01*
X111437349Y-154280000D02*
X111437349Y-146120000D01*
X111477349Y-154280000D02*
X111477349Y-146120000D01*
X111517349Y-154279000D02*
X111517349Y-146121000D01*
X111557349Y-154277000D02*
X111557349Y-146123000D01*
X111597349Y-154276000D02*
X111597349Y-146124000D01*
X111637349Y-154274000D02*
X111637349Y-146126000D01*
X111677349Y-154271000D02*
X111677349Y-146129000D01*
X111717349Y-154268000D02*
X111717349Y-146132000D01*
X111757349Y-154265000D02*
X111757349Y-146135000D01*
X111797349Y-154261000D02*
X111797349Y-146139000D01*
X111837349Y-154257000D02*
X111837349Y-146143000D01*
X111877349Y-154252000D02*
X111877349Y-146148000D01*
X111917349Y-154248000D02*
X111917349Y-146152000D01*
X111957349Y-154242000D02*
X111957349Y-146158000D01*
X111997349Y-154237000D02*
X111997349Y-146163000D01*
X112037349Y-154230000D02*
X112037349Y-146170000D01*
X112077349Y-154224000D02*
X112077349Y-146176000D01*
X112118349Y-149160000D02*
X112118349Y-146183000D01*
X112118349Y-154217000D02*
X112118349Y-151240000D01*
X112158349Y-149160000D02*
X112158349Y-146190000D01*
X112158349Y-154210000D02*
X112158349Y-151240000D01*
X112198349Y-149160000D02*
X112198349Y-146198000D01*
X112198349Y-154202000D02*
X112198349Y-151240000D01*
X112238349Y-149160000D02*
X112238349Y-146206000D01*
X112238349Y-154194000D02*
X112238349Y-151240000D01*
X112278349Y-149160000D02*
X112278349Y-146215000D01*
X112278349Y-154185000D02*
X112278349Y-151240000D01*
X112318349Y-149160000D02*
X112318349Y-146224000D01*
X112318349Y-154176000D02*
X112318349Y-151240000D01*
X112358349Y-149160000D02*
X112358349Y-146233000D01*
X112358349Y-154167000D02*
X112358349Y-151240000D01*
X112398349Y-149160000D02*
X112398349Y-146243000D01*
X112398349Y-154157000D02*
X112398349Y-151240000D01*
X112438349Y-149160000D02*
X112438349Y-146253000D01*
X112438349Y-154147000D02*
X112438349Y-151240000D01*
X112478349Y-149160000D02*
X112478349Y-146264000D01*
X112478349Y-154136000D02*
X112478349Y-151240000D01*
X112518349Y-149160000D02*
X112518349Y-146275000D01*
X112518349Y-154125000D02*
X112518349Y-151240000D01*
X112558349Y-149160000D02*
X112558349Y-146286000D01*
X112558349Y-154114000D02*
X112558349Y-151240000D01*
X112598349Y-149160000D02*
X112598349Y-146298000D01*
X112598349Y-154102000D02*
X112598349Y-151240000D01*
X112638349Y-149160000D02*
X112638349Y-146311000D01*
X112638349Y-154089000D02*
X112638349Y-151240000D01*
X112678349Y-149160000D02*
X112678349Y-146323000D01*
X112678349Y-154077000D02*
X112678349Y-151240000D01*
X112718349Y-149160000D02*
X112718349Y-146337000D01*
X112718349Y-154063000D02*
X112718349Y-151240000D01*
X112758349Y-149160000D02*
X112758349Y-146350000D01*
X112758349Y-154050000D02*
X112758349Y-151240000D01*
X112798349Y-149160000D02*
X112798349Y-146365000D01*
X112798349Y-154035000D02*
X112798349Y-151240000D01*
X112838349Y-149160000D02*
X112838349Y-146379000D01*
X112838349Y-154021000D02*
X112838349Y-151240000D01*
X112878349Y-149160000D02*
X112878349Y-146395000D01*
X112878349Y-154005000D02*
X112878349Y-151240000D01*
X112918349Y-149160000D02*
X112918349Y-146410000D01*
X112918349Y-153990000D02*
X112918349Y-151240000D01*
X112958349Y-149160000D02*
X112958349Y-146426000D01*
X112958349Y-153974000D02*
X112958349Y-151240000D01*
X112998349Y-149160000D02*
X112998349Y-146443000D01*
X112998349Y-153957000D02*
X112998349Y-151240000D01*
X113038349Y-149160000D02*
X113038349Y-146460000D01*
X113038349Y-153940000D02*
X113038349Y-151240000D01*
X113078349Y-149160000D02*
X113078349Y-146478000D01*
X113078349Y-153922000D02*
X113078349Y-151240000D01*
X113118349Y-149160000D02*
X113118349Y-146496000D01*
X113118349Y-153904000D02*
X113118349Y-151240000D01*
X113158349Y-149160000D02*
X113158349Y-146514000D01*
X113158349Y-153886000D02*
X113158349Y-151240000D01*
X113198349Y-149160000D02*
X113198349Y-146534000D01*
X113198349Y-153866000D02*
X113198349Y-151240000D01*
X113238349Y-149160000D02*
X113238349Y-146553000D01*
X113238349Y-153847000D02*
X113238349Y-151240000D01*
X113278349Y-149160000D02*
X113278349Y-146573000D01*
X113278349Y-153827000D02*
X113278349Y-151240000D01*
X113318349Y-149160000D02*
X113318349Y-146594000D01*
X113318349Y-153806000D02*
X113318349Y-151240000D01*
X113358349Y-149160000D02*
X113358349Y-146616000D01*
X113358349Y-153784000D02*
X113358349Y-151240000D01*
X113398349Y-149160000D02*
X113398349Y-146638000D01*
X113398349Y-153762000D02*
X113398349Y-151240000D01*
X113438349Y-149160000D02*
X113438349Y-146660000D01*
X113438349Y-153740000D02*
X113438349Y-151240000D01*
X113478349Y-149160000D02*
X113478349Y-146683000D01*
X113478349Y-153717000D02*
X113478349Y-151240000D01*
X113518349Y-149160000D02*
X113518349Y-146707000D01*
X113518349Y-153693000D02*
X113518349Y-151240000D01*
X113558349Y-149160000D02*
X113558349Y-146731000D01*
X113558349Y-153669000D02*
X113558349Y-151240000D01*
X113598349Y-149160000D02*
X113598349Y-146756000D01*
X113598349Y-153644000D02*
X113598349Y-151240000D01*
X113638349Y-149160000D02*
X113638349Y-146782000D01*
X113638349Y-153618000D02*
X113638349Y-151240000D01*
X113678349Y-149160000D02*
X113678349Y-146808000D01*
X113678349Y-153592000D02*
X113678349Y-151240000D01*
X113718349Y-149160000D02*
X113718349Y-146835000D01*
X113718349Y-153565000D02*
X113718349Y-151240000D01*
X113758349Y-149160000D02*
X113758349Y-146862000D01*
X113758349Y-153538000D02*
X113758349Y-151240000D01*
X113798349Y-149160000D02*
X113798349Y-146891000D01*
X113798349Y-153509000D02*
X113798349Y-151240000D01*
X113838349Y-149160000D02*
X113838349Y-146920000D01*
X113838349Y-153480000D02*
X113838349Y-151240000D01*
X113878349Y-149160000D02*
X113878349Y-146950000D01*
X113878349Y-153450000D02*
X113878349Y-151240000D01*
X113918349Y-149160000D02*
X113918349Y-146980000D01*
X113918349Y-153420000D02*
X113918349Y-151240000D01*
X113958349Y-149160000D02*
X113958349Y-147011000D01*
X113958349Y-153389000D02*
X113958349Y-151240000D01*
X113998349Y-149160000D02*
X113998349Y-147044000D01*
X113998349Y-153356000D02*
X113998349Y-151240000D01*
X114038349Y-149160000D02*
X114038349Y-147076000D01*
X114038349Y-153324000D02*
X114038349Y-151240000D01*
X114078349Y-149160000D02*
X114078349Y-147110000D01*
X114078349Y-153290000D02*
X114078349Y-151240000D01*
X114118349Y-149160000D02*
X114118349Y-147145000D01*
X114118349Y-153255000D02*
X114118349Y-151240000D01*
X114158349Y-149160000D02*
X114158349Y-147181000D01*
X114158349Y-153219000D02*
X114158349Y-151240000D01*
X114198349Y-153183000D02*
X114198349Y-147217000D01*
X114238349Y-153145000D02*
X114238349Y-147255000D01*
X114278349Y-153107000D02*
X114278349Y-147293000D01*
X114318349Y-153067000D02*
X114318349Y-147333000D01*
X114358349Y-153026000D02*
X114358349Y-147374000D01*
X114398349Y-152984000D02*
X114398349Y-147416000D01*
X114438349Y-152941000D02*
X114438349Y-147459000D01*
X114478349Y-152897000D02*
X114478349Y-147503000D01*
X114518349Y-152851000D02*
X114518349Y-147549000D01*
X114558349Y-152804000D02*
X114558349Y-147596000D01*
X114598349Y-152756000D02*
X114598349Y-147644000D01*
X114638349Y-152705000D02*
X114638349Y-147695000D01*
X114678349Y-152654000D02*
X114678349Y-147746000D01*
X114718349Y-152600000D02*
X114718349Y-147800000D01*
X114758349Y-152545000D02*
X114758349Y-147855000D01*
X114798349Y-152487000D02*
X114798349Y-147913000D01*
X114838349Y-152428000D02*
X114838349Y-147972000D01*
X114878349Y-152366000D02*
X114878349Y-148034000D01*
X114918349Y-152302000D02*
X114918349Y-148098000D01*
X114958349Y-152234000D02*
X114958349Y-148166000D01*
X114998349Y-152164000D02*
X114998349Y-148236000D01*
X115038349Y-152090000D02*
X115038349Y-148310000D01*
X115078349Y-152013000D02*
X115078349Y-148387000D01*
X115118349Y-151931000D02*
X115118349Y-148469000D01*
X115158349Y-151845000D02*
X115158349Y-148555000D01*
X115198349Y-151752000D02*
X115198349Y-148648000D01*
X115238349Y-151653000D02*
X115238349Y-148747000D01*
X115278349Y-151546000D02*
X115278349Y-148854000D01*
X115318349Y-151429000D02*
X115318349Y-148971000D01*
X115358349Y-151298000D02*
X115358349Y-149102000D01*
X115398349Y-151148000D02*
X115398349Y-149252000D01*
X115438349Y-150968000D02*
X115438349Y-149432000D01*
X115478349Y-150733000D02*
X115478349Y-149667000D01*
X115517349Y-150200000D02*
G75*
G03*
X115517349Y-150200000I-4120000J0D01*
G01*
%TO.C,C44*%
X101537651Y-68865000D02*
X102337651Y-68865000D01*
X101937651Y-69265000D02*
X101937651Y-68465000D01*
X105947349Y-70630000D02*
X105947349Y-62470000D01*
X105987349Y-70630000D02*
X105987349Y-62470000D01*
X106027349Y-70630000D02*
X106027349Y-62470000D01*
X106067349Y-70629000D02*
X106067349Y-62471000D01*
X106107349Y-70627000D02*
X106107349Y-62473000D01*
X106147349Y-70626000D02*
X106147349Y-62474000D01*
X106187349Y-70624000D02*
X106187349Y-62476000D01*
X106227349Y-70621000D02*
X106227349Y-62479000D01*
X106267349Y-70618000D02*
X106267349Y-62482000D01*
X106307349Y-70615000D02*
X106307349Y-62485000D01*
X106347349Y-70611000D02*
X106347349Y-62489000D01*
X106387349Y-70607000D02*
X106387349Y-62493000D01*
X106427349Y-70602000D02*
X106427349Y-62498000D01*
X106467349Y-70598000D02*
X106467349Y-62502000D01*
X106507349Y-70592000D02*
X106507349Y-62508000D01*
X106547349Y-70587000D02*
X106547349Y-62513000D01*
X106587349Y-70580000D02*
X106587349Y-62520000D01*
X106627349Y-70574000D02*
X106627349Y-62526000D01*
X106668349Y-65510000D02*
X106668349Y-62533000D01*
X106668349Y-70567000D02*
X106668349Y-67590000D01*
X106708349Y-65510000D02*
X106708349Y-62540000D01*
X106708349Y-70560000D02*
X106708349Y-67590000D01*
X106748349Y-65510000D02*
X106748349Y-62548000D01*
X106748349Y-70552000D02*
X106748349Y-67590000D01*
X106788349Y-65510000D02*
X106788349Y-62556000D01*
X106788349Y-70544000D02*
X106788349Y-67590000D01*
X106828349Y-65510000D02*
X106828349Y-62565000D01*
X106828349Y-70535000D02*
X106828349Y-67590000D01*
X106868349Y-65510000D02*
X106868349Y-62574000D01*
X106868349Y-70526000D02*
X106868349Y-67590000D01*
X106908349Y-65510000D02*
X106908349Y-62583000D01*
X106908349Y-70517000D02*
X106908349Y-67590000D01*
X106948349Y-65510000D02*
X106948349Y-62593000D01*
X106948349Y-70507000D02*
X106948349Y-67590000D01*
X106988349Y-65510000D02*
X106988349Y-62603000D01*
X106988349Y-70497000D02*
X106988349Y-67590000D01*
X107028349Y-65510000D02*
X107028349Y-62614000D01*
X107028349Y-70486000D02*
X107028349Y-67590000D01*
X107068349Y-65510000D02*
X107068349Y-62625000D01*
X107068349Y-70475000D02*
X107068349Y-67590000D01*
X107108349Y-65510000D02*
X107108349Y-62636000D01*
X107108349Y-70464000D02*
X107108349Y-67590000D01*
X107148349Y-65510000D02*
X107148349Y-62648000D01*
X107148349Y-70452000D02*
X107148349Y-67590000D01*
X107188349Y-65510000D02*
X107188349Y-62661000D01*
X107188349Y-70439000D02*
X107188349Y-67590000D01*
X107228349Y-65510000D02*
X107228349Y-62673000D01*
X107228349Y-70427000D02*
X107228349Y-67590000D01*
X107268349Y-65510000D02*
X107268349Y-62687000D01*
X107268349Y-70413000D02*
X107268349Y-67590000D01*
X107308349Y-65510000D02*
X107308349Y-62700000D01*
X107308349Y-70400000D02*
X107308349Y-67590000D01*
X107348349Y-65510000D02*
X107348349Y-62715000D01*
X107348349Y-70385000D02*
X107348349Y-67590000D01*
X107388349Y-65510000D02*
X107388349Y-62729000D01*
X107388349Y-70371000D02*
X107388349Y-67590000D01*
X107428349Y-65510000D02*
X107428349Y-62745000D01*
X107428349Y-70355000D02*
X107428349Y-67590000D01*
X107468349Y-65510000D02*
X107468349Y-62760000D01*
X107468349Y-70340000D02*
X107468349Y-67590000D01*
X107508349Y-65510000D02*
X107508349Y-62776000D01*
X107508349Y-70324000D02*
X107508349Y-67590000D01*
X107548349Y-65510000D02*
X107548349Y-62793000D01*
X107548349Y-70307000D02*
X107548349Y-67590000D01*
X107588349Y-65510000D02*
X107588349Y-62810000D01*
X107588349Y-70290000D02*
X107588349Y-67590000D01*
X107628349Y-65510000D02*
X107628349Y-62828000D01*
X107628349Y-70272000D02*
X107628349Y-67590000D01*
X107668349Y-65510000D02*
X107668349Y-62846000D01*
X107668349Y-70254000D02*
X107668349Y-67590000D01*
X107708349Y-65510000D02*
X107708349Y-62864000D01*
X107708349Y-70236000D02*
X107708349Y-67590000D01*
X107748349Y-65510000D02*
X107748349Y-62884000D01*
X107748349Y-70216000D02*
X107748349Y-67590000D01*
X107788349Y-65510000D02*
X107788349Y-62903000D01*
X107788349Y-70197000D02*
X107788349Y-67590000D01*
X107828349Y-65510000D02*
X107828349Y-62923000D01*
X107828349Y-70177000D02*
X107828349Y-67590000D01*
X107868349Y-65510000D02*
X107868349Y-62944000D01*
X107868349Y-70156000D02*
X107868349Y-67590000D01*
X107908349Y-65510000D02*
X107908349Y-62966000D01*
X107908349Y-70134000D02*
X107908349Y-67590000D01*
X107948349Y-65510000D02*
X107948349Y-62988000D01*
X107948349Y-70112000D02*
X107948349Y-67590000D01*
X107988349Y-65510000D02*
X107988349Y-63010000D01*
X107988349Y-70090000D02*
X107988349Y-67590000D01*
X108028349Y-65510000D02*
X108028349Y-63033000D01*
X108028349Y-70067000D02*
X108028349Y-67590000D01*
X108068349Y-65510000D02*
X108068349Y-63057000D01*
X108068349Y-70043000D02*
X108068349Y-67590000D01*
X108108349Y-65510000D02*
X108108349Y-63081000D01*
X108108349Y-70019000D02*
X108108349Y-67590000D01*
X108148349Y-65510000D02*
X108148349Y-63106000D01*
X108148349Y-69994000D02*
X108148349Y-67590000D01*
X108188349Y-65510000D02*
X108188349Y-63132000D01*
X108188349Y-69968000D02*
X108188349Y-67590000D01*
X108228349Y-65510000D02*
X108228349Y-63158000D01*
X108228349Y-69942000D02*
X108228349Y-67590000D01*
X108268349Y-65510000D02*
X108268349Y-63185000D01*
X108268349Y-69915000D02*
X108268349Y-67590000D01*
X108308349Y-65510000D02*
X108308349Y-63212000D01*
X108308349Y-69888000D02*
X108308349Y-67590000D01*
X108348349Y-65510000D02*
X108348349Y-63241000D01*
X108348349Y-69859000D02*
X108348349Y-67590000D01*
X108388349Y-65510000D02*
X108388349Y-63270000D01*
X108388349Y-69830000D02*
X108388349Y-67590000D01*
X108428349Y-65510000D02*
X108428349Y-63300000D01*
X108428349Y-69800000D02*
X108428349Y-67590000D01*
X108468349Y-65510000D02*
X108468349Y-63330000D01*
X108468349Y-69770000D02*
X108468349Y-67590000D01*
X108508349Y-65510000D02*
X108508349Y-63361000D01*
X108508349Y-69739000D02*
X108508349Y-67590000D01*
X108548349Y-65510000D02*
X108548349Y-63394000D01*
X108548349Y-69706000D02*
X108548349Y-67590000D01*
X108588349Y-65510000D02*
X108588349Y-63426000D01*
X108588349Y-69674000D02*
X108588349Y-67590000D01*
X108628349Y-65510000D02*
X108628349Y-63460000D01*
X108628349Y-69640000D02*
X108628349Y-67590000D01*
X108668349Y-65510000D02*
X108668349Y-63495000D01*
X108668349Y-69605000D02*
X108668349Y-67590000D01*
X108708349Y-65510000D02*
X108708349Y-63531000D01*
X108708349Y-69569000D02*
X108708349Y-67590000D01*
X108748349Y-69533000D02*
X108748349Y-63567000D01*
X108788349Y-69495000D02*
X108788349Y-63605000D01*
X108828349Y-69457000D02*
X108828349Y-63643000D01*
X108868349Y-69417000D02*
X108868349Y-63683000D01*
X108908349Y-69376000D02*
X108908349Y-63724000D01*
X108948349Y-69334000D02*
X108948349Y-63766000D01*
X108988349Y-69291000D02*
X108988349Y-63809000D01*
X109028349Y-69247000D02*
X109028349Y-63853000D01*
X109068349Y-69201000D02*
X109068349Y-63899000D01*
X109108349Y-69154000D02*
X109108349Y-63946000D01*
X109148349Y-69106000D02*
X109148349Y-63994000D01*
X109188349Y-69055000D02*
X109188349Y-64045000D01*
X109228349Y-69004000D02*
X109228349Y-64096000D01*
X109268349Y-68950000D02*
X109268349Y-64150000D01*
X109308349Y-68895000D02*
X109308349Y-64205000D01*
X109348349Y-68837000D02*
X109348349Y-64263000D01*
X109388349Y-68778000D02*
X109388349Y-64322000D01*
X109428349Y-68716000D02*
X109428349Y-64384000D01*
X109468349Y-68652000D02*
X109468349Y-64448000D01*
X109508349Y-68584000D02*
X109508349Y-64516000D01*
X109548349Y-68514000D02*
X109548349Y-64586000D01*
X109588349Y-68440000D02*
X109588349Y-64660000D01*
X109628349Y-68363000D02*
X109628349Y-64737000D01*
X109668349Y-68281000D02*
X109668349Y-64819000D01*
X109708349Y-68195000D02*
X109708349Y-64905000D01*
X109748349Y-68102000D02*
X109748349Y-64998000D01*
X109788349Y-68003000D02*
X109788349Y-65097000D01*
X109828349Y-67896000D02*
X109828349Y-65204000D01*
X109868349Y-67779000D02*
X109868349Y-65321000D01*
X109908349Y-67648000D02*
X109908349Y-65452000D01*
X109948349Y-67498000D02*
X109948349Y-65602000D01*
X109988349Y-67318000D02*
X109988349Y-65782000D01*
X110028349Y-67083000D02*
X110028349Y-66017000D01*
X110067349Y-66550000D02*
G75*
G03*
X110067349Y-66550000I-4120000J0D01*
G01*
%TO.C,C43*%
X89735000Y-65987651D02*
X89735000Y-66787651D01*
X89335000Y-66387651D02*
X90135000Y-66387651D01*
X87970000Y-70397349D02*
X96130000Y-70397349D01*
X87970000Y-70437349D02*
X96130000Y-70437349D01*
X87970000Y-70477349D02*
X96130000Y-70477349D01*
X87971000Y-70517349D02*
X96129000Y-70517349D01*
X87973000Y-70557349D02*
X96127000Y-70557349D01*
X87974000Y-70597349D02*
X96126000Y-70597349D01*
X87976000Y-70637349D02*
X96124000Y-70637349D01*
X87979000Y-70677349D02*
X96121000Y-70677349D01*
X87982000Y-70717349D02*
X96118000Y-70717349D01*
X87985000Y-70757349D02*
X96115000Y-70757349D01*
X87989000Y-70797349D02*
X96111000Y-70797349D01*
X87993000Y-70837349D02*
X96107000Y-70837349D01*
X87998000Y-70877349D02*
X96102000Y-70877349D01*
X88002000Y-70917349D02*
X96098000Y-70917349D01*
X88008000Y-70957349D02*
X96092000Y-70957349D01*
X88013000Y-70997349D02*
X96087000Y-70997349D01*
X88020000Y-71037349D02*
X96080000Y-71037349D01*
X88026000Y-71077349D02*
X96074000Y-71077349D01*
X93090000Y-71118349D02*
X96067000Y-71118349D01*
X88033000Y-71118349D02*
X91010000Y-71118349D01*
X93090000Y-71158349D02*
X96060000Y-71158349D01*
X88040000Y-71158349D02*
X91010000Y-71158349D01*
X93090000Y-71198349D02*
X96052000Y-71198349D01*
X88048000Y-71198349D02*
X91010000Y-71198349D01*
X93090000Y-71238349D02*
X96044000Y-71238349D01*
X88056000Y-71238349D02*
X91010000Y-71238349D01*
X93090000Y-71278349D02*
X96035000Y-71278349D01*
X88065000Y-71278349D02*
X91010000Y-71278349D01*
X93090000Y-71318349D02*
X96026000Y-71318349D01*
X88074000Y-71318349D02*
X91010000Y-71318349D01*
X93090000Y-71358349D02*
X96017000Y-71358349D01*
X88083000Y-71358349D02*
X91010000Y-71358349D01*
X93090000Y-71398349D02*
X96007000Y-71398349D01*
X88093000Y-71398349D02*
X91010000Y-71398349D01*
X93090000Y-71438349D02*
X95997000Y-71438349D01*
X88103000Y-71438349D02*
X91010000Y-71438349D01*
X93090000Y-71478349D02*
X95986000Y-71478349D01*
X88114000Y-71478349D02*
X91010000Y-71478349D01*
X93090000Y-71518349D02*
X95975000Y-71518349D01*
X88125000Y-71518349D02*
X91010000Y-71518349D01*
X93090000Y-71558349D02*
X95964000Y-71558349D01*
X88136000Y-71558349D02*
X91010000Y-71558349D01*
X93090000Y-71598349D02*
X95952000Y-71598349D01*
X88148000Y-71598349D02*
X91010000Y-71598349D01*
X93090000Y-71638349D02*
X95939000Y-71638349D01*
X88161000Y-71638349D02*
X91010000Y-71638349D01*
X93090000Y-71678349D02*
X95927000Y-71678349D01*
X88173000Y-71678349D02*
X91010000Y-71678349D01*
X93090000Y-71718349D02*
X95913000Y-71718349D01*
X88187000Y-71718349D02*
X91010000Y-71718349D01*
X93090000Y-71758349D02*
X95900000Y-71758349D01*
X88200000Y-71758349D02*
X91010000Y-71758349D01*
X93090000Y-71798349D02*
X95885000Y-71798349D01*
X88215000Y-71798349D02*
X91010000Y-71798349D01*
X93090000Y-71838349D02*
X95871000Y-71838349D01*
X88229000Y-71838349D02*
X91010000Y-71838349D01*
X93090000Y-71878349D02*
X95855000Y-71878349D01*
X88245000Y-71878349D02*
X91010000Y-71878349D01*
X93090000Y-71918349D02*
X95840000Y-71918349D01*
X88260000Y-71918349D02*
X91010000Y-71918349D01*
X93090000Y-71958349D02*
X95824000Y-71958349D01*
X88276000Y-71958349D02*
X91010000Y-71958349D01*
X93090000Y-71998349D02*
X95807000Y-71998349D01*
X88293000Y-71998349D02*
X91010000Y-71998349D01*
X93090000Y-72038349D02*
X95790000Y-72038349D01*
X88310000Y-72038349D02*
X91010000Y-72038349D01*
X93090000Y-72078349D02*
X95772000Y-72078349D01*
X88328000Y-72078349D02*
X91010000Y-72078349D01*
X93090000Y-72118349D02*
X95754000Y-72118349D01*
X88346000Y-72118349D02*
X91010000Y-72118349D01*
X93090000Y-72158349D02*
X95736000Y-72158349D01*
X88364000Y-72158349D02*
X91010000Y-72158349D01*
X93090000Y-72198349D02*
X95716000Y-72198349D01*
X88384000Y-72198349D02*
X91010000Y-72198349D01*
X93090000Y-72238349D02*
X95697000Y-72238349D01*
X88403000Y-72238349D02*
X91010000Y-72238349D01*
X93090000Y-72278349D02*
X95677000Y-72278349D01*
X88423000Y-72278349D02*
X91010000Y-72278349D01*
X93090000Y-72318349D02*
X95656000Y-72318349D01*
X88444000Y-72318349D02*
X91010000Y-72318349D01*
X93090000Y-72358349D02*
X95634000Y-72358349D01*
X88466000Y-72358349D02*
X91010000Y-72358349D01*
X93090000Y-72398349D02*
X95612000Y-72398349D01*
X88488000Y-72398349D02*
X91010000Y-72398349D01*
X93090000Y-72438349D02*
X95590000Y-72438349D01*
X88510000Y-72438349D02*
X91010000Y-72438349D01*
X93090000Y-72478349D02*
X95567000Y-72478349D01*
X88533000Y-72478349D02*
X91010000Y-72478349D01*
X93090000Y-72518349D02*
X95543000Y-72518349D01*
X88557000Y-72518349D02*
X91010000Y-72518349D01*
X93090000Y-72558349D02*
X95519000Y-72558349D01*
X88581000Y-72558349D02*
X91010000Y-72558349D01*
X93090000Y-72598349D02*
X95494000Y-72598349D01*
X88606000Y-72598349D02*
X91010000Y-72598349D01*
X93090000Y-72638349D02*
X95468000Y-72638349D01*
X88632000Y-72638349D02*
X91010000Y-72638349D01*
X93090000Y-72678349D02*
X95442000Y-72678349D01*
X88658000Y-72678349D02*
X91010000Y-72678349D01*
X93090000Y-72718349D02*
X95415000Y-72718349D01*
X88685000Y-72718349D02*
X91010000Y-72718349D01*
X93090000Y-72758349D02*
X95388000Y-72758349D01*
X88712000Y-72758349D02*
X91010000Y-72758349D01*
X93090000Y-72798349D02*
X95359000Y-72798349D01*
X88741000Y-72798349D02*
X91010000Y-72798349D01*
X93090000Y-72838349D02*
X95330000Y-72838349D01*
X88770000Y-72838349D02*
X91010000Y-72838349D01*
X93090000Y-72878349D02*
X95300000Y-72878349D01*
X88800000Y-72878349D02*
X91010000Y-72878349D01*
X93090000Y-72918349D02*
X95270000Y-72918349D01*
X88830000Y-72918349D02*
X91010000Y-72918349D01*
X93090000Y-72958349D02*
X95239000Y-72958349D01*
X88861000Y-72958349D02*
X91010000Y-72958349D01*
X93090000Y-72998349D02*
X95206000Y-72998349D01*
X88894000Y-72998349D02*
X91010000Y-72998349D01*
X93090000Y-73038349D02*
X95174000Y-73038349D01*
X88926000Y-73038349D02*
X91010000Y-73038349D01*
X93090000Y-73078349D02*
X95140000Y-73078349D01*
X88960000Y-73078349D02*
X91010000Y-73078349D01*
X93090000Y-73118349D02*
X95105000Y-73118349D01*
X88995000Y-73118349D02*
X91010000Y-73118349D01*
X93090000Y-73158349D02*
X95069000Y-73158349D01*
X89031000Y-73158349D02*
X91010000Y-73158349D01*
X89067000Y-73198349D02*
X95033000Y-73198349D01*
X89105000Y-73238349D02*
X94995000Y-73238349D01*
X89143000Y-73278349D02*
X94957000Y-73278349D01*
X89183000Y-73318349D02*
X94917000Y-73318349D01*
X89224000Y-73358349D02*
X94876000Y-73358349D01*
X89266000Y-73398349D02*
X94834000Y-73398349D01*
X89309000Y-73438349D02*
X94791000Y-73438349D01*
X89353000Y-73478349D02*
X94747000Y-73478349D01*
X89399000Y-73518349D02*
X94701000Y-73518349D01*
X89446000Y-73558349D02*
X94654000Y-73558349D01*
X89494000Y-73598349D02*
X94606000Y-73598349D01*
X89545000Y-73638349D02*
X94555000Y-73638349D01*
X89596000Y-73678349D02*
X94504000Y-73678349D01*
X89650000Y-73718349D02*
X94450000Y-73718349D01*
X89705000Y-73758349D02*
X94395000Y-73758349D01*
X89763000Y-73798349D02*
X94337000Y-73798349D01*
X89822000Y-73838349D02*
X94278000Y-73838349D01*
X89884000Y-73878349D02*
X94216000Y-73878349D01*
X89948000Y-73918349D02*
X94152000Y-73918349D01*
X90016000Y-73958349D02*
X94084000Y-73958349D01*
X90086000Y-73998349D02*
X94014000Y-73998349D01*
X90160000Y-74038349D02*
X93940000Y-74038349D01*
X90237000Y-74078349D02*
X93863000Y-74078349D01*
X90319000Y-74118349D02*
X93781000Y-74118349D01*
X90405000Y-74158349D02*
X93695000Y-74158349D01*
X90498000Y-74198349D02*
X93602000Y-74198349D01*
X90597000Y-74238349D02*
X93503000Y-74238349D01*
X90704000Y-74278349D02*
X93396000Y-74278349D01*
X90821000Y-74318349D02*
X93279000Y-74318349D01*
X90952000Y-74358349D02*
X93148000Y-74358349D01*
X91102000Y-74398349D02*
X92998000Y-74398349D01*
X91282000Y-74438349D02*
X92818000Y-74438349D01*
X91517000Y-74478349D02*
X92583000Y-74478349D01*
X96170000Y-70397349D02*
G75*
G03*
X96170000Y-70397349I-4120000J0D01*
G01*
%TD*%
%LPC*%
D13*
%TO.C,J3*%
X105650000Y-59650000D03*
D14*
X105650000Y-53850000D03*
D15*
X100850000Y-56650000D03*
%TD*%
D16*
%TO.C,J1*%
X57827500Y-92200000D03*
D17*
X57827500Y-94700000D03*
X57827500Y-96700000D03*
X57827500Y-99200000D03*
D18*
X55117500Y-89130000D03*
X55117500Y-102270000D03*
%TD*%
D19*
%TO.C,J15*%
X103300000Y-135025000D03*
D20*
X103300000Y-137565000D03*
%TD*%
D21*
%TO.C,H1*%
X55000000Y-55000000D03*
D22*
X55000000Y-55000000D03*
%TD*%
D23*
%TO.C,J16*%
X78250000Y-166850000D03*
D24*
X83250000Y-166850000D03*
%TD*%
D25*
%TO.C,SW3*%
X61450000Y-63200000D03*
X61450000Y-68200000D03*
X61450000Y-65700000D03*
D26*
X68950000Y-60100000D03*
X68950000Y-71300000D03*
D27*
X75950000Y-63200000D03*
X75950000Y-68200000D03*
%TD*%
D28*
%TO.C,Q8*%
X131205000Y-90060000D03*
D29*
X131205000Y-92600000D03*
X131205000Y-95140000D03*
%TD*%
D30*
%TO.C,U12*%
X53150000Y-153850000D03*
X84150000Y-153850000D03*
X53150000Y-77850000D03*
X84150000Y-77850000D03*
%TD*%
D23*
%TO.C,J7*%
X126635000Y-54200000D03*
D24*
X131635000Y-54200000D03*
%TD*%
D31*
%TO.C,Q10*%
X132277500Y-106480000D03*
D32*
X132277500Y-111930000D03*
X132277500Y-117380000D03*
%TD*%
D23*
%TO.C,J8*%
X116100000Y-166450000D03*
D24*
X121100000Y-166450000D03*
%TD*%
D21*
%TO.C,H4*%
X55000000Y-166000000D03*
D22*
X55000000Y-166000000D03*
%TD*%
D13*
%TO.C,J4*%
X130200000Y-160700000D03*
D14*
X130200000Y-166500000D03*
D15*
X135000000Y-163700000D03*
%TD*%
D31*
%TO.C,Q3*%
X132317500Y-130800000D03*
D32*
X132317500Y-136250000D03*
X132317500Y-141700000D03*
%TD*%
D33*
%TO.C,U18*%
X107790000Y-85005000D03*
D34*
X105250000Y-85005000D03*
X102710000Y-85005000D03*
%TD*%
D23*
%TO.C,J11*%
X115735000Y-69050000D03*
D24*
X120735000Y-69050000D03*
%TD*%
D35*
%TO.C,HS1*%
X138217500Y-154700000D03*
X148217500Y-154700000D03*
X138217500Y-61700000D03*
X148217500Y-61700000D03*
%TD*%
D23*
%TO.C,J5*%
X101030000Y-167000000D03*
D24*
X96030000Y-167000000D03*
%TD*%
D21*
%TO.C,H3*%
X146000000Y-166000000D03*
D22*
X146000000Y-166000000D03*
%TD*%
D23*
%TO.C,J6*%
X94650000Y-53950000D03*
D24*
X89650000Y-53950000D03*
%TD*%
D36*
%TO.C,J14*%
X53400000Y-147830000D03*
X54300000Y-147830000D03*
X55200000Y-147830000D03*
X56100000Y-147830000D03*
X57000000Y-147830000D03*
X57900000Y-147830000D03*
X58800000Y-147830000D03*
X58350000Y-148610000D03*
X57450000Y-148610000D03*
X56550000Y-148610000D03*
X55650000Y-148610000D03*
X54750000Y-148610000D03*
X53850000Y-148610000D03*
X52950000Y-148610000D03*
D37*
X58350000Y-146790000D03*
X53400000Y-146790000D03*
X58350000Y-149650000D03*
X53400000Y-149650000D03*
%TD*%
D19*
%TO.C,J13*%
X101975000Y-93700000D03*
D20*
X99435000Y-93700000D03*
%TD*%
D19*
%TO.C,J9*%
X108550000Y-78360000D03*
D20*
X108550000Y-80900000D03*
%TD*%
D19*
%TO.C,J2*%
X60250000Y-158700000D03*
D20*
X62790000Y-158700000D03*
X65330000Y-158700000D03*
X67870000Y-158700000D03*
X70410000Y-158700000D03*
X72950000Y-158700000D03*
%TD*%
D13*
%TO.C,J10*%
X117950000Y-59550000D03*
D14*
X117950000Y-53750000D03*
D15*
X113150000Y-56550000D03*
%TD*%
D21*
%TO.C,H2*%
X146000000Y-55000000D03*
D22*
X146000000Y-55000000D03*
%TD*%
D38*
%TO.C,U6*%
X98005000Y-90475000D03*
X96735000Y-90475000D03*
X95465000Y-90475000D03*
X94195000Y-90475000D03*
X94195000Y-85525000D03*
X95465000Y-85525000D03*
X96735000Y-85525000D03*
X98005000Y-85525000D03*
%TD*%
D39*
%TO.C,J12*%
X83500000Y-83600000D03*
X86000000Y-91200000D03*
X81000000Y-91200000D03*
D40*
X86000000Y-139333000D03*
X81000000Y-139333000D03*
X83500000Y-146933000D03*
%TD*%
D41*
%TO.C,R47*%
X127234205Y-141584205D03*
D42*
X112865795Y-127215795D03*
%TD*%
D43*
%TO.C,R13*%
X56490000Y-160000000D03*
D44*
X51410000Y-160000000D03*
%TD*%
D45*
%TO.C,U7*%
X115000000Y-95100000D03*
X116700000Y-95100000D03*
X118400000Y-95100000D03*
D46*
X118400000Y-104250000D03*
D45*
X120100000Y-95100000D03*
X121800000Y-95100000D03*
%TD*%
D47*
%TO.C,C28*%
X104467397Y-149237437D03*
D43*
X101992523Y-146762563D03*
%TD*%
D41*
%TO.C,R22*%
X132260000Y-121400000D03*
D48*
X111940000Y-121400000D03*
%TD*%
D49*
%TO.C,C27*%
X127702651Y-156900000D03*
D43*
X124202651Y-156900000D03*
%TD*%
D49*
%TO.C,C31*%
X109647349Y-150200000D03*
D43*
X113147349Y-150200000D03*
%TD*%
D49*
%TO.C,C44*%
X104197349Y-66550000D03*
D43*
X107697349Y-66550000D03*
%TD*%
D49*
%TO.C,C43*%
X92050000Y-68647349D03*
D43*
X92050000Y-72147349D03*
%TD*%
%LPD*%
M02*
