%TF.GenerationSoftware,KiCad,Pcbnew,7.0.8*%
%TF.CreationDate,2023-10-31T22:13:39+02:00*%
%TF.ProjectId,Small_load_V1,536d616c-6c5f-46c6-9f61-645f56312e6b,rev?*%
%TF.SameCoordinates,Original*%
%TF.FileFunction,Soldermask,Top*%
%TF.FilePolarity,Negative*%
%FSLAX46Y46*%
G04 Gerber Fmt 4.6, Leading zero omitted, Abs format (unit mm)*
G04 Created by KiCad (PCBNEW 7.0.8) date 2023-10-31 22:13:39*
%MOMM*%
%LPD*%
G01*
G04 APERTURE LIST*
G04 Aperture macros list*
%AMRoundRect*
0 Rectangle with rounded corners*
0 $1 Rounding radius*
0 $2 $3 $4 $5 $6 $7 $8 $9 X,Y pos of 4 corners*
0 Add a 4 corners polygon primitive as box body*
4,1,4,$2,$3,$4,$5,$6,$7,$8,$9,$2,$3,0*
0 Add four circle primitives for the rounded corners*
1,1,$1+$1,$2,$3*
1,1,$1+$1,$4,$5*
1,1,$1+$1,$6,$7*
1,1,$1+$1,$8,$9*
0 Add four rect primitives between the rounded corners*
20,1,$1+$1,$2,$3,$4,$5,0*
20,1,$1+$1,$4,$5,$6,$7,0*
20,1,$1+$1,$6,$7,$8,$9,0*
20,1,$1+$1,$8,$9,$2,$3,0*%
%AMHorizOval*
0 Thick line with rounded ends*
0 $1 width*
0 $2 $3 position (X,Y) of the first rounded end (center of the circle)*
0 $4 $5 position (X,Y) of the second rounded end (center of the circle)*
0 Add line between two ends*
20,1,$1,$2,$3,$4,$5,0*
0 Add two circle primitives to create the rounded ends*
1,1,$1,$2,$3*
1,1,$1,$4,$5*%
%AMRotRect*
0 Rectangle, with rotation*
0 The origin of the aperture is its center*
0 $1 length*
0 $2 width*
0 $3 Rotation angle, in degrees counterclockwise*
0 Add horizontal line*
21,1,$1,$2,0,0,$3*%
%AMFreePoly0*
4,1,19,0.500000,-0.750000,0.000000,-0.750000,0.000000,-0.744911,-0.071157,-0.744911,-0.207708,-0.704816,-0.327430,-0.627875,-0.420627,-0.520320,-0.479746,-0.390866,-0.500000,-0.250000,-0.500000,0.250000,-0.479746,0.390866,-0.420627,0.520320,-0.327430,0.627875,-0.207708,0.704816,-0.071157,0.744911,0.000000,0.744911,0.000000,0.750000,0.500000,0.750000,0.500000,-0.750000,0.500000,-0.750000,
$1*%
%AMFreePoly1*
4,1,19,0.000000,0.744911,0.071157,0.744911,0.207708,0.704816,0.327430,0.627875,0.420627,0.520320,0.479746,0.390866,0.500000,0.250000,0.500000,-0.250000,0.479746,-0.390866,0.420627,-0.520320,0.327430,-0.627875,0.207708,-0.704816,0.071157,-0.744911,0.000000,-0.744911,0.000000,-0.750000,-0.500000,-0.750000,-0.500000,0.750000,0.000000,0.750000,0.000000,0.744911,0.000000,0.744911,
$1*%
G04 Aperture macros list end*
%ADD10RoundRect,0.200000X-0.275000X0.200000X-0.275000X-0.200000X0.275000X-0.200000X0.275000X0.200000X0*%
%ADD11R,0.700000X1.000000*%
%ADD12RoundRect,0.112500X-0.187500X-0.112500X0.187500X-0.112500X0.187500X0.112500X-0.187500X0.112500X0*%
%ADD13R,4.400000X1.800000*%
%ADD14O,4.000000X1.800000*%
%ADD15O,1.800000X4.000000*%
%ADD16RoundRect,0.250000X-0.650000X0.325000X-0.650000X-0.325000X0.650000X-0.325000X0.650000X0.325000X0*%
%ADD17RoundRect,0.150000X0.150000X-0.825000X0.150000X0.825000X-0.150000X0.825000X-0.150000X-0.825000X0*%
%ADD18RoundRect,0.225000X0.250000X-0.225000X0.250000X0.225000X-0.250000X0.225000X-0.250000X-0.225000X0*%
%ADD19RoundRect,0.200000X0.200000X0.275000X-0.200000X0.275000X-0.200000X-0.275000X0.200000X-0.275000X0*%
%ADD20RoundRect,0.135000X-0.185000X0.135000X-0.185000X-0.135000X0.185000X-0.135000X0.185000X0.135000X0*%
%ADD21RoundRect,0.200000X-0.200000X-0.275000X0.200000X-0.275000X0.200000X0.275000X-0.200000X0.275000X0*%
%ADD22RoundRect,0.243750X0.243750X0.456250X-0.243750X0.456250X-0.243750X-0.456250X0.243750X-0.456250X0*%
%ADD23R,1.524000X1.524000*%
%ADD24C,1.524000*%
%ADD25C,3.500000*%
%ADD26R,1.700000X1.700000*%
%ADD27O,1.700000X1.700000*%
%ADD28RoundRect,0.600000X1.100000X-0.600000X1.100000X0.600000X-1.100000X0.600000X-1.100000X-0.600000X0*%
%ADD29R,0.510000X1.100000*%
%ADD30RoundRect,0.225000X0.225000X0.250000X-0.225000X0.250000X-0.225000X-0.250000X0.225000X-0.250000X0*%
%ADD31RoundRect,0.200000X0.275000X-0.200000X0.275000X0.200000X-0.275000X0.200000X-0.275000X-0.200000X0*%
%ADD32RoundRect,0.140000X0.170000X-0.140000X0.170000X0.140000X-0.170000X0.140000X-0.170000X-0.140000X0*%
%ADD33RoundRect,0.140000X-0.170000X0.140000X-0.170000X-0.140000X0.170000X-0.140000X0.170000X0.140000X0*%
%ADD34RoundRect,0.225000X-0.250000X0.225000X-0.250000X-0.225000X0.250000X-0.225000X0.250000X0.225000X0*%
%ADD35C,3.600000*%
%ADD36C,6.400000*%
%ADD37R,1.980000X3.960000*%
%ADD38O,1.980000X3.960000*%
%ADD39RoundRect,0.140000X-0.140000X-0.170000X0.140000X-0.170000X0.140000X0.170000X-0.140000X0.170000X0*%
%ADD40R,1.510000X4.710000*%
%ADD41R,3.100000X4.210000*%
%ADD42RoundRect,0.175000X-0.400000X0.175000X-0.400000X-0.175000X0.400000X-0.175000X0.400000X0.175000X0*%
%ADD43RoundRect,0.250000X0.475000X-0.250000X0.475000X0.250000X-0.475000X0.250000X-0.475000X-0.250000X0*%
%ADD44C,2.000000*%
%ADD45C,4.920000*%
%ADD46C,2.200000*%
%ADD47R,2.000000X1.905000*%
%ADD48O,2.000000X1.905000*%
%ADD49C,5.000000*%
%ADD50RoundRect,0.140000X0.140000X0.170000X-0.140000X0.170000X-0.140000X-0.170000X0.140000X-0.170000X0*%
%ADD51R,4.500000X2.500000*%
%ADD52O,4.500000X2.500000*%
%ADD53RoundRect,0.135000X-0.135000X-0.185000X0.135000X-0.185000X0.135000X0.185000X-0.135000X0.185000X0*%
%ADD54RoundRect,0.237500X0.237500X-0.250000X0.237500X0.250000X-0.237500X0.250000X-0.237500X-0.250000X0*%
%ADD55R,7.500000X2.200000*%
%ADD56RoundRect,0.243750X-0.243750X-0.456250X0.243750X-0.456250X0.243750X0.456250X-0.243750X0.456250X0*%
%ADD57R,1.905000X2.000000*%
%ADD58O,1.905000X2.000000*%
%ADD59RoundRect,0.250000X1.000000X0.650000X-1.000000X0.650000X-1.000000X-0.650000X1.000000X-0.650000X0*%
%ADD60RoundRect,0.250000X-0.475000X0.250000X-0.475000X-0.250000X0.475000X-0.250000X0.475000X0.250000X0*%
%ADD61RoundRect,0.150000X-0.150000X0.587500X-0.150000X-0.587500X0.150000X-0.587500X0.150000X0.587500X0*%
%ADD62C,1.500000*%
%ADD63RoundRect,0.100000X0.100000X-0.712500X0.100000X0.712500X-0.100000X0.712500X-0.100000X-0.712500X0*%
%ADD64RoundRect,0.250000X-0.312500X-0.625000X0.312500X-0.625000X0.312500X0.625000X-0.312500X0.625000X0*%
%ADD65RoundRect,0.250000X-0.400000X-0.600000X0.400000X-0.600000X0.400000X0.600000X-0.400000X0.600000X0*%
%ADD66RoundRect,0.250000X0.625000X-0.312500X0.625000X0.312500X-0.625000X0.312500X-0.625000X-0.312500X0*%
%ADD67RoundRect,0.250000X0.250000X0.475000X-0.250000X0.475000X-0.250000X-0.475000X0.250000X-0.475000X0*%
%ADD68RoundRect,0.150000X0.587500X0.150000X-0.587500X0.150000X-0.587500X-0.150000X0.587500X-0.150000X0*%
%ADD69RoundRect,0.135000X0.185000X-0.135000X0.185000X0.135000X-0.185000X0.135000X-0.185000X-0.135000X0*%
%ADD70RoundRect,0.237500X0.250000X0.237500X-0.250000X0.237500X-0.250000X-0.237500X0.250000X-0.237500X0*%
%ADD71RoundRect,0.250000X-0.325000X-0.650000X0.325000X-0.650000X0.325000X0.650000X-0.325000X0.650000X0*%
%ADD72RoundRect,0.112500X0.187500X0.112500X-0.187500X0.112500X-0.187500X-0.112500X0.187500X-0.112500X0*%
%ADD73RoundRect,0.150000X0.825000X0.150000X-0.825000X0.150000X-0.825000X-0.150000X0.825000X-0.150000X0*%
%ADD74RoundRect,0.225000X-0.375000X0.225000X-0.375000X-0.225000X0.375000X-0.225000X0.375000X0.225000X0*%
%ADD75R,3.500000X3.000000*%
%ADD76C,1.000000*%
%ADD77RoundRect,0.100000X-0.100000X0.712500X-0.100000X-0.712500X0.100000X-0.712500X0.100000X0.712500X0*%
%ADD78R,0.900000X1.500000*%
%ADD79R,1.500000X0.900000*%
%ADD80R,0.900000X0.900000*%
%ADD81C,0.600000*%
%ADD82O,1.900000X0.800000*%
%ADD83RoundRect,0.135000X0.135000X0.185000X-0.135000X0.185000X-0.135000X-0.185000X0.135000X-0.185000X0*%
%ADD84RoundRect,0.250000X0.312500X0.625000X-0.312500X0.625000X-0.312500X-0.625000X0.312500X-0.625000X0*%
%ADD85FreePoly0,180.000000*%
%ADD86FreePoly1,180.000000*%
%ADD87RoundRect,0.150000X-0.825000X-0.150000X0.825000X-0.150000X0.825000X0.150000X-0.825000X0.150000X0*%
%ADD88RoundRect,0.225000X-0.225000X-0.250000X0.225000X-0.250000X0.225000X0.250000X-0.225000X0.250000X0*%
%ADD89RoundRect,0.100000X0.712500X0.100000X-0.712500X0.100000X-0.712500X-0.100000X0.712500X-0.100000X0*%
%ADD90RoundRect,0.150000X-0.587500X-0.150000X0.587500X-0.150000X0.587500X0.150000X-0.587500X0.150000X0*%
%ADD91RoundRect,0.150000X0.150000X-0.587500X0.150000X0.587500X-0.150000X0.587500X-0.150000X-0.587500X0*%
%ADD92RoundRect,0.250000X-1.000000X-0.650000X1.000000X-0.650000X1.000000X0.650000X-1.000000X0.650000X0*%
%ADD93R,2.290000X3.000000*%
%ADD94R,2.000000X1.500000*%
%ADD95R,2.000000X3.800000*%
%ADD96RoundRect,0.500000X1.000000X0.500000X-1.000000X0.500000X-1.000000X-0.500000X1.000000X-0.500000X0*%
%ADD97RoundRect,0.500000X-1.000000X-0.500000X1.000000X-0.500000X1.000000X0.500000X-1.000000X0.500000X0*%
%ADD98C,2.400000*%
%ADD99HorizOval,2.400000X0.000000X0.000000X0.000000X0.000000X0*%
%ADD100C,1.600000*%
%ADD101O,1.600000X1.600000*%
%ADD102RotRect,1.600000X1.600000X135.000000*%
%ADD103O,2.400000X2.400000*%
%ADD104R,1.600000X1.600000*%
%TA.AperFunction,Profile*%
%ADD105C,0.100000*%
%TD*%
G04 APERTURE END LIST*
D10*
%TO.C,R18*%
X72425000Y-149225000D03*
X72425000Y-150875000D03*
%TD*%
D11*
%TO.C,SW4*%
X64900000Y-162800000D03*
X64900000Y-168800000D03*
X61200000Y-162800000D03*
X61200000Y-168800000D03*
%TD*%
D12*
%TO.C,D2*%
X96850000Y-80350000D03*
X98950000Y-80350000D03*
%TD*%
D13*
%TO.C,J3*%
X105650000Y-59650000D03*
D14*
X105650000Y-53850000D03*
D15*
X100850000Y-56650000D03*
%TD*%
D16*
%TO.C,C14*%
X87050000Y-68725000D03*
X87050000Y-71675000D03*
%TD*%
D17*
%TO.C,U16*%
X61055000Y-98525000D03*
X62325000Y-98525000D03*
X63595000Y-98525000D03*
X64865000Y-98525000D03*
X66135000Y-98525000D03*
X67405000Y-98525000D03*
X68675000Y-98525000D03*
X69945000Y-98525000D03*
X69945000Y-93575000D03*
X68675000Y-93575000D03*
X67405000Y-93575000D03*
X66135000Y-93575000D03*
X64865000Y-93575000D03*
X63595000Y-93575000D03*
X62325000Y-93575000D03*
X61055000Y-93575000D03*
%TD*%
D10*
%TO.C,R24*%
X121290000Y-80350000D03*
X121290000Y-82000000D03*
%TD*%
%TO.C,R46*%
X117140000Y-89050000D03*
X117140000Y-90700000D03*
%TD*%
D18*
%TO.C,C39*%
X91950000Y-153450000D03*
X91950000Y-151900000D03*
%TD*%
D19*
%TO.C,R40*%
X99075000Y-149150000D03*
X97425000Y-149150000D03*
%TD*%
D20*
%TO.C,R30*%
X129900000Y-72990000D03*
X129900000Y-74010000D03*
%TD*%
D21*
%TO.C,R64*%
X94375000Y-147600000D03*
X96025000Y-147600000D03*
%TD*%
D10*
%TO.C,R83*%
X61150000Y-146925000D03*
X61150000Y-148575000D03*
%TD*%
D22*
%TO.C,D6*%
X54087500Y-108450000D03*
X52212500Y-108450000D03*
%TD*%
D23*
%TO.C,J1*%
X57827500Y-92200000D03*
D24*
X57827500Y-94700000D03*
X57827500Y-96700000D03*
X57827500Y-99200000D03*
D25*
X55117500Y-89130000D03*
X55117500Y-102270000D03*
%TD*%
D19*
%TO.C,R61*%
X107775000Y-88800000D03*
X106125000Y-88800000D03*
%TD*%
D26*
%TO.C,J15*%
X103300000Y-135025000D03*
D27*
X103300000Y-137565000D03*
%TD*%
D10*
%TO.C,R51*%
X119025000Y-122925000D03*
X119025000Y-124575000D03*
%TD*%
D28*
%TO.C,U15*%
X60850000Y-137475000D03*
D29*
X58910000Y-140015000D03*
X59910000Y-140015000D03*
X60910000Y-140015000D03*
X61910000Y-140015000D03*
X62910000Y-140015000D03*
X62910000Y-134915000D03*
X61910000Y-134915000D03*
X60910000Y-134915000D03*
X59910000Y-134915000D03*
X58910000Y-134915000D03*
%TD*%
D30*
%TO.C,C36*%
X106075000Y-145250000D03*
X104525000Y-145250000D03*
%TD*%
D31*
%TO.C,R14*%
X66825000Y-154825000D03*
X66825000Y-153175000D03*
%TD*%
D17*
%TO.C,U13*%
X128245000Y-80875000D03*
X129515000Y-80875000D03*
X130785000Y-80875000D03*
X132055000Y-80875000D03*
X132055000Y-75925000D03*
X130785000Y-75925000D03*
X129515000Y-75925000D03*
X128245000Y-75925000D03*
%TD*%
D32*
%TO.C,C19*%
X112250000Y-92390000D03*
X112250000Y-91430000D03*
%TD*%
D20*
%TO.C,R29*%
X127000000Y-72990000D03*
X127000000Y-74010000D03*
%TD*%
D33*
%TO.C,C33*%
X101650000Y-143220000D03*
X101650000Y-144180000D03*
%TD*%
D34*
%TO.C,C15*%
X99550000Y-156275000D03*
X99550000Y-157825000D03*
%TD*%
D35*
%TO.C,H1*%
X55000000Y-55000000D03*
D36*
X55000000Y-55000000D03*
%TD*%
D30*
%TO.C,C35*%
X106075000Y-146800000D03*
X104525000Y-146800000D03*
%TD*%
D37*
%TO.C,J16*%
X78250000Y-166850000D03*
D38*
X83250000Y-166850000D03*
%TD*%
D39*
%TO.C,C20*%
X51550000Y-133750000D03*
X52510000Y-133750000D03*
%TD*%
D19*
%TO.C,R85*%
X57275000Y-138825000D03*
X55625000Y-138825000D03*
%TD*%
D18*
%TO.C,C22*%
X133350000Y-100775000D03*
X133350000Y-99225000D03*
%TD*%
D40*
%TO.C,Q6*%
X97050000Y-76310000D03*
D41*
X94764000Y-76310000D03*
D42*
X91600000Y-74410000D03*
X91600000Y-75680000D03*
X91600000Y-76950000D03*
X91600000Y-78220000D03*
%TD*%
D43*
%TO.C,C26*%
X131900000Y-69550000D03*
X131900000Y-67650000D03*
%TD*%
D34*
%TO.C,C34*%
X131600000Y-71175000D03*
X131600000Y-72725000D03*
%TD*%
D16*
%TO.C,C13*%
X89450000Y-68725000D03*
X89450000Y-71675000D03*
%TD*%
D44*
%TO.C,SW3*%
X61450000Y-63200000D03*
X61450000Y-68200000D03*
X61450000Y-65700000D03*
D45*
X68950000Y-60100000D03*
X68950000Y-71300000D03*
D46*
X75950000Y-63200000D03*
X75950000Y-68200000D03*
%TD*%
D19*
%TO.C,R31*%
X82125000Y-68000000D03*
X80475000Y-68000000D03*
%TD*%
D21*
%TO.C,R77*%
X92025000Y-121400000D03*
X93675000Y-121400000D03*
%TD*%
D47*
%TO.C,Q8*%
X131205000Y-90060000D03*
D48*
X131205000Y-92600000D03*
X131205000Y-95140000D03*
%TD*%
D18*
%TO.C,C6*%
X59350000Y-155300000D03*
X59350000Y-153750000D03*
%TD*%
D19*
%TO.C,R54*%
X116050000Y-119620000D03*
X114400000Y-119620000D03*
%TD*%
D21*
%TO.C,R82*%
X55725000Y-140600000D03*
X57375000Y-140600000D03*
%TD*%
D49*
%TO.C,U12*%
X53150000Y-153850000D03*
X84150000Y-153850000D03*
X53150000Y-77850000D03*
X84150000Y-77850000D03*
%TD*%
D50*
%TO.C,C37*%
X124980000Y-125050000D03*
X124020000Y-125050000D03*
%TD*%
D17*
%TO.C,U8*%
X117440000Y-131825000D03*
X118710000Y-131825000D03*
X119980000Y-131825000D03*
X121250000Y-131825000D03*
X122520000Y-131825000D03*
X123790000Y-131825000D03*
X125060000Y-131825000D03*
X125060000Y-126875000D03*
X123790000Y-126875000D03*
X122520000Y-126875000D03*
X121250000Y-126875000D03*
X119980000Y-126875000D03*
X118710000Y-126875000D03*
X117440000Y-126875000D03*
%TD*%
D37*
%TO.C,J7*%
X126635000Y-54200000D03*
D38*
X131635000Y-54200000D03*
%TD*%
D10*
%TO.C,R65*%
X93625000Y-123665000D03*
X93625000Y-125315000D03*
%TD*%
D51*
%TO.C,Q10*%
X132277500Y-106480000D03*
D52*
X132277500Y-111930000D03*
X132277500Y-117380000D03*
%TD*%
D37*
%TO.C,J8*%
X116100000Y-166450000D03*
D38*
X121100000Y-166450000D03*
%TD*%
D39*
%TO.C,C1*%
X113670000Y-133850000D03*
X114630000Y-133850000D03*
%TD*%
D19*
%TO.C,R39*%
X99075000Y-147600000D03*
X97425000Y-147600000D03*
%TD*%
D31*
%TO.C,R79*%
X113525000Y-93187500D03*
X113525000Y-91537500D03*
%TD*%
D53*
%TO.C,R5*%
X98140000Y-108550000D03*
X99160000Y-108550000D03*
%TD*%
D54*
%TO.C,R56*%
X63600000Y-102512500D03*
X63600000Y-100687500D03*
%TD*%
D10*
%TO.C,R12*%
X118690000Y-89050000D03*
X118690000Y-90700000D03*
%TD*%
D31*
%TO.C,R17*%
X72425000Y-153925000D03*
X72425000Y-152275000D03*
%TD*%
D55*
%TO.C,L2*%
X104650000Y-158350000D03*
X104650000Y-152350000D03*
%TD*%
D56*
%TO.C,D11*%
X56462500Y-82900000D03*
X58337500Y-82900000D03*
%TD*%
D35*
%TO.C,H4*%
X55000000Y-166000000D03*
D36*
X55000000Y-166000000D03*
%TD*%
D17*
%TO.C,U2*%
X112040000Y-87075000D03*
X113310000Y-87075000D03*
X114580000Y-87075000D03*
X115850000Y-87075000D03*
X117120000Y-87075000D03*
X118390000Y-87075000D03*
X119660000Y-87075000D03*
X119660000Y-82125000D03*
X118390000Y-82125000D03*
X117120000Y-82125000D03*
X115850000Y-82125000D03*
X114580000Y-82125000D03*
X113310000Y-82125000D03*
X112040000Y-82125000D03*
%TD*%
D40*
%TO.C,Q4*%
X104450000Y-76190000D03*
D41*
X102164000Y-76190000D03*
D42*
X99000000Y-74290000D03*
X99000000Y-75560000D03*
X99000000Y-76830000D03*
X99000000Y-78100000D03*
%TD*%
D13*
%TO.C,J4*%
X130200000Y-160700000D03*
D14*
X130200000Y-166500000D03*
D15*
X135000000Y-163700000D03*
%TD*%
D31*
%TO.C,R9*%
X62450000Y-155350000D03*
X62450000Y-153700000D03*
%TD*%
D10*
%TO.C,R20*%
X98550000Y-82025000D03*
X98550000Y-83675000D03*
%TD*%
D51*
%TO.C,Q3*%
X132317500Y-130800000D03*
D52*
X132317500Y-136250000D03*
X132317500Y-141700000D03*
%TD*%
D34*
%TO.C,C23*%
X65150000Y-100675000D03*
X65150000Y-102225000D03*
%TD*%
D57*
%TO.C,U18*%
X107790000Y-85005000D03*
D58*
X105250000Y-85005000D03*
X102710000Y-85005000D03*
%TD*%
D34*
%TO.C,C21*%
X121150000Y-133925000D03*
X121150000Y-135475000D03*
%TD*%
D30*
%TO.C,C41*%
X99125000Y-96450000D03*
X97575000Y-96450000D03*
%TD*%
D19*
%TO.C,R53*%
X116050000Y-121150000D03*
X114400000Y-121150000D03*
%TD*%
%TO.C,R66*%
X104400000Y-127490000D03*
X102750000Y-127490000D03*
%TD*%
D59*
%TO.C,D4*%
X130900000Y-100600000D03*
X126900000Y-100600000D03*
%TD*%
D19*
%TO.C,R78*%
X95600000Y-117740000D03*
X93950000Y-117740000D03*
%TD*%
D21*
%TO.C,R62*%
X103075000Y-88800000D03*
X104725000Y-88800000D03*
%TD*%
D60*
%TO.C,C40*%
X90150000Y-151675000D03*
X90150000Y-153575000D03*
%TD*%
D61*
%TO.C,U5*%
X99610000Y-110102500D03*
X97710000Y-110102500D03*
X98660000Y-111977500D03*
%TD*%
D62*
%TO.C,FID2*%
X145000000Y-160050000D03*
%TD*%
D10*
%TO.C,R43*%
X115925000Y-122925000D03*
X115925000Y-124575000D03*
%TD*%
D33*
%TO.C,C4*%
X96350000Y-106870000D03*
X96350000Y-107830000D03*
%TD*%
D63*
%TO.C,U9*%
X90725000Y-146662500D03*
X91375000Y-146662500D03*
X92025000Y-146662500D03*
X92675000Y-146662500D03*
X92675000Y-142437500D03*
X92025000Y-142437500D03*
X91375000Y-142437500D03*
X90725000Y-142437500D03*
%TD*%
D64*
%TO.C,R60*%
X124587500Y-93970000D03*
X127512500Y-93970000D03*
%TD*%
D30*
%TO.C,C5*%
X96200000Y-105650000D03*
X94650000Y-105650000D03*
%TD*%
D65*
%TO.C,D8*%
X60450000Y-143250000D03*
X63950000Y-143250000D03*
%TD*%
D50*
%TO.C,C3*%
X124880000Y-133700000D03*
X123920000Y-133700000D03*
%TD*%
D66*
%TO.C,R48*%
X108830000Y-143312500D03*
X108830000Y-140387500D03*
%TD*%
D10*
%TO.C,R26*%
X111890000Y-78250000D03*
X111890000Y-79900000D03*
%TD*%
D67*
%TO.C,C8*%
X101650000Y-90750000D03*
X99750000Y-90750000D03*
%TD*%
D21*
%TO.C,R69*%
X102750000Y-124390000D03*
X104400000Y-124390000D03*
%TD*%
D19*
%TO.C,R67*%
X104350000Y-120740000D03*
X102700000Y-120740000D03*
%TD*%
D33*
%TO.C,C16*%
X89400000Y-145790000D03*
X89400000Y-146750000D03*
%TD*%
D65*
%TO.C,D9*%
X55000000Y-144100000D03*
X58500000Y-144100000D03*
%TD*%
D19*
%TO.C,R68*%
X104400000Y-125940000D03*
X102750000Y-125940000D03*
%TD*%
D68*
%TO.C,Q1*%
X70550000Y-155200000D03*
X70550000Y-153300000D03*
X68675000Y-154250000D03*
%TD*%
D31*
%TO.C,R27*%
X125000000Y-136525000D03*
X125000000Y-134875000D03*
%TD*%
D39*
%TO.C,C17*%
X127920000Y-74000000D03*
X128880000Y-74000000D03*
%TD*%
D32*
%TO.C,C2*%
X96350000Y-111780000D03*
X96350000Y-110820000D03*
%TD*%
D37*
%TO.C,J11*%
X115735000Y-69050000D03*
D38*
X120735000Y-69050000D03*
%TD*%
D55*
%TO.C,L1*%
X97850000Y-71950000D03*
X97850000Y-65950000D03*
%TD*%
D69*
%TO.C,R35*%
X60350000Y-112360000D03*
X60350000Y-111340000D03*
%TD*%
D31*
%TO.C,R75*%
X95200000Y-94525000D03*
X95200000Y-92875000D03*
%TD*%
D69*
%TO.C,R80*%
X59300000Y-112360000D03*
X59300000Y-111340000D03*
%TD*%
D70*
%TO.C,R57*%
X57512500Y-110450000D03*
X55687500Y-110450000D03*
%TD*%
D31*
%TO.C,R19*%
X97000000Y-83675000D03*
X97000000Y-82025000D03*
%TD*%
D66*
%TO.C,R45*%
X106500000Y-143312500D03*
X106500000Y-140387500D03*
%TD*%
D71*
%TO.C,C9*%
X103825000Y-69600000D03*
X106775000Y-69600000D03*
%TD*%
D11*
%TO.C,SW1*%
X72272500Y-162805000D03*
X72272500Y-168805000D03*
X68572500Y-162805000D03*
X68572500Y-168805000D03*
%TD*%
D72*
%TO.C,D3*%
X94000000Y-80400000D03*
X91900000Y-80400000D03*
%TD*%
D73*
%TO.C,U19*%
X100750000Y-127000000D03*
X100750000Y-125730000D03*
X100750000Y-124460000D03*
X100750000Y-123190000D03*
X100750000Y-121920000D03*
X100750000Y-120650000D03*
X100750000Y-119380000D03*
X95800000Y-119380000D03*
X95800000Y-120650000D03*
X95800000Y-121920000D03*
X95800000Y-123190000D03*
X95800000Y-124460000D03*
X95800000Y-125730000D03*
X95800000Y-127000000D03*
%TD*%
D21*
%TO.C,R74*%
X88950000Y-122090000D03*
X90600000Y-122090000D03*
%TD*%
D64*
%TO.C,R25*%
X124587500Y-91650000D03*
X127512500Y-91650000D03*
%TD*%
D74*
%TO.C,D1*%
X97600000Y-87250000D03*
X97600000Y-90550000D03*
%TD*%
D70*
%TO.C,R58*%
X58462500Y-108500000D03*
X56637500Y-108500000D03*
%TD*%
D19*
%TO.C,R8*%
X54995000Y-82945000D03*
X53345000Y-82945000D03*
%TD*%
D30*
%TO.C,C30*%
X52805000Y-136600000D03*
X51255000Y-136600000D03*
%TD*%
D75*
%TO.C,HS1*%
X138217500Y-154700000D03*
X148217500Y-154700000D03*
X138217500Y-61700000D03*
X148217500Y-61700000D03*
%TD*%
D31*
%TO.C,R70*%
X89025000Y-120615000D03*
X89025000Y-118965000D03*
%TD*%
D76*
%TO.C,TP1*%
X87350000Y-145250000D03*
%TD*%
D21*
%TO.C,R84*%
X54375000Y-142150000D03*
X56025000Y-142150000D03*
%TD*%
D66*
%TO.C,R73*%
X87150000Y-66612500D03*
X87150000Y-63687500D03*
%TD*%
D18*
%TO.C,C7*%
X64000000Y-155325000D03*
X64000000Y-153775000D03*
%TD*%
D77*
%TO.C,U10*%
X110925000Y-91487500D03*
X110275000Y-91487500D03*
X109625000Y-91487500D03*
X108975000Y-91487500D03*
X108975000Y-95712500D03*
X109625000Y-95712500D03*
X110275000Y-95712500D03*
X110925000Y-95712500D03*
%TD*%
D18*
%TO.C,C25*%
X61750000Y-86725000D03*
X61750000Y-85175000D03*
%TD*%
D31*
%TO.C,R1*%
X123500000Y-136525000D03*
X123500000Y-134875000D03*
%TD*%
%TO.C,R41*%
X106200000Y-131925000D03*
X106200000Y-130275000D03*
%TD*%
D37*
%TO.C,J5*%
X101030000Y-167000000D03*
D38*
X96030000Y-167000000D03*
%TD*%
D78*
%TO.C,U3*%
X51470000Y-132050000D03*
X52740000Y-132050000D03*
X54010000Y-132050000D03*
X55280000Y-132050000D03*
X56550000Y-132050000D03*
X57820000Y-132050000D03*
X59090000Y-132050000D03*
X60360000Y-132050000D03*
X61630000Y-132050000D03*
X62900000Y-132050000D03*
X64170000Y-132050000D03*
X65440000Y-132050000D03*
X66710000Y-132050000D03*
X67980000Y-132050000D03*
D79*
X69230000Y-130285000D03*
X69230000Y-129015000D03*
X69230000Y-127745000D03*
X69230000Y-126475000D03*
X69230000Y-125205000D03*
X69230000Y-123935000D03*
X69230000Y-122665000D03*
X69230000Y-121395000D03*
X69230000Y-120125000D03*
X69230000Y-118855000D03*
X69230000Y-117585000D03*
X69230000Y-116315000D03*
D78*
X67980000Y-114550000D03*
X66710000Y-114550000D03*
X65440000Y-114550000D03*
X64170000Y-114550000D03*
X62900000Y-114550000D03*
X61630000Y-114550000D03*
X60360000Y-114550000D03*
X59090000Y-114550000D03*
X57820000Y-114550000D03*
X56550000Y-114550000D03*
X55280000Y-114550000D03*
X54010000Y-114550000D03*
X52740000Y-114550000D03*
X51470000Y-114550000D03*
D80*
X57790000Y-126200000D03*
X59190000Y-126200000D03*
X60590000Y-126200000D03*
X60590000Y-126200000D03*
X57790000Y-124800000D03*
X57790000Y-124800000D03*
X59190000Y-124800000D03*
X60590000Y-124800000D03*
X57790000Y-123400000D03*
X59190000Y-123400000D03*
X60590000Y-123400000D03*
%TD*%
D35*
%TO.C,H3*%
X146000000Y-166000000D03*
D36*
X146000000Y-166000000D03*
%TD*%
D68*
%TO.C,Q2*%
X70550000Y-151750000D03*
X70550000Y-149850000D03*
X68675000Y-150800000D03*
%TD*%
D31*
%TO.C,R42*%
X117450000Y-135525000D03*
X117450000Y-133875000D03*
%TD*%
D69*
%TO.C,R4*%
X96350000Y-109760000D03*
X96350000Y-108740000D03*
%TD*%
D10*
%TO.C,R52*%
X117475000Y-122900000D03*
X117475000Y-124550000D03*
%TD*%
D19*
%TO.C,R11*%
X119765000Y-80075000D03*
X118115000Y-80075000D03*
%TD*%
D73*
%TO.C,U4*%
X103175000Y-107245000D03*
X103175000Y-105975000D03*
X103175000Y-104705000D03*
X103175000Y-103435000D03*
X103175000Y-102165000D03*
X103175000Y-100895000D03*
X103175000Y-99625000D03*
X103175000Y-98355000D03*
X98225000Y-98355000D03*
X98225000Y-99625000D03*
X98225000Y-100895000D03*
X98225000Y-102165000D03*
X98225000Y-103435000D03*
X98225000Y-104705000D03*
X98225000Y-105975000D03*
X98225000Y-107245000D03*
%TD*%
D37*
%TO.C,J6*%
X94650000Y-53950000D03*
D38*
X89650000Y-53950000D03*
%TD*%
D81*
%TO.C,J14*%
X53400000Y-147830000D03*
X54300000Y-147830000D03*
X55200000Y-147830000D03*
X56100000Y-147830000D03*
X57000000Y-147830000D03*
X57900000Y-147830000D03*
X58800000Y-147830000D03*
X58350000Y-148610000D03*
X57450000Y-148610000D03*
X56550000Y-148610000D03*
X55650000Y-148610000D03*
X54750000Y-148610000D03*
X53850000Y-148610000D03*
X52950000Y-148610000D03*
D82*
X58350000Y-146790000D03*
X53400000Y-146790000D03*
X58350000Y-149650000D03*
X53400000Y-149650000D03*
%TD*%
D31*
%TO.C,R36*%
X104650000Y-130975000D03*
X104650000Y-129325000D03*
%TD*%
D10*
%TO.C,R81*%
X54100000Y-138775000D03*
X54100000Y-140425000D03*
%TD*%
D21*
%TO.C,R38*%
X100475000Y-149150000D03*
X102125000Y-149150000D03*
%TD*%
D31*
%TO.C,R21*%
X92100000Y-83725000D03*
X92100000Y-82075000D03*
%TD*%
D34*
%TO.C,C11*%
X115590000Y-89100000D03*
X115590000Y-90650000D03*
%TD*%
D83*
%TO.C,R49*%
X104710000Y-142600000D03*
X103690000Y-142600000D03*
%TD*%
D26*
%TO.C,J13*%
X101975000Y-93700000D03*
D27*
X99435000Y-93700000D03*
%TD*%
D84*
%TO.C,R28*%
X129925000Y-71200000D03*
X127000000Y-71200000D03*
%TD*%
D10*
%TO.C,R23*%
X93650000Y-82075000D03*
X93650000Y-83725000D03*
%TD*%
D85*
%TO.C,JP2*%
X58000000Y-80550000D03*
D86*
X56700000Y-80550000D03*
%TD*%
D26*
%TO.C,J9*%
X108550000Y-78360000D03*
D27*
X108550000Y-80900000D03*
%TD*%
D56*
%TO.C,D12*%
X56462500Y-84895000D03*
X58337500Y-84895000D03*
%TD*%
D19*
%TO.C,R71*%
X93750000Y-119340000D03*
X92100000Y-119340000D03*
%TD*%
D10*
%TO.C,R7*%
X123700000Y-122175000D03*
X123700000Y-123825000D03*
%TD*%
D83*
%TO.C,R50*%
X104060000Y-141500000D03*
X103040000Y-141500000D03*
%TD*%
D67*
%TO.C,C12*%
X97650000Y-85450000D03*
X95750000Y-85450000D03*
%TD*%
D31*
%TO.C,R55*%
X120240000Y-90700000D03*
X120240000Y-89050000D03*
%TD*%
D87*
%TO.C,U14*%
X94875000Y-140395000D03*
X94875000Y-141665000D03*
X94875000Y-142935000D03*
X94875000Y-144205000D03*
X99825000Y-144205000D03*
X99825000Y-142935000D03*
X99825000Y-141665000D03*
X99825000Y-140395000D03*
%TD*%
D19*
%TO.C,R10*%
X54995000Y-84895000D03*
X53345000Y-84895000D03*
%TD*%
D31*
%TO.C,R44*%
X120575000Y-124575000D03*
X120575000Y-122925000D03*
%TD*%
D18*
%TO.C,C24*%
X61700000Y-89925000D03*
X61700000Y-88375000D03*
%TD*%
D26*
%TO.C,J2*%
X60250000Y-158700000D03*
D27*
X62790000Y-158700000D03*
X65330000Y-158700000D03*
X67870000Y-158700000D03*
X70410000Y-158700000D03*
X72950000Y-158700000D03*
%TD*%
D88*
%TO.C,C45*%
X102800000Y-122840000D03*
X104350000Y-122840000D03*
%TD*%
D10*
%TO.C,R2*%
X122200000Y-122925000D03*
X122200000Y-124575000D03*
%TD*%
D89*
%TO.C,U1*%
X114512500Y-132525000D03*
X114512500Y-131875000D03*
X114512500Y-131225000D03*
X114512500Y-130575000D03*
X110287500Y-130575000D03*
X110287500Y-131225000D03*
X110287500Y-131875000D03*
X110287500Y-132525000D03*
%TD*%
D31*
%TO.C,R76*%
X96700000Y-94525000D03*
X96700000Y-92875000D03*
%TD*%
D10*
%TO.C,R6*%
X119550000Y-133875000D03*
X119550000Y-135525000D03*
%TD*%
D22*
%TO.C,D5*%
X54087500Y-110450000D03*
X52212500Y-110450000D03*
%TD*%
D21*
%TO.C,R37*%
X90225000Y-150050000D03*
X91875000Y-150050000D03*
%TD*%
D10*
%TO.C,R15*%
X125250000Y-122175000D03*
X125250000Y-123825000D03*
%TD*%
D13*
%TO.C,J10*%
X117950000Y-59550000D03*
D14*
X117950000Y-53750000D03*
D15*
X113150000Y-56550000D03*
%TD*%
D31*
%TO.C,R32*%
X114990000Y-79950000D03*
X114990000Y-78300000D03*
%TD*%
D32*
%TO.C,C47*%
X58650000Y-142280000D03*
X58650000Y-141320000D03*
%TD*%
D90*
%TO.C,Q7*%
X117750000Y-119500000D03*
X117750000Y-121400000D03*
X119625000Y-120450000D03*
%TD*%
D39*
%TO.C,C18*%
X130940000Y-74150000D03*
X131900000Y-74150000D03*
%TD*%
D31*
%TO.C,R72*%
X90525000Y-120615000D03*
X90525000Y-118965000D03*
%TD*%
D30*
%TO.C,C29*%
X52830000Y-135050000D03*
X51280000Y-135050000D03*
%TD*%
D33*
%TO.C,C32*%
X101650000Y-140570000D03*
X101650000Y-141530000D03*
%TD*%
D60*
%TO.C,C42*%
X104900000Y-92050000D03*
X104900000Y-93950000D03*
%TD*%
D50*
%TO.C,C38*%
X101680000Y-150350000D03*
X100720000Y-150350000D03*
%TD*%
D35*
%TO.C,H2*%
X146000000Y-55000000D03*
D36*
X146000000Y-55000000D03*
%TD*%
D19*
%TO.C,R63*%
X104825000Y-90500000D03*
X103175000Y-90500000D03*
%TD*%
D91*
%TO.C,Q5*%
X55450000Y-137000000D03*
X57350000Y-137000000D03*
X56400000Y-135125000D03*
%TD*%
D31*
%TO.C,R3*%
X60900000Y-155350000D03*
X60900000Y-153700000D03*
%TD*%
D84*
%TO.C,R59*%
X129925000Y-68850000D03*
X127000000Y-68850000D03*
%TD*%
D31*
%TO.C,R34*%
X95950000Y-99550000D03*
X95950000Y-97900000D03*
%TD*%
D10*
%TO.C,R16*%
X66845000Y-150125000D03*
X66845000Y-151775000D03*
%TD*%
D31*
%TO.C,R33*%
X113440000Y-79950000D03*
X113440000Y-78300000D03*
%TD*%
D71*
%TO.C,C10*%
X103827651Y-72100000D03*
X106777651Y-72100000D03*
%TD*%
D92*
%TO.C,D7*%
X93200000Y-157200000D03*
X97200000Y-157200000D03*
%TD*%
D73*
%TO.C,U11*%
X98925000Y-154555000D03*
X98925000Y-153285000D03*
X98925000Y-152015000D03*
X98925000Y-150745000D03*
X93975000Y-150745000D03*
X93975000Y-152015000D03*
X93975000Y-153285000D03*
X93975000Y-154555000D03*
D93*
X96450000Y-152650000D03*
%TD*%
D94*
%TO.C,U17*%
X63850000Y-84950000D03*
X63850000Y-87250000D03*
D95*
X70150000Y-87250000D03*
D94*
X63850000Y-89550000D03*
%TD*%
D96*
%TO.C,J12*%
X83500000Y-83600000D03*
X86000000Y-91200000D03*
X81000000Y-91200000D03*
D97*
X86000000Y-139333000D03*
X81000000Y-139333000D03*
X83500000Y-146933000D03*
%TD*%
D98*
%TO.C,R47*%
X127234205Y-141584205D03*
D99*
X112865795Y-127215795D03*
%TD*%
D100*
%TO.C,R13*%
X56490000Y-160000000D03*
D101*
X51410000Y-160000000D03*
%TD*%
D102*
%TO.C,C28*%
X104467397Y-149237437D03*
D100*
X101992523Y-146762563D03*
%TD*%
D98*
%TO.C,R22*%
X132260000Y-121400000D03*
D103*
X111940000Y-121400000D03*
%TD*%
D104*
%TO.C,C27*%
X127702651Y-156900000D03*
D100*
X124202651Y-156900000D03*
%TD*%
D104*
%TO.C,C31*%
X109647349Y-150200000D03*
D100*
X113147349Y-150200000D03*
%TD*%
D104*
%TO.C,C44*%
X104197349Y-66550000D03*
D100*
X107697349Y-66550000D03*
%TD*%
D104*
%TO.C,C43*%
X92050000Y-68647349D03*
D100*
X92050000Y-72147349D03*
%TD*%
D105*
X151000000Y-55000000D02*
G75*
G03*
X146000000Y-50000000I-5000000J0D01*
G01*
X50000000Y-55000000D02*
X50000000Y-166000000D01*
X50000000Y-166000000D02*
G75*
G03*
X55000000Y-171000000I5000000J0D01*
G01*
X146000000Y-171000000D02*
G75*
G03*
X151000000Y-166000000I0J5000000D01*
G01*
X55000000Y-50000000D02*
G75*
G03*
X50000000Y-55000000I0J-5000000D01*
G01*
X55000000Y-171000000D02*
X146000000Y-171000000D01*
X146000000Y-50000000D02*
X55000000Y-50000000D01*
X151000000Y-166000000D02*
X151000000Y-55000000D01*
M02*
