M48
; DRILL file {KiCad 7.0.8} date Tue Oct 31 22:14:00 2023
; FORMAT={-:-/ absolute / metric / decimal}
; #@! TF.CreationDate,2023-10-31T22:14:00+02:00
; #@! TF.GenerationSoftware,Kicad,Pcbnew,7.0.8
; #@! TF.FileFunction,Plated,1,2,PTH
FMAT,2
METRIC
; #@! TA.AperFunction,Plated,PTH,ViaDrill
T1C0.300
; #@! TA.AperFunction,Plated,PTH,ComponentDrill
T2C0.300
; #@! TA.AperFunction,Plated,PTH,ComponentDrill
T3C0.400
; #@! TA.AperFunction,Plated,PTH,ComponentDrill
T4C0.600
; #@! TA.AperFunction,Plated,PTH,ComponentDrill
T5C0.800
; #@! TA.AperFunction,Plated,PTH,ComponentDrill
T6C0.920
; #@! TA.AperFunction,Plated,PTH,ComponentDrill
T7C1.000
; #@! TA.AperFunction,Plated,PTH,ComponentDrill
T8C1.100
; #@! TA.AperFunction,Plated,PTH,ComponentDrill
T9C1.200
; #@! TA.AperFunction,Plated,PTH,ComponentDrill
T10C1.320
; #@! TA.AperFunction,Plated,PTH,ViaDrill
T11C1.500
; #@! TA.AperFunction,Plated,PTH,ComponentDrill
T12C1.500
; #@! TA.AperFunction,Plated,PTH,ComponentDrill
T13C2.300
; #@! TA.AperFunction,Plated,PTH,ComponentDrill
T14C3.200
%
G90
G05
T1
X50.724Y-135.05
X50.724Y-136.6
X50.85Y-133.75
X51.103Y-54.215
X51.103Y-57.215
X51.103Y-60.215
X51.103Y-63.215
X51.103Y-66.215
X51.103Y-69.215
X51.103Y-72.215
X51.103Y-75.215
X51.103Y-81.215
X51.103Y-84.215
X51.103Y-87.215
X51.103Y-90.215
X51.103Y-93.215
X51.103Y-96.215
X51.103Y-99.215
X51.103Y-102.215
X51.103Y-105.215
X51.103Y-108.215
X51.103Y-111.215
X51.103Y-126.215
X51.103Y-129.215
X51.103Y-162.215
X51.103Y-165.215
X51.255Y-135.8
X51.45Y-113.3
X51.45Y-115.75
X51.45Y-117.15
X51.45Y-118.95
X51.45Y-120.85
X51.45Y-122.8
X51.45Y-130.45
X51.45Y-138.6
X51.5Y-127.35
X51.55Y-125.0
X51.85Y-140.45
X52.212Y-109.45
X52.225Y-137.825
X52.25Y-139.1
X52.5Y-142.75
X53.15Y-107.0
X53.15Y-158.1
X53.55Y-117.85
X54.103Y-51.215
X54.103Y-60.215
X54.103Y-63.215
X54.103Y-66.215
X54.103Y-69.215
X54.103Y-72.215
X54.103Y-93.215
X54.103Y-96.215
X54.103Y-99.215
X54.103Y-105.215
X54.103Y-162.215
X54.65Y-127.7
X54.7Y-130.0
X54.75Y-122.7
X54.75Y-124.9
X54.8Y-120.0
X55.2Y-81.75
X55.2Y-116.15
X56.0Y-118.5
X56.2Y-133.6
X56.6Y-107.25
X57.103Y-51.215
X57.103Y-60.215
X57.103Y-63.215
X57.103Y-66.215
X57.103Y-69.215
X57.103Y-72.215
X57.103Y-75.215
X57.103Y-78.215
X57.103Y-105.215
X57.103Y-144.215
X57.103Y-162.215
X57.275Y-138.0
X57.65Y-117.5
X57.8Y-124.1
X57.8Y-125.5
X57.85Y-128.5
X57.85Y-133.55
X58.0Y-120.9
X58.0Y-142.3
X58.45Y-126.25
X58.5Y-123.4
X58.5Y-124.8
X58.6Y-153.15
X59.15Y-80.55
X59.2Y-124.1
X59.2Y-125.5
X59.45Y-141.25
X59.85Y-97.5
X59.9Y-123.4
X59.9Y-124.8
X59.9Y-126.2
X60.103Y-51.215
X60.103Y-54.215
X60.103Y-57.215
X60.103Y-60.215
X60.103Y-72.215
X60.103Y-75.215
X60.103Y-78.215
X60.103Y-93.215
X60.103Y-102.215
X60.103Y-147.215
X60.103Y-162.215
X60.103Y-165.215
X60.103Y-168.215
X60.45Y-141.4
X60.5Y-117.35
X60.6Y-124.1
X60.6Y-125.5
X60.65Y-109.65
X60.8Y-85.2
X60.85Y-87.95
X60.85Y-88.85
X60.95Y-133.95
X61.05Y-84.35
X61.05Y-99.95
X61.05Y-119.8
X61.1Y-150.0
X61.15Y-108.75
X61.5Y-109.65
X61.65Y-152.8
X61.65Y-153.7
X62.0Y-149.95
X62.05Y-145.8
X62.2Y-109.65
X62.3Y-146.9
X62.4Y-121.8
X62.55Y-108.75
X62.786Y-147.748
X62.9Y-109.65
X62.9Y-135.85
X62.95Y-117.3
X63.103Y-51.215
X63.103Y-54.215
X63.103Y-57.215
X63.103Y-60.215
X63.103Y-63.215
X63.103Y-66.215
X63.103Y-69.215
X63.103Y-72.215
X63.103Y-78.215
X63.103Y-81.215
X63.103Y-105.215
X63.103Y-120.215
X63.103Y-123.215
X63.103Y-126.215
X63.103Y-162.215
X63.103Y-165.215
X63.103Y-168.215
X63.25Y-83.45
X63.35Y-127.45
X64.0Y-152.85
X64.2Y-83.45
X64.35Y-91.6
X64.4Y-136.05
X64.45Y-123.65
X64.75Y-156.6
X64.85Y-138.5
X64.9Y-133.85
X64.9Y-161.75
X65.0Y-135.0
X65.05Y-120.2
X65.1Y-103.2
X65.2Y-142.45
X65.2Y-143.2
X65.2Y-144.0
X65.35Y-149.95
X65.6Y-137.3
X65.65Y-129.6
X66.0Y-134.5
X66.103Y-51.215
X66.103Y-54.215
X66.103Y-57.215
X66.103Y-63.215
X66.103Y-66.215
X66.103Y-69.215
X66.103Y-123.215
X66.103Y-126.215
X66.103Y-165.215
X66.103Y-168.215
X66.25Y-117.2
X66.45Y-133.6
X66.75Y-138.0
X67.0Y-106.9
X67.0Y-127.4
X67.0Y-129.55
X67.1Y-125.15
X67.2Y-77.85
X67.233Y-118.72
X67.3Y-156.85
X67.5Y-122.2
X67.6Y-152.45
X67.7Y-106.2
X67.7Y-135.45
X67.75Y-96.45
X67.75Y-103.4
X67.75Y-133.5
X67.8Y-116.15
X67.85Y-130.6
X68.35Y-112.9
X68.45Y-149.6
X68.6Y-106.8
X68.6Y-133.7
X69.013Y-153.188
X69.103Y-51.215
X69.103Y-54.215
X69.103Y-63.215
X69.103Y-66.215
X69.103Y-75.215
X69.103Y-114.215
X69.103Y-135.215
X69.103Y-141.215
X69.103Y-144.215
X69.103Y-147.215
X69.35Y-100.2
X69.45Y-105.6
X70.6Y-95.4
X70.65Y-123.9
X70.8Y-96.6
X70.8Y-100.45
X70.85Y-94.15
X70.95Y-130.6
X71.1Y-127.35
X71.4Y-124.6
X71.5Y-123.05
X71.7Y-145.75
X72.0Y-101.8
X72.05Y-156.45
X72.1Y-120.4
X72.103Y-51.215
X72.103Y-54.215
X72.103Y-57.215
X72.103Y-60.215
X72.103Y-63.215
X72.103Y-66.215
X72.103Y-69.215
X72.103Y-72.215
X72.103Y-75.215
X72.103Y-78.215
X72.103Y-111.215
X72.103Y-114.215
X72.103Y-117.215
X72.103Y-132.215
X72.103Y-138.215
X72.2Y-133.35
X72.3Y-143.45
X72.3Y-161.85
X72.425Y-147.6
X73.05Y-104.9
X73.4Y-96.4
X73.55Y-121.4
X73.65Y-95.4
X73.75Y-146.3
X73.75Y-156.4
X74.1Y-144.75
X74.3Y-124.85
X74.35Y-120.2
X74.4Y-147.15
X74.45Y-123.9
X74.45Y-142.95
X74.85Y-158.15
X75.1Y-147.85
X75.103Y-51.215
X75.103Y-54.215
X75.103Y-57.215
X75.103Y-60.215
X75.103Y-66.215
X75.103Y-72.215
X75.103Y-75.215
X75.103Y-78.215
X75.103Y-96.215
X75.103Y-99.215
X75.103Y-102.215
X75.103Y-108.215
X75.103Y-111.215
X75.103Y-114.215
X75.103Y-117.215
X75.103Y-126.215
X75.103Y-129.215
X75.103Y-132.215
X75.103Y-135.215
X75.103Y-162.215
X75.103Y-165.215
X75.103Y-168.215
X75.15Y-145.85
X75.15Y-149.65
X76.0Y-124.75
X76.05Y-140.95
X76.15Y-145.25
X76.2Y-148.2
X76.55Y-136.65
X76.6Y-94.7
X77.0Y-141.95
X77.1Y-124.3
X77.15Y-150.0
X77.25Y-122.4
X77.825Y-93.475
X78.1Y-123.7
X78.1Y-147.55
X78.103Y-51.215
X78.103Y-54.215
X78.103Y-57.215
X78.103Y-60.215
X78.103Y-63.215
X78.103Y-66.215
X78.103Y-99.215
X78.103Y-102.215
X78.103Y-108.215
X78.103Y-111.215
X78.103Y-114.215
X78.103Y-129.215
X78.103Y-132.215
X78.103Y-135.215
X78.103Y-153.215
X78.103Y-156.215
X78.103Y-162.215
X78.143Y-141.887
X78.9Y-148.55
X80.931Y-132.095
X81.103Y-51.215
X81.103Y-54.215
X81.103Y-57.215
X81.103Y-60.215
X81.103Y-63.215
X81.103Y-72.215
X81.103Y-75.215
X81.103Y-81.215
X81.103Y-84.215
X81.103Y-87.215
X81.103Y-93.215
X81.103Y-96.215
X81.103Y-102.215
X81.103Y-108.215
X81.103Y-111.215
X81.103Y-120.215
X81.103Y-123.215
X81.103Y-126.215
X81.103Y-147.215
X81.103Y-150.215
X81.103Y-156.215
X81.103Y-159.215
X81.103Y-165.215
X81.103Y-168.215
X82.1Y-68.95
X82.15Y-67.0
X83.55Y-136.25
X83.6Y-103.0
X84.103Y-51.215
X84.103Y-54.215
X84.103Y-57.215
X84.103Y-60.215
X84.103Y-63.215
X84.103Y-81.215
X84.103Y-87.215
X84.103Y-93.215
X84.103Y-96.215
X84.103Y-99.215
X84.103Y-108.215
X84.103Y-117.215
X84.103Y-120.215
X84.103Y-123.215
X84.103Y-126.215
X84.103Y-132.215
X84.103Y-150.215
X84.103Y-159.215
X84.103Y-162.215
X84.525Y-103.375
X84.75Y-133.85
X85.1Y-104.05
X85.5Y-101.25
X85.6Y-104.85
X86.25Y-73.0
X86.385Y-101.565
X86.5Y-73.95
X86.9Y-103.45
X86.95Y-73.05
X87.05Y-102.1
X87.103Y-51.215
X87.103Y-54.215
X87.103Y-87.215
X87.103Y-93.215
X87.103Y-96.215
X87.103Y-99.215
X87.103Y-114.215
X87.103Y-117.215
X87.103Y-123.215
X87.103Y-126.215
X87.103Y-132.215
X87.103Y-141.215
X87.103Y-150.215
X87.103Y-156.215
X87.103Y-159.215
X87.103Y-162.215
X87.103Y-165.215
X87.103Y-168.215
X87.312Y-73.842
X87.4Y-107.05
X87.75Y-73.05
X88.1Y-120.6
X88.1Y-122.05
X88.1Y-147.5
X88.164Y-73.897
X88.5Y-151.65
X88.55Y-73.05
X88.6Y-96.65
X88.6Y-100.2
X88.6Y-106.55
X88.7Y-105.2
X88.75Y-132.75
X88.75Y-145.8
X88.8Y-150.05
X89.05Y-73.85
X89.2Y-138.95
X89.4Y-73.0
X89.4Y-97.55
X89.7Y-74.65
X89.8Y-75.65
X89.8Y-78.0
X89.85Y-76.85
X89.9Y-73.8
X90.0Y-147.65
X90.05Y-96.5
X90.05Y-146.75
X90.103Y-51.215
X90.103Y-57.215
X90.103Y-60.215
X90.103Y-63.215
X90.103Y-66.215
X90.103Y-81.215
X90.103Y-84.215
X90.103Y-114.215
X90.103Y-123.215
X90.103Y-126.215
X90.103Y-132.215
X90.103Y-165.215
X90.103Y-168.215
X90.15Y-142.4
X90.25Y-73.0
X90.3Y-109.35
X90.45Y-77.5
X90.5Y-76.25
X90.55Y-74.15
X90.55Y-75.0
X90.65Y-98.1
X90.65Y-117.6
X90.7Y-111.25
X90.75Y-95.5
X90.85Y-104.15
X90.95Y-73.45
X91.4Y-107.85
X91.45Y-101.3
X91.55Y-102.15
X92.0Y-120.4
X92.2Y-107.15
X92.25Y-100.95
X92.4Y-123.65
X92.75Y-112.2
X92.9Y-117.45
X93.05Y-108.65
X93.103Y-51.215
X93.103Y-57.215
X93.103Y-60.215
X93.103Y-63.215
X93.103Y-87.215
X93.103Y-90.215
X93.103Y-132.215
X93.103Y-168.215
X93.15Y-107.0
X93.2Y-149.3
X93.3Y-92.2
X93.35Y-141.8
X93.4Y-140.35
X93.45Y-113.95
X93.5Y-85.1
X93.5Y-102.8
X93.55Y-112.95
X93.65Y-100.95
X93.75Y-111.0
X93.8Y-109.25
X93.95Y-97.15
X94.2Y-89.15
X94.2Y-100.2
X94.4Y-101.5
X94.45Y-123.2
X95.2Y-95.45
X95.2Y-102.15
X95.2Y-146.4
X95.3Y-106.7
X95.3Y-111.3
X95.45Y-91.9
X95.55Y-116.0
X95.7Y-83.75
X95.75Y-136.25
X95.85Y-155.75
X96.0Y-145.7
X96.103Y-51.215
X96.103Y-57.215
X96.103Y-60.215
X96.103Y-63.215
X96.103Y-69.215
X96.103Y-87.215
X96.103Y-132.215
X96.103Y-162.215
X96.25Y-116.65
X96.25Y-149.3
X96.5Y-112.55
X96.55Y-138.8
X96.65Y-104.6
X96.7Y-84.35
X96.7Y-91.9
X96.7Y-95.35
X96.7Y-141.6
X97.15Y-124.45
X97.2Y-117.5
X97.2Y-123.2
X97.25Y-121.25
X97.35Y-111.8
X97.4Y-131.8
X97.55Y-95.5
X97.55Y-132.95
X97.65Y-145.05
X97.75Y-128.85
X97.9Y-118.5
X98.0Y-113.95
X98.3Y-155.7
X98.55Y-114.65
X98.65Y-85.6
X98.75Y-128.9
X99.103Y-51.215
X99.103Y-54.215
X99.103Y-57.215
X99.103Y-60.215
X99.103Y-63.215
X99.103Y-69.215
X99.103Y-87.215
X99.103Y-162.215
X99.103Y-165.215
X99.103Y-168.215
X99.15Y-136.35
X99.6Y-98.35
X99.7Y-114.5
X99.75Y-117.2
X99.9Y-115.55
X99.95Y-111.95
X100.175Y-133.875
X100.2Y-134.7
X100.3Y-116.4
X100.55Y-131.6
X100.8Y-96.1
X101.05Y-138.95
X101.1Y-128.85
X101.1Y-142.935
X101.3Y-105.35
X101.4Y-98.95
X101.45Y-131.9
X101.65Y-91.85
X101.65Y-127.95
X101.9Y-89.5
X102.103Y-51.215
X102.103Y-54.215
X102.103Y-60.215
X102.103Y-63.215
X102.103Y-69.215
X102.103Y-81.215
X102.103Y-87.215
X102.103Y-108.215
X102.103Y-114.215
X102.103Y-162.215
X102.2Y-121.85
X102.3Y-145.1
X102.4Y-144.2
X102.55Y-130.25
X102.55Y-131.55
X102.7Y-117.0
X102.8Y-91.45
X103.45Y-129.7
X103.65Y-145.25
X104.25Y-117.2
X104.35Y-116.35
X105.103Y-51.215
X105.103Y-57.215
X105.103Y-87.215
X105.103Y-99.215
X105.103Y-162.215
X105.103Y-165.215
X105.103Y-168.215
X105.15Y-120.75
X105.15Y-125.95
X105.2Y-127.5
X105.25Y-122.85
X105.5Y-136.15
X105.55Y-137.45
X105.8Y-91.1
X105.95Y-73.7
X105.95Y-92.05
X106.0Y-128.85
X106.15Y-74.6
X106.35Y-137.75
X106.45Y-101.55
X106.65Y-128.05
X107.1Y-73.7
X107.25Y-90.45
X107.25Y-115.4
X107.3Y-74.65
X107.3Y-130.4
X107.35Y-95.3
X107.4Y-97.3
X107.4Y-99.9
X107.4Y-100.95
X107.4Y-102.15
X107.4Y-103.2
X107.45Y-96.3
X107.45Y-116.35
X107.5Y-117.35
X107.5Y-121.75
X107.5Y-129.55
X107.55Y-92.95
X107.8Y-89.75
X108.05Y-68.25
X108.05Y-71.1
X108.1Y-69.25
X108.1Y-70.25
X108.1Y-72.0
X108.1Y-73.85
X108.103Y-51.215
X108.103Y-57.215
X108.103Y-63.215
X108.103Y-138.215
X108.103Y-162.215
X108.103Y-165.215
X108.103Y-168.215
X108.15Y-72.85
X108.15Y-87.8
X108.15Y-124.5
X108.2Y-94.5
X108.25Y-122.95
X108.8Y-74.6
X108.85Y-101.6
X108.9Y-99.85
X108.9Y-115.35
X108.9Y-117.15
X108.9Y-118.55
X108.9Y-119.55
X108.9Y-133.65
X108.95Y-97.0
X108.95Y-103.3
X108.95Y-125.95
X109.0Y-128.2
X109.05Y-71.55
X109.05Y-72.55
X109.05Y-73.55
X109.05Y-130.55
X109.05Y-132.5
X109.1Y-68.55
X109.1Y-70.65
X109.15Y-69.5
X109.6Y-134.25
X109.65Y-92.95
X109.65Y-94.1
X109.95Y-129.6
X110.75Y-93.8
X110.85Y-103.05
X110.95Y-99.85
X110.95Y-102.2
X110.95Y-116.35
X110.95Y-124.5
X111.0Y-100.95
X111.0Y-118.75
X111.05Y-115.35
X111.1Y-89.45
X111.103Y-51.215
X111.103Y-54.215
X111.103Y-57.215
X111.103Y-60.215
X111.103Y-63.215
X111.103Y-66.215
X111.103Y-69.215
X111.103Y-72.215
X111.103Y-75.215
X111.103Y-81.215
X111.103Y-105.215
X111.103Y-108.215
X111.103Y-111.215
X111.103Y-114.215
X111.103Y-126.215
X111.103Y-138.215
X111.103Y-141.215
X111.103Y-144.215
X111.103Y-147.215
X111.103Y-153.215
X111.103Y-156.215
X111.103Y-159.215
X111.103Y-162.215
X111.103Y-165.215
X111.103Y-168.215
X112.25Y-89.7
X112.25Y-117.15
X112.75Y-129.6
X112.95Y-92.4
X113.0Y-133.85
X113.3Y-94.55
X113.35Y-123.15
X113.35Y-124.8
X113.4Y-77.4
X113.4Y-135.85
X114.103Y-51.215
X114.103Y-60.215
X114.103Y-63.215
X114.103Y-66.215
X114.103Y-69.215
X114.103Y-72.215
X114.103Y-75.215
X114.103Y-138.215
X114.103Y-141.215
X114.103Y-144.215
X114.103Y-147.215
X114.103Y-153.215
X114.103Y-156.215
X114.103Y-159.215
X114.103Y-162.215
X114.103Y-165.215
X114.103Y-168.215
X114.15Y-117.85
X114.3Y-118.75
X114.55Y-88.4
X114.6Y-123.8
X114.7Y-135.8
X114.75Y-90.65
X114.9Y-124.75
X115.2Y-129.6
X115.25Y-122.3
X115.3Y-127.75
X115.65Y-133.85
X115.85Y-117.25
X115.85Y-118.35
X115.9Y-130.25
X115.9Y-136.3
X115.95Y-80.7
X116.55Y-127.2
X116.6Y-128.85
X116.682Y-126.117
X116.7Y-117.05
X117.103Y-51.215
X117.103Y-57.215
X117.103Y-63.215
X117.103Y-66.215
X117.103Y-72.215
X117.103Y-75.215
X117.103Y-138.215
X117.103Y-141.215
X117.103Y-144.215
X117.103Y-147.215
X117.103Y-150.215
X117.103Y-153.215
X117.103Y-156.215
X117.103Y-159.215
X117.103Y-162.215
X117.45Y-136.375
X117.5Y-117.8
X117.75Y-122.05
X117.9Y-89.85
X118.15Y-79.15
X118.7Y-91.5
X118.95Y-128.8
X120.103Y-51.215
X120.103Y-57.215
X120.103Y-72.215
X120.103Y-75.215
X120.103Y-117.215
X120.103Y-129.215
X120.103Y-141.215
X120.103Y-144.215
X120.103Y-147.215
X120.103Y-150.215
X120.103Y-153.215
X120.103Y-156.215
X120.103Y-159.215
X120.25Y-91.45
X120.35Y-77.5
X120.9Y-86.05
X121.15Y-136.4
X121.25Y-128.3
X121.912Y-83.22
X122.0Y-86.0
X122.25Y-133.8
X122.6Y-129.65
X122.75Y-91.3
X122.75Y-92.2
X122.75Y-92.95
X122.75Y-93.8
X122.75Y-94.65
X123.103Y-51.215
X123.103Y-54.215
X123.103Y-57.215
X123.103Y-60.215
X123.103Y-63.215
X123.103Y-66.215
X123.103Y-69.215
X123.103Y-72.215
X123.103Y-75.215
X123.103Y-141.215
X123.103Y-144.215
X123.103Y-147.215
X123.103Y-150.215
X123.103Y-153.215
X123.103Y-165.215
X123.103Y-168.215
X123.25Y-98.05
X123.5Y-90.85
X123.5Y-137.35
X123.65Y-91.75
X123.65Y-92.65
X123.65Y-93.4
X123.65Y-94.25
X123.65Y-95.1
X123.7Y-121.35
X123.7Y-139.5
X123.8Y-78.2
X124.45Y-113.6
X124.5Y-84.4
X124.5Y-85.35
X124.506Y-97.031
X124.55Y-86.3
X124.6Y-71.4
X124.65Y-69.9
X124.75Y-79.2
X124.8Y-83.35
X124.9Y-77.2
X124.95Y-99.65
X124.95Y-100.9
X124.95Y-102.0
X124.95Y-103.05
X125.025Y-111.925
X125.15Y-70.7
X125.15Y-72.0
X125.2Y-69.25
X125.65Y-71.4
X125.65Y-111.25
X125.7Y-69.9
X126.103Y-51.215
X126.103Y-57.215
X126.103Y-60.215
X126.103Y-63.215
X126.103Y-66.215
X126.103Y-114.215
X126.103Y-117.215
X126.103Y-120.215
X126.103Y-126.215
X126.103Y-129.215
X126.103Y-132.215
X126.103Y-135.215
X126.103Y-144.215
X126.103Y-147.215
X126.103Y-150.215
X126.103Y-153.215
X126.103Y-156.215
X126.103Y-165.215
X126.103Y-168.215
X127.2Y-98.45
X128.85Y-82.35
X129.103Y-51.215
X129.103Y-54.215
X129.103Y-57.215
X129.103Y-60.215
X129.103Y-63.215
X129.103Y-66.215
X129.103Y-87.215
X129.103Y-108.215
X129.103Y-111.215
X129.103Y-114.215
X129.103Y-117.215
X129.103Y-120.215
X129.103Y-126.215
X129.103Y-129.215
X129.103Y-132.215
X129.103Y-144.215
X129.103Y-147.215
X129.103Y-150.215
X129.103Y-168.215
X130.8Y-77.15
X130.8Y-79.15
X131.1Y-73.5
X132.103Y-51.215
X132.103Y-87.215
X132.103Y-114.215
X132.103Y-123.215
X132.103Y-126.215
X132.103Y-138.215
X132.103Y-144.215
X132.103Y-147.215
X132.103Y-156.215
X132.103Y-159.215
X132.103Y-162.215
X132.103Y-168.215
X132.45Y-73.35
X132.95Y-68.75
X133.1Y-69.6
X135.103Y-51.215
X135.103Y-54.215
X135.103Y-57.215
X135.103Y-60.215
X135.103Y-63.215
X135.103Y-66.215
X135.103Y-69.215
X135.103Y-105.215
X135.103Y-108.215
X135.103Y-117.215
X135.103Y-120.215
X135.103Y-123.215
X135.103Y-126.215
X135.103Y-138.215
X135.103Y-144.215
X135.103Y-153.215
X135.103Y-156.215
X135.103Y-159.215
X135.103Y-168.215
X138.103Y-51.215
X138.103Y-54.215
X138.103Y-57.215
X138.103Y-66.215
X138.103Y-69.215
X138.103Y-72.215
X138.103Y-75.215
X138.103Y-78.215
X138.103Y-81.215
X138.103Y-84.215
X138.103Y-87.215
X138.103Y-105.215
X138.103Y-108.215
X138.103Y-150.215
X138.103Y-159.215
X138.103Y-162.215
X138.103Y-165.215
X138.103Y-168.215
X141.103Y-51.215
X141.103Y-54.215
X141.103Y-57.215
X141.103Y-60.215
X141.103Y-63.215
X141.103Y-66.215
X141.103Y-69.215
X141.103Y-72.215
X141.103Y-75.215
X141.103Y-78.215
X141.103Y-81.215
X141.103Y-84.215
X141.103Y-87.215
X141.103Y-105.215
X141.103Y-108.215
X141.103Y-111.215
X141.103Y-114.215
X141.103Y-117.215
X141.103Y-120.215
X141.103Y-123.215
X141.103Y-126.215
X141.103Y-129.215
X141.103Y-132.215
X141.103Y-135.215
X141.103Y-138.215
X141.103Y-141.215
X141.103Y-144.215
X141.103Y-147.215
X141.103Y-150.215
X141.103Y-153.215
X141.103Y-156.215
X141.103Y-159.215
X141.103Y-162.215
X141.103Y-165.215
X141.103Y-168.215
X144.103Y-51.215
X144.103Y-60.215
X144.103Y-63.215
X144.103Y-66.215
X144.103Y-69.215
X144.103Y-72.215
X144.103Y-75.215
X144.103Y-78.215
X144.103Y-81.215
X144.103Y-84.215
X144.103Y-87.215
X144.103Y-105.215
X144.103Y-108.215
X144.103Y-111.215
X144.103Y-114.215
X144.103Y-117.215
X144.103Y-120.215
X144.103Y-123.215
X144.103Y-126.215
X144.103Y-129.215
X144.103Y-132.215
X144.103Y-135.215
X144.103Y-138.215
X144.103Y-141.215
X144.103Y-144.215
X144.103Y-147.215
X144.103Y-150.215
X144.103Y-153.215
X144.103Y-156.215
X144.103Y-162.215
X147.103Y-51.215
X147.103Y-66.215
X147.103Y-69.215
X147.103Y-72.215
X147.103Y-75.215
X147.103Y-78.215
X147.103Y-81.215
X147.103Y-84.215
X147.103Y-87.215
X147.103Y-105.215
X147.103Y-108.215
X147.103Y-111.215
X147.103Y-114.215
X147.103Y-117.215
X147.103Y-120.215
X147.103Y-123.215
X147.103Y-126.215
X147.103Y-129.215
X147.103Y-132.215
X147.103Y-135.215
X147.103Y-138.215
X147.103Y-141.215
X147.103Y-144.215
X147.103Y-147.215
X147.103Y-150.215
X147.103Y-159.215
X147.103Y-162.215
T2
X95.8Y-151.65
X95.8Y-152.65
X95.8Y-153.65
X97.1Y-151.65
X97.1Y-152.65
X97.1Y-153.65
T3
X52.95Y-148.61
X53.4Y-147.83
X53.85Y-148.61
X54.3Y-147.83
X54.75Y-148.61
X55.2Y-147.83
X55.65Y-148.61
X56.1Y-147.83
X56.55Y-148.61
X57.0Y-147.83
X57.45Y-148.61
X57.9Y-147.83
X58.35Y-148.61
X58.8Y-147.83
T5
X51.41Y-160.0
X56.49Y-160.0
X92.05Y-68.647
X92.05Y-72.147
X101.993Y-146.763
X104.197Y-66.55
X104.467Y-149.237
X107.697Y-66.55
X109.647Y-150.2
X113.147Y-150.2
X124.203Y-156.9
X127.703Y-156.9
T6
X57.828Y-92.2
X57.828Y-94.7
X57.828Y-96.7
X57.828Y-99.2
T7
X60.25Y-158.7
X62.79Y-158.7
X65.33Y-158.7
X67.87Y-158.7
X70.41Y-158.7
X72.95Y-158.7
X99.435Y-93.7
X101.975Y-93.7
X103.3Y-135.025
X103.3Y-137.565
X108.55Y-78.36
X108.55Y-80.9
T8
X102.71Y-85.005
X105.25Y-85.005
X107.79Y-85.005
X131.205Y-90.06
X131.205Y-92.6
X131.205Y-95.14
T9
X61.45Y-63.2
X61.45Y-65.7
X61.45Y-68.2
X75.95Y-63.2
X75.95Y-68.2
X111.94Y-121.4
X112.866Y-127.216
X127.234Y-141.584
X132.26Y-121.4
T10
X78.25Y-166.85
X83.25Y-166.85
X89.65Y-53.95
X94.65Y-53.95
X96.03Y-167.0
X101.03Y-167.0
X115.735Y-69.05
X116.1Y-166.45
X120.735Y-69.05
X121.1Y-166.45
X126.635Y-54.2
X131.635Y-54.2
T11
X60.2Y-137.45
T12
X132.278Y-106.48
X132.278Y-111.93
X132.278Y-117.38
X132.317Y-130.8
X132.317Y-136.25
X132.317Y-141.7
T13
X55.117Y-89.13
X55.117Y-102.27
X68.95Y-60.1
X68.95Y-71.3
T14
X55.0Y-55.0
X55.0Y-166.0
X146.0Y-55.0
X146.0Y-166.0
T4
G00X52.9Y-146.79
M15
G01X53.9Y-146.79
M16
G05
G00X52.9Y-149.65
M15
G01X53.9Y-149.65
M16
G05
G00X57.85Y-146.79
M15
G01X58.85Y-146.79
M16
G05
G00X57.85Y-149.65
M15
G01X58.85Y-149.65
M16
G05
T5
G00X100.85Y-55.55
M15
G01X100.85Y-57.75
M16
G05
G00X106.75Y-53.85
M15
G01X104.55Y-53.85
M16
G05
G00X106.95Y-59.65
M15
G01X104.35Y-59.65
M16
G05
G00X113.15Y-55.45
M15
G01X113.15Y-57.65
M16
G05
G00X119.05Y-53.75
M15
G01X116.85Y-53.75
M16
G05
G00X119.25Y-59.55
M15
G01X116.65Y-59.55
M16
G05
G00X128.9Y-160.7
M15
G01X131.5Y-160.7
M16
G05
G00X129.1Y-166.5
M15
G01X131.3Y-166.5
M16
G05
G00X135.0Y-164.8
M15
G01X135.0Y-162.6
M16
G05
T7
G00X81.375Y-91.2
M15
G01X80.625Y-91.2
M16
G05
G00X80.625Y-139.333
M15
G01X81.375Y-139.333
M16
G05
G00X83.875Y-83.6
M15
G01X83.125Y-83.6
M16
G05
G00X83.125Y-146.933
M15
G01X83.875Y-146.933
M16
G05
G00X86.375Y-91.2
M15
G01X85.625Y-91.2
M16
G05
G00X85.625Y-139.333
M15
G01X86.375Y-139.333
M16
G05
T12
G00X137.718Y-61.7
M15
G01X138.718Y-61.7
M16
G05
G00X137.718Y-154.7
M15
G01X138.718Y-154.7
M16
G05
G00X147.718Y-61.7
M15
G01X148.718Y-61.7
M16
G05
G00X147.718Y-154.7
M15
G01X148.718Y-154.7
M16
G05
T0
M30
